<?xml version="1.0" encoding="UTF-8" standalone="no"?>
<svg width="22px" height="23px" viewBox="0 0 22 23" version="1.1" xmlns="http://www.w3.org/2000/svg" xmlns:xlink="http://www.w3.org/1999/xlink">
    <!-- Generator: Sketch 41 (35326) - http://www.bohemiancoding.com/sketch -->
    <title>Group</title>
    <desc>Created with Sketch.</desc>
    <defs></defs>
    <g id="Page-1" stroke="none" stroke-width="1" fill="none" fill-rule="evenodd">
        <g id="In-primo-piano-(tutti)-Copy-8" transform="translate(-877.000000, -981.000000)" fill="#FFFFFF">
            <g id="Group" transform="translate(877.272045, 981.840000)">
                <path d="M17.4412417,0.969090909 C17.4412417,0.433183636 17.0081175,0 16.4722838,0 L4.84478936,0 C4.30895565,0 3.87583149,0.433183636 3.87583149,0.969090909 L3.87583149,4.84545455 L17.4412417,4.84545455 L17.4412417,0.969090909 L17.4412417,0.969090909 Z" id="Shape"></path>
                <path d="M20.3481153,5.81454545 L17.4412417,5.81454545 L3.87583149,5.81454545 L0.968957871,5.81454545 C0.433124169,5.81454545 0,6.24772909 0,6.78363636 L0,17.4436364 C0,17.9795436 0.433124169,18.4127273 0.968957871,18.4127273 L2.90687361,18.4127273 L2.90687361,13.5672727 L18.4101996,13.5672727 L18.4101996,18.4127273 L20.3481153,18.4127273 C20.883949,18.4127273 21.3170732,17.9795436 21.3170732,17.4436364 L21.3170732,6.78363636 C21.3170732,6.24772909 20.883949,5.81454545 20.3481153,5.81454545 L20.3481153,5.81454545 Z M15.5033259,9.69090909 C14.9674922,9.69090909 14.5343681,9.25772545 14.5343681,8.72181818 C14.5343681,8.18591091 14.9674922,7.75272727 15.5033259,7.75272727 C16.0391596,7.75272727 16.4722838,8.18591091 16.4722838,8.72181818 C16.4722838,9.25772545 16.0391596,9.69090909 15.5033259,9.69090909 L15.5033259,9.69090909 Z M18.4101996,9.69090909 C17.8743659,9.69090909 17.4412417,9.25772545 17.4412417,8.72181818 C17.4412417,8.18591091 17.8743659,7.75272727 18.4101996,7.75272727 C18.9460333,7.75272727 19.3791574,8.18591091 19.3791574,8.72181818 C19.3791574,9.25772545 18.9460333,9.69090909 18.4101996,9.69090909 L18.4101996,9.69090909 Z" id="Shape"></path>
                <path d="M3.87583149,14.5363636 L3.87583149,18.4127273 L3.87583149,20.3509091 C3.87583149,20.8868164 4.30895565,21.32 4.84478936,21.32 L16.4722838,21.32 C17.0081175,21.32 17.4412417,20.8868164 17.4412417,20.3509091 L17.4412417,18.4127273 L17.4412417,14.5363636 L3.87583149,14.5363636 L3.87583149,14.5363636 Z M14.5343681,19.3818182 L6.7827051,19.3818182 L6.7827051,18.4127273 L14.5343681,18.4127273 L14.5343681,19.3818182 L14.5343681,19.3818182 Z M14.5343681,17.4436364 L6.7827051,17.4436364 L6.7827051,16.4745455 L14.5343681,16.4745455 L14.5343681,17.4436364 L14.5343681,17.4436364 Z" id="Shape"></path>
            </g>
        </g>
    </g>
</svg>