<?xml version="1.0" encoding="UTF-8" standalone="no"?>
<svg width="21px" height="23px" viewBox="0 0 21 23" version="1.1" xmlns="http://www.w3.org/2000/svg" xmlns:xlink="http://www.w3.org/1999/xlink">
    <!-- Generator: Sketch 41 (35326) - http://www.bohemiancoding.com/sketch -->
    <title>Group Copy</title>
    <desc>Created with Sketch.</desc>
    <defs></defs>
    <g id="Page-1" stroke="none" stroke-width="1" fill="none" fill-rule="evenodd">
        <g id="In-primo-piano-(tutti)-Copy-8" transform="translate(-708.000000, -981.000000)" fill="#FFFFFF">
            <g id="Group-Copy" transform="translate(708.375235, 981.840000)">
                <path d="M15.5820075,8.14998 C14.8725111,7.43658 14.0455809,6.8757 13.122991,6.48456 C12.1690854,6.07866 11.1586648,5.87448 10.1137479,5.87448 C9.06907576,5.87448 8.05620857,6.07866 7.10205833,6.48456 C6.18215963,6.8757 5.35522942,7.43658 4.64573308,8.14998 C3.93623674,8.86584 3.37842583,9.69732 2.98697958,10.62228 C2.58330063,11.58168 2.38023788,12.60012 2.38023788,13.64808 C2.38023788,14.6985 2.58330063,15.716694 2.98697958,16.67634 C3.37842583,17.6013 3.93623674,18.43278 4.64573308,19.14618 C4.87081468,19.37496 5.11057551,19.58406 5.35767595,19.78086 L5.03962587,20.65908 C4.83167005,21.229554 5.12525474,21.85956 5.69040527,22.0662 C5.81517876,22.112694 5.93995226,22.13262 6.06472575,22.13262 C6.50999587,22.13262 6.93080059,21.8571 7.09227217,21.41184 L7.28065568,20.88786 C7.22193874,20.863014 7.1632218,20.83866 7.10205833,20.81406 C8.05620857,21.219714 9.06907576,21.423894 10.1137479,21.423894 C11.0874705,21.423894 12.0345258,21.246774 12.9297144,20.892534 L13.122991,21.416514 C13.2869091,21.85956 13.7052673,22.13508 14.1480909,22.13508 C14.2753109,22.13508 14.402531,22.110234 14.5273045,22.0662 C15.0926997,21.85464 15.3811466,21.222174 15.1707442,20.65416 L14.8526942,19.79316 C15.1071342,19.5939 15.3517881,19.37988 15.5817628,19.14618 C16.2910145,18.43278 16.8490701,17.6013 17.2380698,16.67634 C17.6417487,15.71694 17.847258,14.6985 17.847258,13.64808 C17.847258,12.599874 17.6417487,11.58168 17.2380698,10.62228 C16.8493147,9.69732 16.2915038,8.86584 15.5820075,8.14998 L15.5820075,8.14998 Z M10.1139926,20.43768 C6.39036011,20.43768 3.36399125,17.3922 3.36399125,13.64808 C3.36399125,9.90642 6.39036011,6.86094 10.1139926,6.86094 C13.8351786,6.86094 16.863994,9.90642 16.863994,13.64808 C16.863994,17.3922 13.8351786,20.43768 10.1139926,20.43768 L10.1139926,20.43768 Z" id="Shape"></path>
                <path d="M16.2890573,2.34438 C15.3664674,1.8204 14.2975744,1.6851 13.2749211,1.97046 C13.1330218,2.00982 13.0498395,2.15742 13.0889841,2.3001 C13.1281288,2.44278 13.2749211,2.52642 13.4168204,2.48706 C14.3024675,2.24106 15.2272593,2.35668 16.024831,2.81178 C16.8224028,3.26688 17.3973395,4.00488 17.6419934,4.8954 C17.6737984,5.01348 17.7812015,5.0922 17.89888,5.0922 C17.9208988,5.0922 17.9451196,5.08728 17.9698296,5.08236 C18.1117289,5.043 18.1949112,4.89294 18.1557666,4.75026 C17.8719681,3.72444 17.208956,2.87082 16.2890573,2.34438 L16.2890573,2.34438 Z" id="Shape"></path>
                <path d="M19.8145201,4.29024 C19.4108411,2.8167 18.4591374,1.59162 17.1380063,0.8364 C15.8144287,0.08364 14.2804487,-0.10578 12.8174183,0.30012 C12.6730725,0.33948 12.5898902,0.48708 12.6290348,0.62976 C12.670626,0.7749 12.8174183,0.85854 12.9593176,0.81918 C14.2853418,0.45018 15.6774225,0.62238 16.8737801,1.3038 C18.0725843,1.98768 18.933766,3.09714 19.3007469,4.43292 C19.3352431,4.551 19.4401996,4.62972 19.5578781,4.62972 C19.5823435,4.62972 19.6041177,4.62726 19.6288278,4.61988 C19.7704824,4.58052 19.8536647,4.43292 19.8145201,4.29024 L19.8145201,4.29024 Z" id="Shape"></path>
                <path d="M11.0265517,5.043 C11.8657146,5.13156 12.6850605,5.34558 13.4633046,5.67522 C14.4881598,6.11064 15.4083032,6.73548 16.1985353,7.53006 C16.3453277,7.6752 16.4847804,7.82772 16.6217866,7.98516 C16.6633777,8.0319 16.72185,8.05896 16.7857047,8.05896 C16.8025858,8.05896 16.8199562,8.05896 16.837082,8.05404 C16.9151266,8.03436 16.9789813,7.97286 16.9985536,7.89414 C17.066812,7.61124 17.1037548,7.3185 17.1037548,7.02576 C17.1037548,5.06022 15.5135044,3.45876 13.5562731,3.45876 C12.5336198,3.45876 11.5598972,3.90402 10.887099,4.67892 C10.8332751,4.74042 10.8161493,4.82898 10.8479543,4.90524 C10.8773128,4.9815 10.9458159,5.03316 11.0265517,5.043 L11.0265517,5.043 Z" id="Shape"></path>
                <path d="M13.9305936,9.81294 C12.9101421,8.78712 11.5550041,8.22132 10.1137479,8.22132 C8.67273642,8.22132 7.31735377,8.78712 6.29714697,9.81294 C5.27694016,10.8363 4.71668271,12.19914 4.71668271,13.64808 C4.71668271,15.099234 5.27694016,16.462074 6.29714697,17.48568 C7.31735377,18.5115 8.67273642,19.07484 10.1137479,19.07484 C11.5550041,19.07484 12.9101421,18.5115 13.9305936,17.48568 C14.9481092,16.46232 15.5110578,15.09948 15.5110578,13.64808 C15.5110578,12.19914 14.9483538,10.8363 13.9305936,9.81294 L13.9305936,9.81294 Z M12.5370449,11.755848 L10.5727187,13.731228 L12.0966679,15.263562 C12.2456621,15.413376 12.2456621,15.65667 12.0966679,15.806976 C12.0215591,15.882006 11.9241869,15.919152 11.8263253,15.919152 C11.7284637,15.919152 11.6308468,15.882006 11.5559827,15.806976 L10.0322782,14.274642 L9.98187949,14.325564 C9.90726005,14.400594 9.80939848,14.438232 9.71178157,14.438232 C9.61416466,14.438232 9.51605845,14.400594 9.44143901,14.325564 C9.29220012,14.175012 9.29220012,13.931718 9.44143901,13.781904 L9.49183771,13.731228 L9.42896166,13.66776 C9.27972277,13.517946 9.27972277,13.273914 9.42896166,13.1241 C9.57820054,12.974286 9.82040791,12.974286 9.96940214,13.1241 L10.0325228,13.187568 L11.9973384,11.212188 C12.1463326,11.061882 12.3882953,11.061882 12.5377789,11.212188 C12.6862838,11.362248 12.6862838,11.605788 12.5370449,11.755848 L12.5370449,11.755848 Z" id="Shape"></path>
                <path d="M3.12423042,7.02576 C3.12423042,7.3185 3.15848197,7.61124 3.2294316,7.89414 C3.24900391,7.97286 3.31016739,8.03436 3.39090318,8.05404 C3.40802895,8.05896 3.42515473,8.05896 3.4422805,8.05896 C3.50344398,8.05896 3.56460746,8.0319 3.60619862,7.98516 C3.74075827,7.82772 3.88265754,7.6752 4.02700334,7.53006 C4.81723547,6.73548 5.73713417,6.11064 6.76223405,5.67522 C7.54023348,5.34558 8.35982407,5.13156 9.19898698,5.043 C9.27972277,5.03316 9.3506724,4.9815 9.38003087,4.90524 C9.40938934,4.82898 9.39471011,4.74042 9.34088625,4.67892 C8.66564146,3.90402 7.69436544,3.45876 6.66926556,3.45876 C4.71448083,3.45876 3.12423042,5.06022 3.12423042,7.02576 L3.12423042,7.02576 Z" id="Shape"></path>
                <path d="M3.96339333,2.80686 C4.73894622,2.31486 5.65884492,2.15742 6.55183169,2.3616 C6.69617749,2.39604 6.83807676,2.30502 6.87232831,2.15988 C6.90413331,2.0172 6.81361137,1.87206 6.6717121,1.84008 C5.63682607,1.60392 4.5750281,1.78596 3.67714825,2.35176 C2.78171495,2.92002 2.15784748,3.80562 1.92297973,4.84374 C1.89117472,4.98642 1.97925012,5.13156 2.12359593,5.16354 C2.14316824,5.16846 2.16274056,5.17092 2.18231287,5.17092 C2.30463982,5.17092 2.41473408,5.08728 2.44409255,4.96182 C2.6471553,4.06392 3.1853939,3.29886 3.96339333,2.80686 L3.96339333,2.80686 Z" id="Shape"></path>
                <path d="M3.04594117,1.3407 C4.21049378,0.6027 5.59278836,0.36654 6.93349178,0.67404 C7.07783759,0.70602 7.2221834,0.61746 7.2539884,0.47232 C7.28579341,0.32718 7.197718,0.1845 7.0533722,0.15006 C5.57076951,-0.18942 4.04657566,0.0738 2.75969609,0.8856 C1.47526307,1.69986 0.579829765,2.96922 0.244653909,4.45752 C0.210402362,4.60266 0.300924308,4.7478 0.445270115,4.77978 C0.464842427,4.7847 0.48441474,4.78716 0.503987053,4.78716 C0.626314007,4.78716 0.736408266,4.70106 0.763320196,4.57806 C1.06913758,3.22752 1.87894202,2.0787 3.04594117,1.3407 L3.04594117,1.3407 Z" id="Shape"></path>
            </g>
        </g>
    </g>
</svg>