<?xml version="1.0" encoding="UTF-8" standalone="no"?>
<svg width="18px" height="24px" viewBox="0 0 18 24" version="1.1" xmlns="http://www.w3.org/2000/svg" xmlns:xlink="http://www.w3.org/1999/xlink">
    <!-- Generator: Sketch 41 (35326) - http://www.bohemiancoding.com/sketch -->
    <title>Page 1 Copy 2</title>
    <desc>Created with Sketch.</desc>
    <defs></defs>
    <g id="Page-1" stroke="none" stroke-width="1" fill="none" fill-rule="evenodd">
        <g id="In-primo-piano-(tutti)-Copy-8" transform="translate(-823.000000, -981.000000)" stroke="#FFFFFF" fill="#FFFFFF">
            <path d="M838.957337,988.4 L838.958336,1002.47029 C838.958336,1003.37404 838.957337,1003.37923 838.957337,1003.37923 L824.579248,1003.37923 L824.579248,1002.38062 L824.579248,988.4 L823.980161,988.4 L823.979362,1002.47029 C823.979362,1003.30234 823.980161,1003.77868 823.980161,1003.9784 L839.556424,1003.9784 C839.556424,1003.57896 839.557223,1003.30234 839.557223,1002.47029 L839.556424,988.4 L838.957337,988.4 Z M832.068036,995.996573 L832.068036,983.029151 L835.539546,986.658919 L835.958507,986.220926 L831.768293,981.84 L827.578278,986.220727 L827.99704,986.658719 L831.468749,983.029151 L831.468749,995.996573 L832.068036,995.996573 L832.068036,995.996573 Z" id="Page-1-Copy-2"></path>
        </g>
    </g>
</svg>