<?xml version="1.0" encoding="UTF-8" standalone="no"?>
<svg width="21px" height="21px" viewBox="0 0 21 21" version="1.1" xmlns="http://www.w3.org/2000/svg" xmlns:xlink="http://www.w3.org/1999/xlink">
    <!-- Generator: Sketch 41 (35326) - http://www.bohemiancoding.com/sketch -->
    <title>Page 1</title>
    <desc>Created with Sketch.</desc>
    <defs></defs>
    <g id="Page-1" stroke="none" stroke-width="1" fill="none" fill-rule="evenodd">
        <g id="In-primo-piano-(tutti)-Copy-8" transform="translate(-764.000000, -982.000000)" fill="#FFFFFF">
            <g id="Page-1" transform="translate(764.947467, 981.840000)">
                <polygon id="Fill-1" points="6.85724032 4.18277298 5.96281767 4.18277298 5.96281767 6.50653574 3.72676104 6.50653574 3.72676104 7.43604085 5.96281767 7.43604085 5.96281767 9.75980361 6.85724032 9.75980361 6.85724032 7.43604085 9.09329695 7.43604085 9.09329695 6.50653574 6.85724032 6.50653574"></polygon>
                <g id="Group-4" transform="translate(0.000000, 0.192129)">
                    <path d="M0.894422651,6.77915959 C0.894422651,3.61853239 3.36869384,1.04721144 6.410029,1.04721144 C9.45136415,1.04721144 11.9256353,3.61853239 11.9256353,6.77915959 C11.9256353,9.93978679 9.45136415,12.5111077 6.410029,12.5111077 C3.36869384,12.5111077 0.894422651,9.93978679 0.894422651,6.77915959 L0.894422651,6.77915959 Z M13.2675675,11.3891951 L12.3728467,12.3187002 L11.2417002,11.1431861 C12.2216892,9.9726293 12.820058,8.4488606 12.820058,6.77915959 C12.820058,3.10606525 9.94448917,0.11770633 6.410029,0.11770633 C2.87556882,0.11770633 0,3.10606525 0,6.77915959 C0,10.4522539 2.87556882,13.4406128 6.410029,13.4406128 C8.01671022,13.4406128 9.48296708,12.8187739 10.6093433,11.8003462 L11.7404899,12.9758603 L10.8463653,13.9053654 L17.1433989,20.4490813 L19.5646011,17.9332209 L13.2675675,11.3891951 Z" id="Fill-2"></path>
                </g>
            </g>
        </g>
    </g>
</svg>