<?xml version="1.0" encoding="utf-8"?>
<!-- Generator: Adobe Illustrator 16.0.0, SVG Export Plug-In . SVG Version: 6.00 Build 0)  -->
<!DOCTYPE svg PUBLIC "-//W3C//DTD SVG 1.1//EN" "http://www.w3.org/Graphics/SVG/1.1/DTD/svg11.dtd">
<svg version="1.1" id="Layer_1" xmlns="http://www.w3.org/2000/svg" xmlns:xlink="http://www.w3.org/1999/xlink" x="0px" y="0px"
	 width="30px" height="30px" viewBox="0 0 30 30" enable-background="new 0 0 30 30" xml:space="preserve">
<path fill="#00A19A" d="M29.854,21.884c0,4.505-3.612,8.158-8.068,8.158H8.213c-4.456,0-8.068-3.653-8.068-8.158V8.159
	C0.146,3.652,3.758,0,8.213,0h13.573c4.456,0,8.068,3.652,8.068,8.159V21.884z"/>
<g>
	<path fill="#FFFFFF" d="M11.015,20.531c-0.476,0.238-1.547,0.492-2.94,0.492c-3.961,0-6.001-2.465-6.001-5.728
		c0-3.91,2.788-6.085,6.256-6.085c1.343,0,2.362,0.272,2.821,0.51l-0.526,2.057c-0.527-0.221-1.258-0.425-2.176-0.425
		c-2.058,0-3.655,1.241-3.655,3.791c0,2.295,1.36,3.74,3.672,3.74c0.782,0,1.648-0.17,2.159-0.375L11.015,20.531z"/>
	<path fill="#FFFFFF" d="M11.867,21.533L15.503,9.21h1.717l-3.637,12.323H11.867z"/>
	<path fill="#FFFFFF" d="M21.012,17.913l-0.816,2.94H17.51l3.502-11.457h3.398l3.553,11.457h-2.787l-0.885-2.94H21.012z
		 M23.918,15.976l-0.715-2.431c-0.203-0.68-0.408-1.53-0.578-2.21h-0.033c-0.17,0.68-0.34,1.547-0.527,2.21l-0.68,2.431H23.918z"/>
</g>
<g>
</g>
<g>
</g>
<g>
</g>
<g>
</g>
<g>
</g>
<g>
</g>
</svg>
