<?xml version="1.0" encoding="UTF-8" standalone="no"?>
<svg width="25px" height="25px" viewBox="0 0 25 25" version="1.1" xmlns="http://www.w3.org/2000/svg" xmlns:xlink="http://www.w3.org/1999/xlink">
    <!-- Generator: Sketch 41 (35326) - http://www.bohemiancoding.com/sketch -->
    <title>Group 21</title>
    <desc>Created with Sketch.</desc>
    <defs></defs>
    <g id="Page-1" stroke="none" stroke-width="1" fill="none" fill-rule="evenodd">
        <g id="In-primo-piano-(tutti)-Copy" transform="translate(-12.000000, -64.000000)">
            <g id="Group-21" transform="translate(12.000000, 64.000000)">
                <path d="M2.60468922,0 L22.3953108,0 C23.8338409,0 25,1.16395325 25,2.60468922 L25,22.3953108 C25,23.8338409 23.8360468,25 22.3953108,25 L2.60468922,25 C1.16615908,25 0,23.8360468 0,22.3953108 L0,2.60468922 C0,1.16615908 1.16395325,0 2.60468922,0 Z" id="Square---Big-Copy-4" fill="#607D8B"></path>
                <path d="M19.0905107,6.61646983 C22.8071419,10.3409069 22.8071419,16.3711375 19.0905107,20.0955746 C18.7338461,20.4495457 18.1789741,20.507773 17.7565981,20.2355531 L15.4922402,18.7596035 C15.2096366,18.5752294 15.0326379,18.2664732 15.0163363,17.9294378 C15.0000347,17.5924024 15.1464094,17.2680054 15.4098999,17.0572181 C15.7698265,16.7586423 16.2822989,16.7294297 16.6738233,16.9851703 L18.1559485,17.9506102 C20.6315259,14.8152169 20.1762772,10.28185 17.1266949,7.70130309 C14.3616384,5.38980508 10.3382198,5.38980508 7.57316323,7.70130309 C4.52358096,10.28185 4.06833222,14.8152169 6.54390965,17.9506102 L8.0280933,16.9851703 C8.42273061,16.7246417 8.94155876,16.7539304 9.30436773,17.0572181 C9.56342146,17.2698227 9.70566725,17.5931417 9.68737055,17.9277681 C9.66907385,18.2623945 9.49242458,18.5682769 9.21173491,18.7513694 L6.94737705,20.2273191 C6.52519285,20.5003423 5.96977465,20.4420577 5.61346442,20.0873406 C2.06024719,16.3384924 2.13990254,10.4414987 5.79308218,6.78999299 C9.44626182,3.13848733 15.3432915,3.06153476 19.0905107,6.61646983 L19.0905107,6.61646983 Z M17.1575725,14.3029355 C17.0906649,14.667692 17.3313776,15.0178576 17.695898,15.0860394 C18.0604184,15.1542213 18.411423,14.9147338 18.4808784,14.5504539 C18.5503337,14.186174 18.3120742,13.8343345 17.9480392,13.7636066 C17.77159,13.7293245 17.5887588,13.7670381 17.4402783,13.8683451 C17.2917977,13.9696521 17.1900029,14.1261366 17.1575725,14.3029355 L17.1575725,14.3029355 Z M7.82224259,11.4807222 C7.93764077,11.2069124 7.85985946,10.8898288 7.63085285,10.7005023 C7.40184624,10.5111757 7.07579351,10.4943976 6.82856313,10.6592178 C6.58133275,10.8240381 6.47141533,11.131463 6.55809886,11.4156716 C6.64478238,11.6998802 6.90755897,11.8936336 7.20469045,11.8924236 C7.47443851,11.8913252 7.71747942,11.729298 7.82224259,11.4807222 L7.82224259,11.4807222 Z M6.75387738,13.7821332 C6.41320072,13.8483055 6.17867138,14.1626364 6.21225341,14.5080516 C6.24583544,14.8534667 6.53652026,15.1167351 6.88356333,15.1160458 C6.92778079,15.1163473 6.97191684,15.1122095 7.01530779,15.1036948 C7.37949435,15.0312268 7.61621084,14.6775337 7.54434413,14.313228 L7.54434413,14.313228 C7.51001166,14.1379447 7.40742151,13.9834931 7.25916302,13.8838819 C7.11090453,13.7842707 6.92913466,13.747668 6.75387738,13.7821332 L6.75387738,13.7821332 Z M8.88237377,8.16240869 L8.88237377,8.16240869 C8.57529284,8.36957585 8.493304,8.78592415 8.6989112,9.09405173 C8.90451839,9.40217932 9.32044555,9.48627852 9.62961186,9.28223658 L9.62961186,9.28223658 C9.83100553,9.14932186 9.94584791,8.91877556 9.93062295,8.67795627 C9.915398,8.43713698 9.77243507,8.22288951 9.5559057,8.11639652 C9.33937632,8.00990352 9.08240899,8.02745818 8.88237377,8.16240869 L8.88237377,8.16240869 Z M16.006867,9.09079542 C16.1579488,8.86417842 16.1575797,8.56884992 16.005932,8.34261122 C15.8542844,8.11637252 15.5812468,8.00381361 15.3142195,8.05745485 C15.0471922,8.1110961 14.8388043,8.32036521 14.7862904,8.5876165 C14.7337765,8.85486779 14.8474866,9.12742798 15.0743633,9.27811957 C15.2225773,9.37788507 15.4045386,9.41422245 15.5797024,9.379035 C15.7548663,9.34384756 15.9086787,9.24005895 16.006867,9.09079542 L16.006867,9.09079542 Z M12.9685105,8.03889827 C13.0541325,7.83193578 13.031206,7.59594172 12.9073486,7.40932993 C12.7834912,7.22271813 12.574928,7.10993425 12.3509583,7.10845304 L12.3509583,7.10845304 C12.0125655,7.10621508 11.725115,7.35554952 11.6795144,7.69086319 C11.6339137,8.02617686 11.8443403,8.34321961 12.1710413,8.43143042 C12.4977423,8.51964124 12.8391452,8.35159509 12.9685105,8.03889827 L12.9685105,8.03889827 Z M17.7339545,11.7442111 L14.3477102,13.9118191 C14.1604396,14.7743231 13.4392455,15.418252 12.5611188,15.507004 C11.6829922,15.595756 10.847536,15.1091573 10.4914696,14.3015682 C10.1354031,13.4939792 10.3396622,12.5489694 10.9974743,11.9605251 C11.6552864,11.3720809 12.617127,11.2739589 13.3802119,11.7174505 L17.2913755,10.7067235 C17.5606859,10.6404834 17.8385998,10.7776208 17.9498683,11.0316585 C18.0611369,11.2856962 17.9734865,11.5829507 17.7421885,11.7359771 L17.7339545,11.7442111 Z M13.0137976,13.1851661 C12.854559,12.8206273 12.4300105,12.6541271 12.0654107,12.8132259 C11.7008108,12.9723246 11.5341477,13.3968092 11.6931066,13.76147 C11.8520654,14.1261309 12.276486,14.2929569 12.6412078,14.1341379 C13.0070375,13.9758723 13.1755981,13.5512472 13.0179146,13.1851661 L13.0137976,13.1851661 Z" id="Shape-Copy-5" fill="#FFFFFF"></path>
            </g>
        </g>
    </g>
</svg>