<?xml version="1.0" encoding="utf-8"?>
<!-- Generator: Adobe Illustrator 16.0.0, SVG Export Plug-In . SVG Version: 6.00 Build 0)  -->
<!DOCTYPE svg PUBLIC "-//W3C//DTD SVG 1.1//EN" "http://www.w3.org/Graphics/SVG/1.1/DTD/svg11.dtd">
<svg version="1.1" id="Layer_1" xmlns="http://www.w3.org/2000/svg" xmlns:xlink="http://www.w3.org/1999/xlink" x="0px" y="0px"
	 width="30px" height="30px" viewBox="0 0 30 30" enable-background="new 0 0 30 30" xml:space="preserve">
<path fill="#E94E1B" d="M29.854,21.884c0,4.505-3.612,8.158-8.068,8.158H8.213c-4.456,0-8.068-3.653-8.068-8.158V8.159
	C0.146,3.652,3.758,0,8.213,0h13.573c4.456,0,8.068,3.652,8.068,8.159V21.884z"/>
<g display="none">
	<path display="inline" fill="#FFFFFF" d="M11.015,20.531c-0.476,0.238-1.547,0.492-2.94,0.492c-3.961,0-6.001-2.465-6.001-5.728
		c0-3.91,2.788-6.085,6.256-6.085c1.343,0,2.362,0.272,2.821,0.51l-0.526,2.057c-0.527-0.221-1.258-0.425-2.176-0.425
		c-2.058,0-3.655,1.241-3.655,3.791c0,2.295,1.36,3.74,3.672,3.74c0.782,0,1.648-0.17,2.159-0.375L11.015,20.531z"/>
	<path display="inline" fill="#FFFFFF" d="M11.867,21.533L15.503,9.21h1.717l-3.637,12.323H11.867z"/>
	<path display="inline" fill="#FFFFFF" d="M18.342,9.55c0.68-0.136,2.057-0.238,3.35-0.238c1.58,0,2.549,0.153,3.383,0.646
		c0.799,0.425,1.377,1.207,1.377,2.244c0,1.02-0.596,1.972-1.887,2.448v0.034c1.309,0.357,2.277,1.343,2.277,2.822
		c0,1.037-0.477,1.852-1.189,2.43c-0.834,0.664-2.229,1.037-4.506,1.037c-1.275,0-2.227-0.084-2.805-0.17V9.55z M20.908,13.936h0.85
		c1.361,0,2.092-0.561,2.092-1.411c0-0.867-0.662-1.326-1.836-1.326c-0.561,0-0.885,0.034-1.105,0.068V13.936z M20.908,19.018
		c0.256,0.035,0.563,0.035,1.004,0.035c1.172,0,2.209-0.443,2.209-1.649c0-1.155-1.037-1.615-2.328-1.615h-0.885V19.018z"/>
</g>
<g>
	<path fill="#FFFFFF" d="M23.311,5.845L21.797,4.71h-0.095L7.608,24.48l1.514,1.136h0.095L23.311,5.845z M23.311,5.845"/>
	<path fill="#FFFFFF" d="M11.676,15.305h0.189l1.797-2.459c-0.567,0.284-1.229,0.568-1.986,0.568c-2.082,0-3.784-1.703-3.784-3.784
		c0-2.081,1.702-3.784,3.784-3.784c2.081,0,3.783,1.703,3.783,3.784c0,0.284,0,0.567-0.094,0.852l1.797-2.46
		c-0.757-2.364-2.933-4.067-5.486-4.067C8.554,3.954,6,6.508,6,9.629C6,12.751,8.554,15.305,11.676,15.305L11.676,15.305z
		 M11.676,15.305"/>
	<path fill="#FFFFFF" d="M18.865,15.305l-1.42,1.986c0.284-0.095,0.568-0.095,0.852-0.095c2.081,0,3.784,1.703,3.784,3.784
		s-1.703,3.784-3.784,3.784c-1.986,0-3.594-1.514-3.689-3.405l-1.419,1.986c0.852,1.986,2.838,3.311,5.204,3.311
		c3.121,0,5.675-2.554,5.675-5.676C23.973,18.048,21.702,15.588,18.865,15.305L18.865,15.305z M18.865,15.305"/>
</g>
<g>
</g>
<g>
</g>
<g>
</g>
<g>
</g>
<g>
</g>
<g>
</g>
</svg>
