<?xml version="1.0" encoding="UTF-8" standalone="no"?>
<svg width="25px" height="25px" viewBox="0 0 25 25" version="1.1" xmlns="http://www.w3.org/2000/svg" xmlns:xlink="http://www.w3.org/1999/xlink">
    <!-- Generator: Sketch 41 (35326) - http://www.bohemiancoding.com/sketch -->
    <title>Group 8</title>
    <desc>Created with Sketch.</desc>
    <defs></defs>
    <g id="Page-1" stroke="none" stroke-width="1" fill="none" fill-rule="evenodd">
        <g id="In-primo-piano-(tutti)-Copy" transform="translate(-12.000000, -414.000000)">
            <g id="Group-8" transform="translate(12.000000, 414.000000)">
                <path d="M2.60468922,0 L22.3953108,0 C23.8338409,0 25,1.16395325 25,2.60468922 L25,22.3953108 C25,23.8338409 23.8360468,25 22.3953108,25 L2.60468922,25 C1.16615908,25 0,23.8360468 0,22.3953108 L0,2.60468922 C0,1.16615908 1.16395325,0 2.60468922,0 Z" id="Square---Big-Copy-8" fill="#FF9F7C"></path>
                <path d="M12.6387346,3.90625 C10.5591742,3.90625 8.67974338,4.66728182 7.21295338,5.9177468 C7.02942824,6.07005964 6.96132254,6.32186263 7.04291312,6.54642614 C7.1245037,6.77098966 7.33811331,6.91966023 7.57623463,6.91761364 L9.45123463,6.91761364 C9.65221893,6.92500469 9.84186099,6.82419169 9.94870973,6.65315774 C10.0555585,6.48212379 10.063377,6.26685942 9.96921964,6.08846936 C9.87506224,5.9100793 9.69323715,5.79567193 9.49225025,5.78835227 C10.4440338,5.3197728 11.4973049,5.03551136 12.6387346,5.03551136 C14.4446564,5.03551136 16.0585119,5.69159151 17.3379534,6.78233754 C17.4918109,6.91265167 17.7032448,6.95066423 17.8925965,6.88205386 C18.0819482,6.81344349 18.220445,6.64863581 18.2559078,6.44972268 C18.2913706,6.25080954 18.2184107,6.04801662 18.0645159,5.9177468 C16.5977259,4.66728182 14.7182951,3.90625 12.6387346,3.90625 L12.6387346,3.90625 Z M12.6387346,7.29403409 C9.84945613,7.29403409 7.57623463,9.57585724 7.57623463,12.3757102 C7.57623463,15.1755444 9.84945406,17.4573864 12.6387346,17.4573864 C15.4280156,17.4573864 17.7012346,15.1755444 17.7012346,12.3757102 C17.7012346,9.57585724 15.4280135,7.29403409 12.6387346,7.29403409 L12.6387346,7.29403409 Z M12.6387346,8.42329545 C14.8200208,8.42329545 16.5762346,10.1861515 16.5762346,12.3757102 C16.5762346,14.5652539 14.8200187,16.328125 12.6387346,16.328125 C10.4574509,16.328125 8.70123463,14.5652539 8.70123463,12.3757102 C8.70123463,10.1861515 10.4574489,8.42329545 12.6387346,8.42329545 L12.6387346,8.42329545 Z M12.6328753,9.16437322 C12.3363708,9.16744105 12.0700717,9.44318786 12.0762346,9.74076705 L12.0762346,9.92897727 L11.5137346,9.92897727 C10.6919529,9.92897727 10.0137346,10.6082656 10.0137346,11.4346591 C10.0137346,12.2610526 10.6919501,12.9403409 11.5137346,12.9403409 L13.7637346,12.9403409 C13.9713575,12.9403409 14.1387346,13.1072081 14.1387346,13.3167614 C14.1387346,13.5263146 13.9713575,13.6931818 13.7637346,13.6931818 L11.1387346,13.6931818 C10.9358769,13.690302 10.7471889,13.7972858 10.6449228,13.9731668 C10.5426567,14.1490479 10.5426567,14.3665771 10.6449228,14.5424582 C10.7471889,14.7183392 10.9358769,14.825323 11.1387346,14.8224432 L12.0762346,14.8224432 L12.0762346,15.0106534 C12.0720309,15.3089478 12.3415291,15.5870472 12.6387346,15.5870472 C12.9359401,15.5870472 13.2054374,15.3089478 13.2012346,15.0106534 L13.2012346,14.8224432 L13.7637346,14.8224432 C14.5855186,14.8224432 15.2637346,14.1431548 15.2637346,13.3167614 C15.2637346,12.4903679 14.5855186,11.8110795 13.7637346,11.8110795 L11.5137346,11.8110795 C11.3061104,11.8110795 11.1387346,11.6442218 11.1387346,11.4346591 C11.1387346,11.2250908 11.3061076,11.0582386 11.5137346,11.0582386 L14.1387346,11.0582386 C14.3415923,11.0611184 14.5302804,10.9541347 14.6325465,10.7782536 C14.7348125,10.6023725 14.7348125,10.3848434 14.6325465,10.2089623 C14.5302804,10.0330812 14.3415923,9.92609749 14.1387346,9.92897727 L13.2012346,9.92897727 L13.2012346,9.74076705 C13.2074803,9.43926744 12.9332855,9.16119812 12.6328753,9.16437322 L12.6328753,9.16437322 Z M4.89264088,10.411266 C4.6263046,10.4215131 4.40368636,10.6179628 4.35943775,10.8817915 C4.0139855,12.7821126 4.2923156,14.8026623 5.332094,16.6104403 C6.37187375,18.4181996 7.97297375,19.6659769 9.785219,20.3158292 C10.0063338,20.3927572 10.2517994,20.3242444 10.401615,20.1437847 C10.5514306,19.963325 10.5743016,19.7086141 10.4590471,19.5041726 L9.52154713,17.8749778 C9.36170278,17.6341279 9.04633422,17.5535645 8.79123735,17.6884143 C8.53614048,17.8232641 8.42389764,18.1298724 8.53131275,18.3984375 C7.65017506,17.8051612 6.87596131,17.0389197 6.30475025,16.0458097 C5.40178756,14.4758917 5.16553063,12.7452422 5.46685963,11.0876465 C5.5011819,10.9176474 5.45576579,10.7412459 5.3436859,10.6092254 C5.23160601,10.4772049 5.06529853,10.4042141 4.89264088,10.411266 L4.89264088,10.411266 Z M20.3613909,10.4171475 C20.1628193,10.4195309 19.9802107,10.5268286 19.8809221,10.6994629 L18.9434221,12.3286577 C18.8067501,12.5896153 18.8930775,12.9121959 19.1416239,13.0692809 C19.3901703,13.2263658 19.717278,13.1650822 19.8926409,12.9285778 C19.8217274,13.9921726 19.5444508,15.0517962 18.972719,16.0458097 C18.0697471,17.6157088 16.6980273,18.6844135 15.1172503,19.2512651 C14.9239655,19.3155872 14.7803982,19.4797348 14.7418789,19.6804458 C14.7033596,19.8811567 14.7759023,20.0870937 14.9315493,20.2188891 C15.0871962,20.3506845 15.3016461,20.387761 15.4922503,20.3158292 C17.3044908,19.6659581 18.9055858,18.4181996 19.9453753,16.6104403 C20.985149,14.8026811 21.2634869,12.7821126 20.9180315,10.8817915 C20.8696027,10.6117212 20.6347621,10.415693 20.3613909,10.4171475 L20.3613909,10.4171475 Z" id="Shape-Copy-3" fill="#FFFFFF"></path>
            </g>
        </g>
    </g>
</svg>