<?xml version="1.0" encoding="UTF-8" standalone="no"?>
<svg width="25px" height="25px" viewBox="0 0 25 25" version="1.1" xmlns="http://www.w3.org/2000/svg" xmlns:xlink="http://www.w3.org/1999/xlink">
    <!-- Generator: Sketch 41 (35326) - http://www.bohemiancoding.com/sketch -->
    <title>Group 23</title>
    <desc>Created with Sketch.</desc>
    <defs></defs>
    <g id="Page-1" stroke="none" stroke-width="1" fill="none" fill-rule="evenodd">
        <g id="In-primo-piano-(tutti)-Copy" transform="translate(-12.000000, -264.000000)">
            <g id="Group-23" transform="translate(12.000000, 264.000000)">
                <path d="M2.60468922,0 L22.3953108,0 C23.8338409,0 25,1.16395325 25,2.60468922 L25,22.3953108 C25,23.8338409 23.8360468,25 22.3953108,25 L2.60468922,25 C1.16615908,25 0,23.8360468 0,22.3953108 L0,2.60468922 C0,1.16615908 1.16395325,0 2.60468922,0 Z" id="Square---Big-Copy-5" fill="#9C27B0"></path>
                <g id="Group-Copy-14" transform="translate(4.000000, 5.000000)" fill="#FFFFFF">
                    <g id="Group" transform="translate(0.072784, 0.095850)">
                        <g transform="translate(0.127647, 0.036835)" id="Shape">
                            <path d="M0.835007239,0.0190125318 C0.921594433,0.017779001 1.0021335,0.0636046289 1.04578445,0.138941886 C1.08943541,0.214279144 1.08943541,0.307456026 1.04578445,0.382793284 C1.0021335,0.458130541 0.921594433,0.503956169 0.835007239,0.502722638 C0.699559555,0.502722638 0.59491137,0.60814237 0.59491137,0.744577691 C0.59491137,0.881017898 0.699559555,0.986432841 0.835007239,0.986432841 C0.843458704,0.986298559 0.851911313,0.986613894 0.860329766,0.987377527 C0.860642371,0.987376912 0.860954976,0.987376912 0.861267581,0.987377527 C0.869374638,0.986646518 0.877513351,0.986331216 0.885652197,0.986432841 L1.12105899,0.986432841 C1.09388014,0.910369427 1.07697883,0.829546305 1.07697883,0.744577691 C1.07697883,0.346726129 1.40230874,0.0190125318 1.79726644,0.0190125318 C1.88385364,0.017779001 1.9643927,0.0636046289 2.00804366,0.138941886 C2.05169461,0.214279144 2.05169461,0.307456026 2.00804366,0.382793284 C1.9643927,0.458130541 1.88385364,0.503956169 1.79726644,0.502722638 C1.66182356,0.502722638 1.55717057,0.60814237 1.55717057,0.744577691 C1.55717057,0.881017898 1.66182356,0.986432841 1.79726644,0.986432841 L2.03923794,0.986432841 C2.0404885,0.986423 2.04173912,0.986423 2.04298968,0.986432841 L3.73679065,0.986432841 C3.75801762,0.986456764 3.77914774,0.9893159 3.79962854,0.994935498 C4.15681436,1.03633141 4.44019663,1.34192107 4.44019663,1.711998 C4.44019663,2.10467387 4.12289554,2.42730512 3.73491502,2.43567379 C3.72433923,2.43701584 3.71368646,2.43764703 3.7030274,2.43756316 C3.7027148,2.43756255 3.70240219,2.43756255 3.70208959,2.43756316 L3.30349299,2.43756316 C3.29382946,2.43846964 3.28412026,2.43878512 3.27441882,2.43850785 C2.84877687,2.43850785 2.51755405,2.76399976 2.51755405,3.16029378 C2.51756931,3.16186838 2.51756931,3.16344309 2.51755405,3.16501769 L3.7180334,3.16501769 L3.7180334,6.58027563 L2.03267276,7.58643038 C1.88689476,7.6734531 1.79743509,7.83142398 1.79726644,8.00211876 L1.79726644,15.2530464 C1.79726675,15.2533615 1.79726675,15.2536766 1.79726644,15.2539916 L0.356691225,15.2577704 L0.356691225,3.16501769 L1.07697883,3.16501769 C1.07696357,3.16344309 1.07696357,3.16186838 1.07697883,3.16029378 C1.07697883,2.52695279 1.58291125,2.01761427 2.20993122,1.96518977 C2.23388736,1.95752793 2.25888917,1.95370245 2.28402336,1.95385305 L3.70208959,1.95385305 C3.70459044,1.95381369 3.70709174,1.95381369 3.70959259,1.95385305 C3.713031,1.95377863 3.71647061,1.95377863 3.71990902,1.95385305 C3.85535191,1.95385305 3.96000489,1.84843811 3.96000489,1.711998 C3.96000489,1.57556273 3.85535191,1.47014295 3.71990902,1.47014295 L2.06268474,1.47014295 C2.05612248,1.47041427 2.04955194,1.47041427 2.04298968,1.47014295 C2.04173912,1.47015279 2.0404885,1.47015279 2.03923794,1.47014295 L1.81414806,1.47014295 L1.79726644,1.47014295 L0.885652197,1.47014295 C0.877200764,1.47027723 0.868748187,1.46996189 0.860329766,1.46919826 C0.851911313,1.4699619 0.843458704,1.47027723 0.835007239,1.47014295 C0.440044684,1.47014295 0.114719631,1.14243419 0.114719631,0.744577691 C0.114719631,0.346726129 0.440044684,0.0190125318 0.835007239,0.0190125318 L0.835007239,0.0190125318 Z M2.28871291,2.4413419 C1.87567551,2.45429566 1.55717057,2.77211642 1.55717057,3.16029378 C1.55718584,3.16186838 1.55718584,3.16344309 1.55717057,3.16501769 L2.03736231,3.16501769 C2.03734705,3.16344309 2.03734705,3.16186838 2.03736231,3.16029378 C2.03736231,2.88868088 2.13324075,2.6423428 2.28871291,2.4413419 L2.28871291,2.4413419 Z M8.76004665,6.06633364 L8.76004665,8.00117407 L12.0013409,6.06633364 L12.0013409,8.00117407 L15.2426351,6.06633364 L15.2426351,15.2577704 L2.27745818,15.2530464 L2.27745818,8.00211876 L5.5178146,6.06727833 L5.51875242,8.00211876 L8.76004665,6.06633364 L8.76004665,6.06633364 Z M3.7180334,9.4513597 L3.7180334,10.90249 L5.15860861,10.90249 L5.15860861,9.4513597 L3.7180334,9.4513597 L3.7180334,9.4513597 Z M6.59918383,9.4513597 L6.59918383,10.90249 L8.03975904,10.90249 L8.03975904,9.4513597 L6.59918383,9.4513597 L6.59918383,9.4513597 Z M9.48033426,9.4513597 L9.48033426,10.90249 L10.9209095,10.90249 L10.9209095,9.4513597 L9.48033426,9.4513597 L9.48033426,9.4513597 Z M12.3614847,9.4513597 L12.3614847,10.90249 L13.8020599,10.90249 L13.8020599,9.4513597 L12.3614847,9.4513597 L12.3614847,9.4513597 Z M3.7180334,12.3536203 L3.7180334,13.8047507 L5.15860861,13.8047507 L5.15860861,12.3536203 L3.7180334,12.3536203 L3.7180334,12.3536203 Z M6.59918383,12.3536203 L6.59918383,13.8047507 L8.03975904,13.8047507 L8.03975904,12.3536203 L6.59918383,12.3536203 L6.59918383,12.3536203 Z M9.48033426,12.3536203 L9.48033426,13.8047507 L10.9209095,13.8047507 L10.9209095,12.3536203 L9.48033426,12.3536203 L9.48033426,12.3536203 Z M12.3614847,12.3536203 L12.3614847,13.8047507 L13.8020599,13.8047507 L13.8020599,12.3536203 L12.3614847,12.3536203 L12.3614847,12.3536203 Z"></path>
                        </g>
                    </g>
                </g>
            </g>
        </g>
    </g>
</svg>