<?xml version="1.0" encoding="utf-8"?>
<!-- Generator: Adobe Illustrator 16.0.0, SVG Export Plug-In . SVG Version: 6.00 Build 0)  -->
<!DOCTYPE svg PUBLIC "-//W3C//DTD SVG 1.1//EN" "http://www.w3.org/Graphics/SVG/1.1/DTD/svg11.dtd">
<svg version="1.1" id="Layer_1" xmlns="http://www.w3.org/2000/svg" xmlns:xlink="http://www.w3.org/1999/xlink" x="0px" y="0px"
	 width="30px" height="30px" viewBox="0 0 30 30" enable-background="new 0 0 30 30" xml:space="preserve">
<path fill="#1D71B8" d="M29.854,21.884c0,4.505-3.612,8.158-8.068,8.158H8.213c-4.456,0-8.068-3.653-8.068-8.158V8.159
	C0.146,3.652,3.758,0,8.213,0h13.573c4.456,0,8.068,3.652,8.068,8.159V21.884z"/>
<g>
	<path fill="#FFFFFF" d="M23.318,24.125h-2.15c-0.441,0-0.766-0.172-0.975-0.514l-4.65-6.399c-0.142-0.2-0.294-0.344-0.456-0.431
		c-0.163-0.088-0.415-0.132-0.757-0.132h-1.837v7.476h-2.413V6.212h5.063c1.134,0,2.113,0.115,2.937,0.344
		c0.826,0.229,1.508,0.561,2.045,0.994c0.537,0.434,0.936,0.957,1.193,1.569c0.258,0.613,0.387,1.298,0.387,2.056
		c0,0.634-0.1,1.225-0.299,1.775c-0.201,0.55-0.49,1.043-0.869,1.481s-0.842,0.811-1.387,1.119
		c-0.547,0.309-1.166,0.542-1.857,0.701c0.309,0.174,0.576,0.429,0.801,0.762L23.318,24.125z M15.043,14.887
		c0.7,0,1.318-0.085,1.857-0.256c0.537-0.171,0.986-0.413,1.35-0.725c0.361-0.313,0.635-0.686,0.818-1.119s0.275-0.913,0.275-1.438
		c0-1.067-0.35-1.871-1.051-2.413c-0.699-0.542-1.75-0.813-3.15-0.813h-2.649v6.763H15.043z"/>
</g>
<g>
</g>
<g>
</g>
<g>
</g>
<g>
</g>
<g>
</g>
<g>
</g>
</svg>
