<?xml version="1.0" encoding="utf-8"?>
<!-- Generator: Adobe Illustrator 16.0.0, SVG Export Plug-In . SVG Version: 6.00 Build 0)  -->
<!DOCTYPE svg PUBLIC "-//W3C//DTD SVG 1.1//EN" "http://www.w3.org/Graphics/SVG/1.1/DTD/svg11.dtd">
<svg version="1.1" id="Layer_1" xmlns="http://www.w3.org/2000/svg" xmlns:xlink="http://www.w3.org/1999/xlink" x="0px" y="0px"
	 width="30px" height="30px" viewBox="0 0 30 30" enable-background="new 0 0 30 30" xml:space="preserve">
<path fill="#936037" d="M29.854,21.884c0,4.505-3.612,8.158-8.068,8.158H8.213c-4.456,0-8.068-3.653-8.068-8.158V8.159
	C0.146,3.652,3.758,0,8.213,0h13.573c4.456,0,8.068,3.652,8.068,8.159V21.884z"/>
<g>
	<path fill="#FFFFFF" d="M10.253,18.93c1.025,0.525,2.6,1.05,4.225,1.05c1.749,0,2.674-0.725,2.674-1.824
		c0-1.05-0.801-1.649-2.825-2.375c-2.8-0.975-4.624-2.524-4.624-4.974c0-2.875,2.399-5.074,6.375-5.074
		c1.898,0,3.299,0.4,4.299,0.85l-0.852,3.074c-0.674-0.325-1.873-0.8-3.523-0.8c-1.649,0-2.449,0.75-2.449,1.625
		c0,1.075,0.949,1.55,3.125,2.375c2.973,1.1,4.373,2.649,4.373,5.024c0,2.824-2.174,5.223-6.798,5.223
		c-1.925,0-3.824-0.5-4.773-1.023L10.253,18.93z"/>
</g>
<g>
</g>
<g>
</g>
<g>
</g>
<g>
</g>
<g>
</g>
<g>
</g>
</svg>
