<?xml version="1.0" encoding="UTF-8" standalone="no"?>
<svg width="15px" height="15px" viewBox="0 0 15 15" version="1.1" xmlns="http://www.w3.org/2000/svg" xmlns:xlink="http://www.w3.org/1999/xlink">
    <!-- Generator: Sketch 41 (35326) - http://www.bohemiancoding.com/sketch -->
    <title>Group 18</title>
    <desc>Created with Sketch.</desc>
    <defs></defs>
    <g id="Page-1" stroke="none" stroke-width="1" fill="none" fill-rule="evenodd">
        <g id="In-primo-piano-(tutti)-Copy" transform="translate(-500.000000, -335.000000)">
            <g id="Group-18" transform="translate(500.000000, 335.000000)">
                <g id="Group-17-Copy">
                    <circle id="Oval-6-Copy-3" fill="#FFA300" cx="7.125" cy="7.125" r="7.125"></circle>
                    <path d="M6.30068294,8.26556315 L5.17266892,11.3701889 L5.17266892,11.3805377 C5.16232016,11.4012352 5.16232016,11.4219327 5.17266892,11.4426302 C5.19336642,11.4736764 5.23476143,11.4840252 5.26580769,11.4633277 L8.84647607,7.72742802 L8.85682482,7.71707927 C8.90856859,7.67568426 8.93961484,7.60324299 8.92926609,7.54115047 C8.92926609,7.46870921 8.89821983,7.40661669 8.84647607,7.36522168 L7.36660446,6.20616139 C7.16997816,6.05093011 7.10788564,5.78186254 7.20102442,5.56453874 L8.43252597,3.08083812 C8.44287472,3.06014062 8.44287472,3.04979187 8.42217722,3.02909436 C8.40147971,2.9980481 8.3600847,2.98769935 8.31868969,3.01874561 L4.57244127,6.12337137 C4.53104626,6.16476638 4.5,6.2268589 4.5,6.29930017 C4.5,6.37174144 4.53104626,6.43383395 4.59313877,6.47522896 L6.1144054,7.62394049 C6.3317292,7.76882303 6.40417047,8.0378906 6.30068294,8.26556315 L6.30068294,8.26556315 Z" id="Shape-Copy-2" fill="#FFFFFF"></path>
                </g>
            </g>
        </g>
    </g>
</svg>