<?xml version="1.0" encoding="UTF-8" standalone="no"?>
<svg width="25px" height="25px" viewBox="0 0 25 25" version="1.1" xmlns="http://www.w3.org/2000/svg" xmlns:xlink="http://www.w3.org/1999/xlink">
    <!-- Generator: Sketch 41 (35326) - http://www.bohemiancoding.com/sketch -->
    <title>Group 22</title>
    <desc>Created with Sketch.</desc>
    <defs></defs>
    <g id="Page-1" stroke="none" stroke-width="1" fill="none" fill-rule="evenodd">
        <g id="In-primo-piano-(tutti)-Copy" transform="translate(-12.000000, -214.000000)">
            <g id="Group-22" transform="translate(12.000000, 214.000000)">
                <path d="M2.60468922,0 L22.3953108,0 C23.8338409,0 25,1.16395325 25,2.60468922 L25,22.3953108 C25,23.8338409 23.8360468,25 22.3953108,25 L2.60468922,25 C1.16615908,25 0,23.8360468 0,22.3953108 L0,2.60468922 C0,1.16615908 1.16395325,0 2.60468922,0 Z" id="Square---Big-Copy-4" fill="#F8333E"></path>
                <path d="M19.0964146,10.998632 L16.0690166,10.998632 L16.0690166,4.73013718 C16.0690166,4.32054803 15.7484685,4 15.3388794,4 L9.14161747,4 C8.73202832,4 8.41148029,4.32054803 8.41148029,4.73013718 L8.41148029,10.998632 L5.75805493,10.998632 C5.1347671,10.998632 4.77860262,11.7109609 5.15257532,12.2095912 L11.6347688,20.4904153 C11.9375086,20.9000045 12.5429882,20.9000045 12.845728,20.4904153 L19.7018942,12.191783 C20.0580587,11.6931527 19.7018942,10.998632 19.0964146,10.998632 L19.0964146,10.998632 Z M14.1279202,15.3082222 C13.8607968,15.6465784 13.5046323,15.8780853 13.0772349,16.0205511 L13.0772349,16.7684965 C13.0772349,16.8397294 13.0416185,16.8575376 12.9703856,16.8575376 L11.8484675,16.8575376 C11.7772346,16.8575376 11.7594264,16.8219212 11.7594264,16.7684965 L11.7594264,16.0383593 C11.5279195,15.9671265 11.332029,15.8780853 11.1539468,15.7534278 C10.9758645,15.6287702 10.8155905,15.4863044 10.6731247,15.3260304 C10.5484672,15.1657564 10.4416178,14.9698659 10.3703849,14.7739755 C10.299152,14.5602768 10.2635356,14.3465781 10.2635356,14.1328794 C10.2635356,14.0616465 10.299152,14.0438383 10.3703849,14.0438383 L11.7416182,14.0438383 C11.7772346,14.0438383 11.7950428,14.0438383 11.8128511,14.0616465 C11.8306593,14.0794547 11.8484675,14.0972629 11.8484675,14.1328794 C11.8484675,14.257537 11.9018922,14.3465781 12.0265497,14.4356192 C12.1512073,14.5246603 12.2758649,14.5602768 12.4361389,14.5602768 C12.5964129,14.5602768 12.7388787,14.5068521 12.8635363,14.4000027 C12.9703856,14.2931534 13.0416185,14.1863041 13.0416185,14.0794547 L13.0416185,13.9547972 C13.0416185,13.9191807 13.0238103,13.8835643 12.9881938,13.8479478 C12.8635363,13.7410985 12.6320294,13.6342491 12.2758649,13.545208 C12.0087415,13.4739751 11.7594264,13.384934 11.5635359,13.2958929 C11.3676455,13.2068517 11.1895632,13.1000024 11.0292892,12.9931531 C10.5484672,12.6369886 10.3169602,12.1561665 10.3169602,11.5684952 C10.3169602,11.3013718 10.3881931,11.0698649 10.5128507,10.838358 C10.6375083,10.6068511 10.8155905,10.4109606 11.0470974,10.2506866 C11.2786043,10.0904126 11.5279195,9.965755 11.8128511,9.89452211 L11.8128511,9.16438493 C11.8128511,9.12876848 11.8128511,9.11096026 11.8306593,9.09315203 C11.8484675,9.07534381 11.8662757,9.05753558 11.9018922,9.05753558 L13.0238103,9.05753558 C13.0594267,9.05753558 13.0772349,9.07534381 13.0950432,9.09315203 C13.1128514,9.11096026 13.1306596,9.1465767 13.1306596,9.16438493 L13.1306596,9.89452211 C13.4690159,10.0013714 13.7717557,10.1616455 14.0210708,10.3931524 C14.2703859,10.6246593 14.4484682,10.9095909 14.5375093,11.2123307 C14.5553175,11.2835636 14.5375093,11.31918 14.4840846,11.3369882 L13.1840843,11.7465774 L13.1484678,11.7465774 C13.0950432,11.7465774 13.0772349,11.7287692 13.0594267,11.6753445 C13.0238103,11.5684952 12.9525774,11.479454 12.8279198,11.4260294 C12.7032622,11.3726047 12.5964129,11.3369882 12.4717553,11.3369882 C12.2936731,11.3369882 12.1512073,11.3726047 12.0621662,11.4260294 C11.9553168,11.479454 11.9018922,11.5328787 11.8840839,11.5506869 C11.8840839,11.5684952 11.8840839,11.5863034 11.9018922,11.6219198 C11.9197004,11.6575363 11.9553168,11.6931527 12.0087415,11.7287692 C12.0621662,11.7643856 12.1333991,11.8000021 12.2402484,11.8534267 C12.3470978,11.9068514 12.4895636,11.9424679 12.6676458,11.9958925 C12.8813445,12.0493172 13.0950432,12.1205501 13.3087419,12.2095912 C13.5402488,12.2986323 13.7361392,12.4232899 13.9320297,12.5657557 C14.1635366,12.7438379 14.3416188,12.9575366 14.4484682,13.2068517 C14.5731258,13.4561669 14.6265504,13.7410985 14.6265504,14.0438383 C14.590934,14.5246603 14.43066,14.9342495 14.1279202,15.3082222 L14.1279202,15.3082222 Z" id="Shape-Copy-4" fill="#FFFFFF"></path>
            </g>
        </g>
    </g>
</svg>