<?xml version="1.0" encoding="UTF-8" standalone="no"?>
<svg width="25px" height="25px" viewBox="0 0 25 25" version="1.1" xmlns="http://www.w3.org/2000/svg" xmlns:xlink="http://www.w3.org/1999/xlink">
    <!-- Generator: Sketch 41 (35326) - http://www.bohemiancoding.com/sketch -->
    <title>Group 26</title>
    <desc>Created with Sketch.</desc>
    <defs></defs>
    <g id="Page-1" stroke="none" stroke-width="1" fill="none" fill-rule="evenodd">
        <g id="In-primo-piano-(tutti)-Copy" transform="translate(-12.000000, -464.000000)">
            <g id="Group-26" transform="translate(12.000000, 464.000000)">
                <g id="Group-9">
                    <path d="M2.60468922,0 L22.3953108,0 C23.8338409,0 25,1.16395325 25,2.60468922 L25,22.3953108 C25,23.8338409 23.8360468,25 22.3953108,25 L2.60468922,25 C1.16615908,25 0,23.8360468 0,22.3953108 L0,2.60468922 C0,1.16615908 1.16395325,0 2.60468922,0 Z" id="Square---Big-Copy-9" fill="#C25991"></path>
                    <g id="Group-Copy-17" transform="translate(6.718750, 5.000000)" fill="#FFFFFF">
                        <path d="M0.502232143,0.060321875 C0.224868477,0.060349465 2.77322069e-05,0.284037181 0,0.559978468 L0,14.5503631 C2.77322069e-05,14.8263044 0.224868477,15.0499921 0.502232143,15.0500197 L11.2165179,15.0500197 C11.4938815,15.0499921 11.7187223,14.8263044 11.71875,14.5503631 L11.71875,0.559978468 C11.7187223,0.284037181 11.4938815,0.060349465 11.2165179,0.060321875 L0.502232143,0.060321875 L0.502232143,0.060321875 Z M1.00446429,1.05963506 L10.7142857,1.05963506 L10.7142857,14.0507065 L1.00446429,14.0507065 L1.00446429,1.05963506 L1.00446429,1.05963506 Z M1.95661272,1.55929166 C1.69985839,1.58606483 1.50531577,1.80211503 1.50669643,2.05894825 L1.50669643,4.05757462 C1.50672416,4.33351591 1.73156491,4.55720363 2.00892857,4.55723122 L9.70982143,4.55723122 C9.98718509,4.55720363 10.2120258,4.33351591 10.2120536,4.05757462 L10.2120536,2.05894825 C10.2120258,1.78300696 9.98718509,1.55931925 9.70982143,1.55929166 L2.00892857,1.55929166 C1.9915018,1.55838753 1.9740395,1.55838753 1.95661272,1.55929166 L1.95661272,1.55929166 Z M2.51116071,2.55860484 L9.20758929,2.55860484 L9.20758929,3.55791803 L2.51116071,3.55791803 L2.51116071,2.55860484 L2.51116071,2.55860484 Z M1.95661272,5.7230966 C1.70066976,5.74878521 1.50640826,5.95553412 1.50669643,6.20193417 L1.50669643,7.24288541 C1.50789374,7.50765779 1.73239235,7.72169898 2.00892857,7.72172297 L3.34821429,7.72172297 C3.62475051,7.72169898 3.84924911,7.50765779 3.85044643,7.24288541 L3.85044643,6.20193417 C3.84924911,5.93716178 3.62475051,5.72312059 3.34821429,5.7230966 L2.00892857,5.7230966 C1.9915018,5.72222646 1.9740395,5.72222646 1.95661272,5.7230966 L1.95661272,5.7230966 Z M5.13741629,5.7230966 C4.88147333,5.74878521 4.68721183,5.95553412 4.6875,6.20193417 L4.6875,7.24288541 C4.68869732,7.50765779 4.91319592,7.72169898 5.18973214,7.72172297 L6.52901786,7.72172297 C6.80555408,7.72169898 7.03005268,7.50765779 7.03125,7.24288541 L7.03125,6.20193417 C7.03005268,5.93716178 6.80555408,5.72312059 6.52901786,5.7230966 L5.18973214,5.7230966 C5.17230537,5.72222646 5.15484307,5.72222646 5.13741629,5.7230966 L5.13741629,5.7230966 Z M8.33391462,5.7230966 C8.07176164,5.74147088 7.86874019,5.95025953 7.86830357,6.20193417 L7.86830357,7.24288541 C7.86950089,7.50765779 8.09399949,7.72169898 8.37053571,7.72172297 L9.70982143,7.72172297 C9.98635765,7.72169898 10.2108563,7.50765779 10.2120536,7.24288541 L10.2120536,6.20193417 C10.2108563,5.93716178 9.98635765,5.72312059 9.70982143,5.7230966 L8.37053571,5.7230966 C8.35833274,5.72267038 8.34611759,5.72267038 8.33391462,5.7230966 L8.33391462,5.7230966 Z M1.97230748,8.55448396 C1.7101545,8.57285825 1.50713304,8.78164689 1.50669643,9.03332153 L1.50669643,10.0742728 C1.50789374,10.3390452 1.73239235,10.5530863 2.00892857,10.5531103 L3.34821429,10.5531103 C3.62475051,10.5530863 3.84924911,10.3390452 3.85044643,10.0742728 L3.85044643,9.03332153 C3.84924911,8.76854914 3.62475051,8.55450796 3.34821429,8.55448396 L2.00892857,8.55448396 C1.9967256,8.55405774 1.98451045,8.55405774 1.97230748,8.55448396 L1.97230748,8.55448396 Z M5.15311105,8.55448396 C4.89095807,8.57285825 4.68793661,8.78164689 4.6875,9.03332153 L4.6875,10.0742728 C4.68869732,10.3390452 4.91319592,10.5530863 5.18973214,10.5531103 L6.52901786,10.5531103 C6.80555408,10.5530863 7.03005268,10.3390452 7.03125,10.0742728 L7.03125,9.03332153 C7.03005268,8.76854914 6.80555408,8.55450796 6.52901786,8.55448396 L5.18973214,8.55448396 C5.17752917,8.55405774 5.16531402,8.55405774 5.15311105,8.55448396 L5.15311105,8.55448396 Z M8.31821987,8.55448396 C8.0622769,8.58017257 7.8680154,8.78692148 7.86830357,9.03332153 L7.86830357,10.0742728 C7.86950089,10.3390452 8.09399949,10.5530863 8.37053571,10.5531103 L9.70982143,10.5531103 C9.98635765,10.5530863 10.2108563,10.3390452 10.2120536,10.0742728 L10.2120536,9.03332153 C10.2108563,8.76854914 9.98635765,8.55450796 9.70982143,8.55448396 L8.37053571,8.55448396 C8.35310894,8.55361383 8.33564664,8.55361383 8.31821987,8.55448396 L8.31821987,8.55448396 Z M1.97230748,11.3858713 C1.7101545,11.4042456 1.50713304,11.6130343 1.50669643,11.8647089 L1.50669643,12.9056601 C1.50789374,13.1704325 1.73239235,13.3844737 2.00892857,13.3844977 L3.34821429,13.3844977 C3.62475051,13.3844737 3.84924911,13.1704325 3.85044643,12.9056601 L3.85044643,11.8647089 C3.84924911,11.5999365 3.62475051,11.3858953 3.34821429,11.3858713 L2.00892857,11.3858713 C1.9967256,11.3854451 1.98451045,11.3854451 1.97230748,11.3858713 L1.97230748,11.3858713 Z M5.15311105,11.3858713 C4.89095807,11.4042456 4.68793661,11.6130343 4.6875,11.8647089 L4.6875,12.9056601 C4.68869732,13.1704325 4.91319592,13.3844737 5.18973214,13.3844977 L6.52901786,13.3844977 C6.80555408,13.3844737 7.03005268,13.1704325 7.03125,12.9056601 L7.03125,11.8647089 C7.03005268,11.5999365 6.80555408,11.3858953 6.52901786,11.3858713 L5.18973214,11.3858713 C5.17752917,11.3854451 5.16531402,11.3854451 5.15311105,11.3858713 L5.15311105,11.3858713 Z M8.31821987,11.3858713 C8.0622769,11.4115599 7.8680154,11.6183088 7.86830357,11.8647089 L7.86830357,12.9056601 C7.86950089,13.1704325 8.09399949,13.3844737 8.37053571,13.3844977 L9.70982143,13.3844977 C9.98635765,13.3844737 10.2108563,13.1704325 10.2120536,12.9056601 L10.2120536,11.8647089 C10.2108563,11.5999365 9.98635765,11.3858953 9.70982143,11.3858713 L8.37053571,11.3858713 C8.35310894,11.3850012 8.33564664,11.3850012 8.31821987,11.3858713 L8.31821987,11.3858713 Z" id="Shape"></path>
                    </g>
                </g>
            </g>
        </g>
    </g>
</svg>