<?xml version="1.0" encoding="UTF-8" standalone="no"?>
<svg width="25px" height="25px" viewBox="0 0 25 25" version="1.1" xmlns="http://www.w3.org/2000/svg" xmlns:xlink="http://www.w3.org/1999/xlink">
    <!-- Generator: Sketch 41 (35326) - http://www.bohemiancoding.com/sketch -->
    <title>Group 25</title>
    <desc>Created with Sketch.</desc>
    <defs></defs>
    <g id="Page-1" stroke="none" stroke-width="1" fill="none" fill-rule="evenodd">
        <g id="In-primo-piano-(tutti)-Copy" transform="translate(-12.000000, -364.000000)">
            <g id="Group-25" transform="translate(12.000000, 364.000000)">
                <g id="Group-7">
                    <path d="M2.60468922,0 L22.3953108,0 C23.8338409,0 25,1.16395325 25,2.60468922 L25,22.3953108 C25,23.8338409 23.8360468,25 22.3953108,25 L2.60468922,25 C1.16615908,25 0,23.8360468 0,22.3953108 L0,2.60468922 C0,1.16615908 1.16395325,0 2.60468922,0 Z" id="Square---Big-Copy-7" fill="#27CABA"></path>
                    <g id="Group-Copy-16" transform="translate(4.375000, 4.687500)" fill="#FFFFFF">
                        <path d="M8.12171638,0.00460427952 L0,4.98780621 L1.11740603,4.98780621 L1.11740603,4.98780621 L15.1260267,4.98780621 L15.1260267,4.98780621 L16.2434328,4.98780621 L8.12171638,0.00460427952 L8.12171638,0.00460427952 Z M6.70443621,2.22032084 C6.71100888,2.22009201 6.71758767,2.22009201 6.72416034,2.22032084 L10.0862293,2.22032084 C10.1872695,2.21890824 10.2812521,2.27138626 10.3321892,2.35766005 C10.3831264,2.44393383 10.3831264,2.55063698 10.3321892,2.63691077 C10.2812521,2.72318455 10.1872695,2.77566258 10.0862293,2.77424998 L6.72416034,2.77424998 C6.56942544,2.77963421 6.43957266,2.65999781 6.43412599,2.50703456 C6.42867932,2.3540713 6.54970131,2.22570521 6.70443621,2.22032084 L6.70443621,2.22032084 Z M5.58374655,3.32817912 C5.59031923,3.32795029 5.59689801,3.32795029 5.60347069,3.32817912 L11.206919,3.32817912 C11.3079592,3.32676652 11.4019418,3.37924454 11.4528789,3.46551833 C11.503816,3.55179211 11.503816,3.65849526 11.4528789,3.74476905 C11.4019418,3.83104283 11.3079592,3.88352086 11.206919,3.88210826 L5.60347069,3.88210826 C5.44873579,3.88749249 5.31888301,3.76785609 5.31343634,3.61489283 C5.30798967,3.46192958 5.42901165,3.33356349 5.58374655,3.32817912 L5.58374655,3.32817912 Z M1.11740603,5.54389567 L1.11740603,13.8528328 L2.79844052,13.8528328 L2.79844052,7.20352277 L13.4449922,7.20352277 L13.4449922,13.8528328 L15.1260267,13.8528328 L15.1260267,5.54389567 L1.11740603,5.54389567 L1.11740603,5.54389567 Z M7.84482759,8.86747051 L7.84594828,11.0831871 L8.61861336,11.0831871 C8.63940216,11.0776478 8.66069526,11.0754321 8.68208922,11.0754321 C8.70534353,11.0751551 8.72848578,11.0754321 8.75103966,11.0831871 L9.73930302,11.0831871 C9.76009181,11.0776478 9.78138491,11.0754321 9.80277888,11.0754321 C9.82603319,11.0751551 9.84917543,11.0754321 9.87172931,11.0831871 L10.6476724,11.0831871 L10.6476724,8.86747051 L10.0873276,8.86747051 L10.0873276,9.69293571 C10.0890086,9.84382601 9.96848966,9.9681831 9.81590776,9.97316847 L9.81366638,9.97316847 L9.81030431,9.97316847 C9.7641319,9.97316847 9.71825086,9.96541346 9.67678534,9.94491808 L9.2412069,9.72960582 L8.82751552,9.93516893 L8.82303276,9.93516893 L8.80661466,9.94292394 C8.78711466,9.95234073 8.76649397,9.95954181 8.74532414,9.96452717 C8.73591034,9.96452717 8.72644052,9.97006646 8.71685862,9.97006646 L8.71573793,9.97006646 C8.53099224,9.99222363 8.37596724,9.8337445 8.40493707,9.65200035 L8.40493707,8.86547637 L7.84459224,8.86547637 L7.84482759,8.86747051 Z M8.96551724,8.86747051 L8.96551724,9.24724433 L9.11654698,9.17257468 C9.15229698,9.15484895 9.19150991,9.14487822 9.2314625,9.14321644 C9.27847543,9.14321644 9.32514655,9.15152537 9.36717241,9.17257468 L9.52586207,9.25156498 L9.52586207,8.86747051 L8.96551724,8.86747051 L8.96551724,8.86747051 Z M5.88362069,10.847324 L4.91067704,11.2627709 L5.48634741,11.5083831 L5.88362069,11.6771653 L6.85656422,11.2617184 L5.88362069,10.847324 L5.88362069,10.847324 Z M7.84482759,11.6371162 L7.84482759,13.4027653 C7.84530948,13.4121821 7.84530948,13.4215989 7.84482759,13.4310157 L7.84482759,13.8529436 L10.6465517,13.8529436 L10.6465517,11.637227 L10.0862069,11.637227 L10.0862069,12.4649079 C10.0878879,12.6275415 9.94821638,12.7567178 9.78414741,12.7440328 L9.78190603,12.7440328 C9.77350086,12.7434789 9.76509569,12.7440328 9.75674655,12.7384935 L9.75450517,12.7384935 C9.7511431,12.7379396 9.74694052,12.7384935 9.74357845,12.7384935 C9.72049224,12.7329542 9.69802241,12.7263071 9.67681897,12.7157824 L9.24123491,12.501578 L8.83520345,12.7017126 C8.79166466,12.7294091 8.74125603,12.7438112 8.68964828,12.7449191 L8.6601181,12.7449191 C8.65132069,12.7449191 8.64252328,12.7449191 8.63383793,12.7393798 L8.63159655,12.7393798 C8.62313534,12.7393798 8.61473017,12.7338405 8.60643707,12.7327327 C8.46920862,12.6950655 8.38257371,12.561347 8.40504353,12.4223108 L8.40504353,11.6357314 L7.84469871,11.6357314 L7.84482759,11.6371162 Z M8.96551724,11.6371162 L8.96551724,12.0179425 L9.11654698,11.9432728 C9.15240905,11.926101 9.19156595,11.9161303 9.2314625,11.9150225 C9.27836336,11.9150225 9.32503448,11.9227775 9.36717241,11.9432728 L9.52586207,12.0212107 L9.52586207,11.6371162 L8.96551724,11.6371162 L8.96551724,11.6371162 Z M7.28339009,11.6825384 L6.1637931,12.1596376 L6.1637931,13.7057092 L7.28339009,13.2275022 L7.28339009,11.6825384 L7.28339009,11.6825384 Z M4.48385129,11.6825384 L4.48385129,13.2275022 L5.60344828,13.7046013 L5.60344828,12.1596376 L5.26526897,12.0157268 L4.65349009,11.7549923 L4.48385129,11.6825384 L4.48385129,11.6825384 Z" id="Shape"></path>
                    </g>
                </g>
            </g>
        </g>
    </g>
</svg>