<?xml version="1.0" encoding="UTF-8" standalone="no"?>
<svg width="25px" height="25px" viewBox="0 0 25 25" version="1.1" xmlns="http://www.w3.org/2000/svg" xmlns:xlink="http://www.w3.org/1999/xlink">
    <!-- Generator: Sketch 41 (35326) - http://www.bohemiancoding.com/sketch -->
    <title>Group 24</title>
    <desc>Created with Sketch.</desc>
    <defs></defs>
    <g id="Page-1" stroke="none" stroke-width="1" fill="none" fill-rule="evenodd">
        <g id="In-primo-piano-(tutti)-Copy" transform="translate(-12.000000, -314.000000)">
            <g id="Group-24" transform="translate(12.000000, 314.000000)">
                <g id="Group-15">
                    <path d="M2.60468922,0 L22.3953108,0 C23.8338409,0 25,1.16395325 25,2.60468922 L25,22.3953108 C25,23.8338409 23.8360468,25 22.3953108,25 L2.60468922,25 C1.16615908,25 0,23.8360468 0,22.3953108 L0,2.60468922 C0,1.16615908 1.16395325,0 2.60468922,0 Z" id="Square---Big-Copy-6" fill="#259B24"></path>
                    <g id="Group-Copy-15" transform="translate(4.502514, 6.312500)" fill="#FFFFFF">
                        <path d="M9.40359994,5.9296875 C10.2829442,5.246875 10.8751557,3.953125 10.8751557,2.73125 C10.8751557,0.95234375 9.61894955,0 8.05766483,0 C6.51432591,0 5.24017401,0.95234375 5.24017401,2.73125 C5.24017401,3.953125 5.83238546,5.246875 6.71172973,5.9296875 C4.55823356,6.41484375 2.97900303,7.99609375 2.97900303,9.4875 C3.01489464,11.2664063 5.27606561,12.21875 8.07561063,12.21875 C10.8751557,12.21875 13.1363266,11.2664063 13.1363266,9.4875 C13.1363266,7.99609375 11.5570961,6.41484375 9.40359994,5.9296875 L9.40359994,5.9296875 Z" id="Shape"></path>
                        <path d="M14.0515625,5.678125 C14.5540449,5.30078125 14.8770694,4.5640625 14.8770694,3.88125 C14.8770694,2.875 14.1771831,2.3359375 13.2978388,2.3359375 C12.4184946,2.3359375 11.7186083,2.875 11.7186083,3.88125 C11.7186083,4.5640625 12.0595785,5.30078125 12.5441152,5.678125 C12.0416327,5.7859375 11.5929877,6.01953125 11.2520175,6.2890625 C12.4902778,7.0078125 13.3516762,8.10390625 13.4772969,9.21796875 C14.9667984,9.1640625 16.1512213,8.64296875 16.1512213,7.67265625 C16.1512213,6.84609375 15.2539312,5.94765625 14.0515625,5.678125 L14.0515625,5.678125 Z" id="Shape"></path>
                        <path d="M4.89920378,6.2890625 C4.54028776,6.01953125 4.10958852,5.7859375 3.60710608,5.678125 C4.10958852,5.30078125 4.43261295,4.5640625 4.43261295,3.88125 C4.43261295,2.875 3.73272669,2.3359375 2.85338242,2.3359375 C1.97403815,2.3359375 1.2741519,2.875 1.2741519,3.88125 C1.2741519,4.5640625 1.61512213,5.30078125 2.09965876,5.678125 C0.89729007,5.94765625 0,6.84609375 0,7.67265625 C0,8.64296875 1.18442289,9.1640625 2.67392441,9.2 C2.79954502,8.10390625 3.66094349,7.0078125 4.89920378,6.2890625 L4.89920378,6.2890625 Z" id="Shape"></path>
                    </g>
                </g>
            </g>
        </g>
    </g>
</svg>