<?xml version="1.0" encoding="UTF-8" standalone="no"?>
<svg width="25px" height="25px" viewBox="0 0 25 25" version="1.1" xmlns="http://www.w3.org/2000/svg" xmlns:xlink="http://www.w3.org/1999/xlink">
    <!-- Generator: Sketch 41 (35326) - http://www.bohemiancoding.com/sketch -->
    <title>Group 19</title>
    <desc>Created with Sketch.</desc>
    <defs></defs>
    <g id="Page-1" stroke="none" stroke-width="1" fill="none" fill-rule="evenodd">
        <g id="In-primo-piano-(tutti)-Copy" transform="translate(-12.000000, -164.000000)">
            <g id="Group-19" transform="translate(12.000000, 164.000000)">
                <path d="M2.60468922,0 L22.3953108,0 C23.8338409,0 25,1.16395325 25,2.60468922 L25,22.3953108 C25,23.8338409 23.8360468,25 22.3953108,25 L2.60468922,25 C1.16615908,25 0,23.8360468 0,22.3953108 L0,2.60468922 C0,1.16615908 1.16395325,0 2.60468922,0 Z" id="Square---Big-Copy-4" fill="#03A9F4"></path>
                <path d="M14.8380682,5.45785732 C14.8380682,5.64060134 15.0222222,5.84551555 15.225142,5.84551555 L16.1625866,5.84551555 L12.31604,9.37683972 L7.54414506,11.0970731 C7.35254699,11.166838 7.241606,11.4049125 7.31127659,11.5967956 C7.38094737,11.7886786 7.61866781,11.8997757 7.81025835,11.8299894 L12.6486816,10.0855274 C12.6955729,10.0678502 12.7389757,10.0409331 12.7756903,10.0067843 L16.7734375,6.33614549 L16.7734375,7.39614846 C16.7705461,7.60095411 16.9559949,7.78932694 17.1605114,7.78932694 C17.3650278,7.78932694 17.5504772,7.60095411 17.5475852,7.39614846 L17.5475852,5.45785732 C17.5475649,5.25488528 17.3631772,5.07022041 17.1605114,5.07019909 L15.225142,5.07019909 C15.0007838,5.07019909 14.8380682,5.27511329 14.8380682,5.45785732 L14.8380682,5.45785732 Z M15.8057528,9.52826871 L15.8057528,18.6382429 L18.5152699,18.6382429 L18.5152699,9.52826871 L15.8057528,9.52826871 Z M11.1608665,12.4357112 L11.1608665,18.6382429 L13.8703835,18.6382429 L13.8703835,12.4357112 L11.1608665,12.4357112 Z M6.51598011,14.3740024 L6.51598011,18.6382429 L9.22549716,18.6382429 L9.22549716,14.3740024 L6.51598011,14.3740024 Z M4.38707386,19.4135593 C4.16444353,19.4135593 4,19.6184755 4,19.8012176 C4,19.9839597 4.18415409,20.1888758 4.38707386,20.1888758 L20.6441761,20.1888758 C20.8486926,20.1888758 21.03125,19.9839597 21.03125,19.8012176 C21.03125,19.6184755 20.8486926,19.4135593 20.6441761,19.4135593 L4.38707386,19.4135593 Z" id="Shape" fill="#FFFFFF"></path>
            </g>
        </g>
    </g>
</svg>