<?xml version="1.0" encoding="UTF-8" standalone="no"?>
<svg width="25px" height="26px" viewBox="0 0 25 26" version="1.1" xmlns="http://www.w3.org/2000/svg" xmlns:xlink="http://www.w3.org/1999/xlink">
    <!-- Generator: Sketch 41 (35326) - http://www.bohemiancoding.com/sketch -->
    <title>Group 20</title>
    <desc>Created with Sketch.</desc>
    <defs></defs>
    <g id="Page-1" stroke="none" stroke-width="1" fill="none" fill-rule="evenodd">
        <g id="In-primo-piano-(tutti)-Copy" transform="translate(-12.000000, -113.000000)">
            <g id="Group-20" transform="translate(12.000000, 113.000000)">
                <path d="M2.60468922,0.5 L22.3953108,0.5 C23.8338409,0.5 25,1.66395325 25,3.10468922 L25,22.8953108 C25,24.3338409 23.8360468,25.5 22.3953108,25.5 L2.60468922,25.5 C1.16615908,25.5 0,24.3360468 0,22.8953108 L0,3.10468922 C0,1.66615908 1.16395325,0.5 2.60468922,0.5 Z" id="Square---Big-Copy-4" fill="#AD934F"></path>
                <g id="Group-Copy-3" transform="translate(5.000000, 5.000000)" fill="#FFFFFF">
                    <rect id="Rectangle-path" x="0" y="13.8822168" width="15.3125" height="1.4302832"></rect>
                    <polygon id="Shape" points="13.2455518 8.2397998 2.06646973 8.2397998 0 13.3749902 15.3125 13.3749902"></polygon>
                    <path d="M6.82650391,3.72524414 L6.82650391,2.89023437 L8.78961426,2.89023437 C9.01714844,2.89023437 9.20329102,2.64260254 9.20329102,2.33970215 L9.20329102,0.550771484 C9.20305176,0.247871094 9.01714844,0 8.789375,0 L5.17323242,0 C4.94617676,0 4.76003418,0.247871094 4.76003418,0.550771484 L4.76003418,2.33994141 C4.76003418,2.6428418 4.9459375,2.89047363 5.17323242,2.89047363 L5.94842773,2.89047363 L5.94842773,3.7254834 L2.06646973,3.7254834 L2.06646973,7.76846191 L13.245791,7.76846191 L13.245791,3.72524414 L6.82650391,3.72524414 L6.82650391,3.72524414 Z M6.95857422,6.46594238 C6.95857422,6.76788574 6.77219238,7.01623535 6.54489746,7.01623535 L3.28716309,7.01623535 C3.06010742,7.01623535 2.87348633,6.76788574 2.87348633,6.46594238 L2.87348633,5.02824219 C2.87348633,4.72510254 3.05986816,4.4774707 3.28716309,4.4774707 L6.54513672,4.4774707 C6.77219238,4.4774707 6.95881348,4.72510254 6.95881348,5.02824219 L6.95881348,6.46594238 L6.95857422,6.46594238 Z M8.728125,7.01599609 L7.85674805,7.01599609 L7.85674805,6.44536621 L8.728125,6.44536621 L8.728125,7.01599609 L8.728125,7.01599609 Z M8.728125,6.03240723 L7.85674805,6.03240723 L7.85674805,5.46153809 L8.728125,5.46153809 L8.728125,6.03240723 L8.728125,6.03240723 Z M8.728125,5.04833984 L7.85674805,5.04833984 L7.85674805,4.47770996 L8.728125,4.47770996 L8.728125,5.04833984 L8.728125,5.04833984 Z M10.0356689,7.01599609 L9.16405273,7.01599609 L9.16405273,6.44536621 L10.0356689,6.44536621 L10.0356689,7.01599609 L10.0356689,7.01599609 Z M10.0356689,6.03240723 L9.16405273,6.03240723 L9.16405273,5.46153809 L10.0356689,5.46153809 L10.0356689,6.03240723 L10.0356689,6.03240723 Z M10.0356689,5.04833984 L9.16405273,5.04833984 L9.16405273,4.47770996 L10.0356689,4.47770996 L10.0356689,5.04833984 L10.0356689,5.04833984 Z M11.3152197,7.01599609 L10.4436035,7.01599609 L10.4436035,6.44536621 L11.3152197,6.44536621 L11.3152197,7.01599609 L11.3152197,7.01599609 Z M11.3152197,6.03240723 L10.4436035,6.03240723 L10.4436035,5.46153809 L11.3152197,5.46153809 L11.3152197,6.03240723 L11.3152197,6.03240723 Z M11.3152197,5.04833984 L10.4436035,5.04833984 L10.4436035,4.47770996 L11.3152197,4.47770996 L11.3152197,5.04833984 L11.3152197,5.04833984 Z M12.5409375,7.01599609 L11.9413574,7.01599609 L11.9413574,4.47770996 L12.5409375,4.47770996 L12.5409375,7.01599609 L12.5409375,7.01599609 Z" id="Shape"></path>
                </g>
            </g>
        </g>
    </g>
</svg>