<?xml version="1.0" encoding="UTF-8" standalone="no"?>
<svg width="19px" height="22px" viewBox="0 0 19 22" version="1.1" xmlns="http://www.w3.org/2000/svg" xmlns:xlink="http://www.w3.org/1999/xlink">
    <!-- Generator: Sketch 41 (35326) - http://www.bohemiancoding.com/sketch -->
    <title>Group 7 Copy 3</title>
    <desc>Created with Sketch.</desc>
    <defs></defs>
    <g id="Page-1" stroke="none" stroke-width="1" fill="none" fill-rule="evenodd">
        <g id="In-primo-piano-(tutti)-Copy-8" transform="translate(-596.000000, -981.000000)" fill="#FFFFFF">
            <g id="Group-7-Copy-3" transform="translate(596.050657, 981.840000)">
                <path d="M4.61980336,20.2971806 L0.0305952741,3.5960959 C-0.0962636718,3.13541669 0.182740294,2.66261434 0.657175608,2.53762061 L0.657175608,2.53762061 C1.12989661,2.41471708 1.61418921,2.68853277 1.74233389,3.15004806 L1.74233389,3.15004806 L6.32982766,19.8511328 C6.45754376,20.3109759 6.17768264,20.7850324 5.70539022,20.9108622 L5.70539022,20.9108622 C5.23052632,21.0333477 4.74751946,20.7582779 4.61980336,20.2971806 L4.61980336,20.2971806 L4.61980336,20.2971806 Z" id="Shape"></path>
                <path d="M17.8159675,5.78440863 C17.5626782,4.86555843 17.3261034,4.01066824 17.074957,3.08972784 C16.8229534,2.16878745 16.5503781,1.18346902 16.2250878,0 C15.3439324,0.916341961 14.4293479,1.30720863 13.5370495,1.5254251 C12.6426083,1.74531373 11.7691673,1.77499451 10.9042978,1.76454353 C10.0394284,1.75618275 9.18484483,1.70267373 8.32168971,1.6938949 C7.45596312,1.68386196 6.58080782,1.71270667 5.68765227,1.93175922 C4.79492529,2.14955765 3.88119802,2.54042431 3.00004264,3.45760235 C3.32404725,4.64065333 3.59705113,5.62597176 3.84862613,6.54691216 C4.10191544,7.46701647 4.33463304,8.32148863 4.58920808,9.2411749 C4.84335455,10.1625333 5.11378697,11.1495239 5.43907731,12.3325749 C6.32023269,11.4162329 7.23267423,11.0253663 8.12668694,10.8079859 C9.0176996,10.5897694 9.89328347,10.5584165 10.7577243,10.5655231 C11.6234509,10.57472 12.4780345,10.6299012 13.3424754,10.6411882 C14.2047733,10.6512212 15.084643,10.6186141 15.9769414,10.4008157 C16.8683826,10.1817631 17.7816813,9.79131451 18.6624081,8.87748078 C18.3396892,7.69150353 18.0671139,6.70702118 17.8159675,5.78440863 L17.8159675,5.78440863 Z" id="Shape"></path>
            </g>
        </g>
    </g>
</svg>