<?xml version="1.0" encoding="utf-8"?>
<!-- Generator: Adobe Illustrator 16.0.0, SVG Export Plug-In . SVG Version: 6.00 Build 0)  -->
<!DOCTYPE svg PUBLIC "-//W3C//DTD SVG 1.1//EN" "http://www.w3.org/Graphics/SVG/1.1/DTD/svg11.dtd">
<svg version="1.1" id="Layer_1" xmlns="http://www.w3.org/2000/svg" xmlns:xlink="http://www.w3.org/1999/xlink" x="0px" y="0px"
	 width="200px" height="225px" viewBox="0 0 200 225" enable-background="new 0 0 200 225" xml:space="preserve">
<line fill="#B2B2B2" x1="200" y1="0" x2="200" y2="88"/>
<polyline fill="#575756" points="118.167,7.835 193,7.835 193,94.167 "/>
<g display="none">
	<path display="inline" fill="#FFFFFF" d="M135.476,65.996c-1.512-5.609-12.774-11.122-32.476-11.122
		c-19.701,0-30.962,5.513-32.475,11.122c-0.108,0.19-0.191,0.402-0.191,0.637v48.349c0,0.211,0.058,0.408,0.153,0.586
		c1.544,6.4,15.351,11.172,32.513,11.172c17.125,0,30.912-4.752,32.501-11.127c0.108-0.184,0.166-0.402,0.166-0.631V66.633
		C135.667,66.398,135.584,66.187,135.476,65.996L135.476,65.996z M132.949,99.281c-0.04,0.159-0.09,0.313-0.153,0.472
		c-0.051,0.134-0.115,0.262-0.185,0.39c-0.09,0.157-0.186,0.325-0.301,0.484c-0.089,0.121-0.185,0.243-0.287,0.364
		c-0.146,0.166-0.3,0.338-0.472,0.51c-0.108,0.103-0.224,0.204-0.345,0.307c-0.21,0.185-0.434,0.376-0.683,0.555
		c-0.108,0.083-0.224,0.16-0.338,0.236c-0.294,0.204-0.606,0.408-0.944,0.606c-0.09,0.058-0.179,0.108-0.274,0.159
		c-0.39,0.217-0.798,0.434-1.237,0.65c-0.052,0.026-0.115,0.052-0.173,0.077c-0.484,0.229-1.002,0.459-1.544,0.676
		c-0.019,0.007-0.032,0.013-0.051,0.02c-2.967,1.187-6.763,2.182-11.185,2.839c-0.025,0-0.045,0-0.07,0.007
		c-0.854,0.128-1.741,0.236-2.647,0.338c-0.146,0.02-0.3,0.025-0.447,0.045c-0.791,0.083-1.595,0.153-2.418,0.217
		c-0.376,0.025-0.766,0.038-1.148,0.063c-0.625,0.039-1.237,0.077-1.869,0.096c-1.04,0.039-2.099,0.058-3.178,0.058
		c-1.078,0-2.137-0.019-3.177-0.058c-0.638-0.025-1.251-0.063-1.869-0.102c-0.383-0.02-0.778-0.038-1.155-0.064
		c-0.823-0.057-1.62-0.134-2.411-0.217c-0.146-0.013-0.307-0.025-0.453-0.044c-0.905-0.096-1.787-0.211-2.648-0.339
		c-0.02,0-0.044,0-0.063-0.006c-4.421-0.651-8.218-1.652-11.185-2.833c-0.018-0.007-0.031-0.013-0.05-0.02
		c-0.549-0.223-1.059-0.446-1.55-0.683c-0.05-0.025-0.114-0.051-0.173-0.076c-0.433-0.211-0.841-0.428-1.229-0.65
		c-0.097-0.052-0.193-0.103-0.281-0.153c-0.338-0.204-0.646-0.402-0.939-0.606c-0.114-0.083-0.229-0.159-0.338-0.236
		c-0.248-0.185-0.472-0.37-0.688-0.555c-0.116-0.103-0.23-0.204-0.338-0.313c-0.173-0.166-0.327-0.338-0.474-0.511
		c-0.101-0.121-0.204-0.242-0.285-0.363c-0.117-0.16-0.211-0.321-0.301-0.479c-0.07-0.134-0.134-0.262-0.191-0.39
		c-0.064-0.159-0.114-0.318-0.147-0.472c-0.051-0.211-0.101-0.421-0.101-0.632c0-0.146,0.011-0.294,0.038-0.44
		c0.033-0.197,0.013-0.396-0.038-0.587v-9.698c0.031,0.032,0.082,0.063,0.114,0.103c0.288,0.249,0.58,0.498,0.907,0.74
		c4.917,3.72,14.764,6.616,29.028,6.616c14.209,0,24.021-2.871,28.967-6.572c0.396-0.286,0.753-0.58,1.084-0.887v9.698
		c-0.051,0.191-0.07,0.39-0.038,0.587c0.025,0.146,0.038,0.294,0.038,0.44C133.051,98.86,133,99.07,132.949,99.281L132.949,99.281z
		 M133.051,72.241v9.705c-0.051,0.186-0.07,0.383-0.038,0.581c0.025,0.147,0.038,0.292,0.038,0.439c0,0.21-0.051,0.421-0.102,0.638
		c-0.04,0.154-0.09,0.312-0.153,0.472c-0.051,0.127-0.115,0.255-0.185,0.389c-0.09,0.16-0.186,0.318-0.301,0.479
		c-0.089,0.121-0.185,0.243-0.287,0.364c-0.146,0.171-0.3,0.344-0.472,0.509c-0.108,0.103-0.224,0.205-0.345,0.314
		c-0.21,0.185-0.434,0.369-0.683,0.556c-0.108,0.075-0.224,0.151-0.338,0.235c-0.294,0.204-0.606,0.401-0.944,0.605
		c-0.09,0.051-0.179,0.104-0.274,0.153c-0.39,0.225-0.798,0.439-1.237,0.65c-0.052,0.026-0.115,0.053-0.173,0.076
		c-0.484,0.237-1.002,0.46-1.544,0.684c-0.019,0.007-0.032,0.013-0.051,0.02c-2.967,1.181-6.763,2.182-11.185,2.832
		c-0.025,0-0.045,0.007-0.07,0.007c-0.854,0.128-1.741,0.242-2.647,0.338c-0.146,0.02-0.3,0.032-0.447,0.045
		c-0.791,0.083-1.595,0.159-2.418,0.217c-0.376,0.032-0.766,0.045-1.148,0.063c-0.625,0.039-1.237,0.077-1.869,0.103
		c-1.04,0.032-2.099,0.051-3.178,0.051c-1.078,0-2.137-0.019-3.177-0.058c-0.638-0.019-1.251-0.063-1.869-0.096
		c-0.383-0.025-0.778-0.038-1.155-0.063c-0.823-0.063-1.62-0.141-2.411-0.224c-0.146-0.013-0.307-0.025-0.453-0.038
		c-0.905-0.102-1.787-0.217-2.648-0.338c-0.02-0.007-0.044-0.007-0.063-0.013c-4.421-0.65-8.218-1.646-11.185-2.833
		c-0.018-0.006-0.031-0.013-0.05-0.02c-0.549-0.217-1.059-0.446-1.55-0.677c-0.05-0.031-0.114-0.057-0.173-0.083
		c-0.433-0.209-0.841-0.427-1.229-0.644c-0.097-0.058-0.193-0.107-0.281-0.16c-0.338-0.197-0.646-0.401-0.939-0.605
		c-0.114-0.077-0.229-0.153-0.338-0.235c-0.248-0.187-0.472-0.37-0.688-0.556c-0.116-0.103-0.23-0.204-0.338-0.307
		c-0.173-0.171-0.327-0.344-0.474-0.516c-0.101-0.114-0.204-0.237-0.285-0.357c-0.117-0.165-0.211-0.326-0.301-0.486
		c-0.07-0.127-0.134-0.254-0.191-0.388c-0.064-0.161-0.114-0.312-0.147-0.472c-0.051-0.21-0.101-0.421-0.101-0.632
		c0-0.147,0.011-0.292,0.038-0.439c0.033-0.198,0.013-0.396-0.038-0.581v-9.705c0.151,0.147,0.332,0.288,0.503,0.428
		c0.096,0.075,0.179,0.152,0.28,0.235c0.389,0.307,0.817,0.613,1.275,0.906c0.097,0.063,0.198,0.121,0.301,0.185
		c0.382,0.237,0.791,0.472,1.219,0.703c0.16,0.083,0.312,0.164,0.479,0.254c0.479,0.242,0.977,0.479,1.505,0.709
		c0.084,0.031,0.159,0.075,0.249,0.107c0.612,0.262,1.264,0.51,1.94,0.753c0.19,0.064,0.382,0.127,0.573,0.191
		c0.542,0.184,1.098,0.357,1.672,0.522c0.211,0.063,0.415,0.129,0.624,0.187c0.766,0.21,1.558,0.408,2.386,0.593
		c0.109,0.033,0.237,0.051,0.351,0.076c0.729,0.159,1.487,0.306,2.266,0.446c0.262,0.046,0.529,0.09,0.804,0.134
		c0.739,0.123,1.499,0.23,2.285,0.332c0.197,0.026,0.395,0.059,0.599,0.084c0.971,0.116,1.979,0.217,3.012,0.307
		c0.255,0.018,0.517,0.031,0.778,0.05c0.823,0.063,1.672,0.107,2.532,0.154c0.319,0.013,0.632,0.024,0.951,0.038
		c1.129,0.039,2.277,0.063,3.464,0.063c1.188,0,2.336-0.024,3.465-0.063c0.319-0.014,0.632-0.025,0.951-0.038
		c0.861-0.046,1.709-0.09,2.532-0.154c0.262-0.02,0.523-0.033,0.778-0.05c1.034-0.09,2.042-0.191,3.012-0.307
		c0.204-0.025,0.402-0.058,0.6-0.084c0.785-0.101,1.544-0.209,2.284-0.332c0.274-0.044,0.542-0.088,0.804-0.134
		c0.778-0.14,1.538-0.287,2.266-0.446c0.114-0.025,0.242-0.05,0.351-0.076c0.829-0.185,1.62-0.382,2.386-0.593
		c0.211-0.064,0.415-0.123,0.626-0.187c0.574-0.165,1.129-0.338,1.671-0.522c0.191-0.064,0.383-0.127,0.574-0.191
		c0.677-0.243,1.327-0.491,1.939-0.753c0.09-0.033,0.166-0.077,0.249-0.107c0.53-0.23,1.027-0.467,1.506-0.709
		c0.166-0.09,0.325-0.172,0.479-0.254c0.428-0.23,0.836-0.461,1.219-0.703c0.103-0.064,0.204-0.122,0.3-0.185
		c0.459-0.293,0.887-0.599,1.276-0.906c0.096-0.083,0.185-0.16,0.28-0.235C132.72,72.529,132.898,72.389,133.051,72.241
		L133.051,72.241z M103,57.491c17.712,0,30.051,5.161,30.051,9.8c0,4.632-12.339,9.8-30.051,9.8c-17.711,0-30.049-5.168-30.049-9.8
		C72.951,62.652,85.289,57.491,103,57.491L103,57.491z M133.051,114.592c-0.013,0.059-0.031,0.115-0.038,0.18
		c-0.74,4.518-12.978,9.354-30.013,9.354s-29.272-4.836-30.012-9.354c-0.006-0.064-0.026-0.121-0.038-0.172v-10.994
		c0.031,0.032,0.082,0.064,0.114,0.096c0.288,0.256,0.58,0.504,0.907,0.74c4.917,3.727,14.764,6.617,29.028,6.617
		c14.209,0,24.021-2.865,28.967-6.566c0.396-0.287,0.753-0.587,1.084-0.887V114.592z M133.051,114.592"/>
</g>
<g>
	<path fill="#FFFFFF" d="M180.009,31.667v-3.541h-6.042v-1.161l5.802-8.302h1.9v8.082h1.82v1.38h-1.82v3.541H180.009z
		 M180.009,26.746v-4.341c0-0.68,0.02-1.36,0.06-2.04h-0.06c-0.4,0.76-0.721,1.32-1.081,1.92l-3.181,4.421v0.04H180.009z"/>
</g>
<g display="none">
	<path display="inline" fill="#FFFFFF" d="M119.376,63.842c-0.528-2.571-2.802-4.509-5.527-4.509c-0.622,0-1.123,0.506-1.123,1.129
		c0,0.621,0.501,1.128,1.123,1.128c1.866,0,3.386,1.514,3.386,3.379c0,1.866-1.52,3.38-3.386,3.38c-0.622,0-1.123,0.508-1.123,1.129
		c0,0.623,0.501,1.129,1.123,1.129c2.726,0,4.999-1.938,5.527-4.508h14.771v10.146H73.265V66.1h19.163
		c0.623,0,1.128-0.508,1.128-1.129c0-0.621-0.506-1.128-1.128-1.128H90.38c0.468-1.31,1.707-2.251,3.176-2.251
		c1.866,0,3.38,1.514,3.38,3.379c0,1.866-1.514,3.38-3.38,3.38c-0.621,0-1.128,0.508-1.128,1.129c0,0.623,0.507,1.129,1.128,1.129
		c3.11,0,5.637-2.527,5.637-5.638c0-3.11-2.527-5.637-5.637-5.637c-2.72,0-4.999,1.938-5.521,4.509H71.007v59.759h65.391V63.842
		H119.376z M134.146,121.345H73.265V78.503h60.881V121.345z M134.146,121.345"/>
	<path display="inline" fill="#FFFFFF" d="M100.322,61.591c1.867,0,3.381,1.514,3.381,3.379c0,1.866-1.514,3.38-3.381,3.38
		c-0.622,0-1.128,0.508-1.128,1.129c0,0.623,0.507,1.129,1.128,1.129c3.105,0,5.638-2.527,5.638-5.638
		c0-3.11-2.532-5.637-5.638-5.637c-0.622,0-1.128,0.506-1.128,1.129C99.194,61.084,99.701,61.591,100.322,61.591L100.322,61.591z
		 M100.322,61.591"/>
	<path display="inline" fill="#FFFFFF" d="M107.089,61.591c1.86,0,3.38,1.514,3.38,3.379c0,1.866-1.52,3.38-3.38,3.38
		c-0.622,0-1.129,0.508-1.129,1.129c0,0.623,0.507,1.129,1.129,1.129c3.104,0,5.637-2.527,5.637-5.638
		c0-3.11-2.532-5.637-5.637-5.637c-0.622,0-1.129,0.506-1.129,1.129C105.96,61.084,106.467,61.591,107.089,61.591L107.089,61.591z
		 M107.089,61.591"/>
	<path display="inline" fill="#FFFFFF" d="M81.153,87.521h24.807c0.622,0,1.129-0.506,1.129-1.129c0-0.621-0.507-1.129-1.129-1.129
		H81.153c-0.622,0-1.129,0.508-1.129,1.129C80.024,87.015,80.531,87.521,81.153,87.521L81.153,87.521z M81.153,87.521"/>
	<path display="inline" fill="#FFFFFF" d="M126.252,103.304H109.34c-0.622,0-1.128,0.506-1.128,1.128
		c0,0.623,0.506,1.129,1.128,1.129h16.912c0.622,0,1.129-0.506,1.129-1.129C127.381,103.81,126.874,103.304,126.252,103.304
		L126.252,103.304z M126.252,103.304"/>
	<path display="inline" fill="#FFFFFF" d="M81.153,96.538h11.275c0.623,0,1.128-0.501,1.128-1.124c0-0.627-0.506-1.128-1.128-1.128
		H81.153c-0.622,0-1.129,0.501-1.129,1.128C80.024,96.037,80.531,96.538,81.153,96.538L81.153,96.538z M81.153,96.538"/>
	<path display="inline" fill="#FFFFFF" d="M126.252,112.327h-11.274c-0.622,0-1.129,0.501-1.129,1.123
		c0,0.629,0.507,1.129,1.129,1.129h11.274c0.622,0,1.129-0.5,1.129-1.129C127.381,112.828,126.874,112.327,126.252,112.327
		L126.252,112.327z M126.252,112.327"/>
	<path display="inline" fill="#FFFFFF" d="M102.574,95.415c0,0.623,0.506,1.124,1.129,1.124h16.912c0.622,0,1.128-0.501,1.128-1.124
		c0-0.627-0.506-1.128-1.128-1.128h-16.912C103.08,94.286,102.574,94.787,102.574,95.415L102.574,95.415z M102.574,95.415"/>
	<path display="inline" fill="#FFFFFF" d="M98.869,96.213c0.198-0.214,0.325-0.506,0.325-0.798c0-0.297-0.126-0.589-0.325-0.804
		c-0.418-0.418-1.184-0.418-1.602,0c-0.204,0.215-0.33,0.507-0.33,0.804c0,0.292,0.126,0.584,0.33,0.798
		c0.215,0.215,0.507,0.325,0.798,0.325C98.357,96.538,98.655,96.428,98.869,96.213L98.869,96.213z M98.869,96.213"/>
	<path display="inline" fill="#FFFFFF" d="M85.662,104.432c0,0.623,0.507,1.129,1.129,1.129h16.912c0.622,0,1.129-0.506,1.129-1.129
		c0-0.622-0.507-1.128-1.129-1.128H86.791C86.169,103.304,85.662,103.81,85.662,104.432L85.662,104.432z M85.662,104.432"/>
	<path display="inline" fill="#FFFFFF" d="M81.153,105.561c0.291,0,0.589-0.127,0.805-0.331c0.197-0.214,0.324-0.506,0.324-0.798
		c0-0.292-0.127-0.589-0.324-0.787c-0.418-0.429-1.184-0.429-1.603-0.011c-0.204,0.209-0.331,0.506-0.331,0.798
		c0,0.292,0.126,0.584,0.331,0.798C80.57,105.434,80.85,105.561,81.153,105.561L81.153,105.561z M81.153,105.561"/>
	<path display="inline" fill="#FFFFFF" d="M126.252,96.538c0.292,0,0.59-0.11,0.804-0.325c0.215-0.214,0.325-0.506,0.325-0.798
		c0-0.297-0.11-0.589-0.325-0.804c-0.429-0.418-1.184-0.418-1.602,0c-0.204,0.215-0.33,0.507-0.33,0.804
		c0,0.292,0.126,0.584,0.33,0.798C125.669,96.428,125.961,96.538,126.252,96.538L126.252,96.538z M126.252,96.538"/>
	<path display="inline" fill="#FFFFFF" d="M109.34,112.327H81.153c-0.622,0-1.129,0.501-1.129,1.123
		c0,0.629,0.507,1.129,1.129,1.129h28.187c0.622,0,1.129-0.5,1.129-1.129C110.469,112.828,109.962,112.327,109.34,112.327
		L109.34,112.327z M109.34,112.327"/>
</g>
<g display="none">
	<g display="inline">
		<defs>
			<rect id="SVGID_1_" x="82" y="60" width="45.84" height="63"/>
		</defs>
		<clipPath id="SVGID_2_">
			<use xlink:href="#SVGID_1_"  overflow="visible"/>
		</clipPath>
		<path clip-path="url(#SVGID_2_)" fill="#FFFFFF" d="M117.117,60H85.812C83.711,60,82,61.711,82,63.812v54.575
			c0,2.102,1.711,3.813,3.812,3.813h38.348c2.102,0,3.813-1.711,3.813-3.813V71.793L117.117,60z M118.02,65.707l4.758,5.172h-4.758
			V65.707z M124.77,118.383c0,0.34-0.273,0.613-0.609,0.613H85.812c-0.335,0-0.609-0.273-0.609-0.613V63.812
			c0-0.336,0.274-0.609,0.609-0.609h29v9.277c0,0.883,0.724,1.598,1.606,1.598h8.352V118.383z M90.855,77.035h27.2
			c0.66,0,1.199,0.539,1.199,1.199c0,0.664-0.539,1.203-1.199,1.203h-27.2c-0.664,0-1.203-0.539-1.203-1.203
			C89.652,77.574,90.191,77.035,90.855,77.035L90.855,77.035z M119.254,86.301c0,0.66-0.539,1.199-1.199,1.199h-27.2
			c-0.664,0-1.203-0.539-1.203-1.199c0-0.664,0.539-1.2,1.203-1.2h27.2C118.715,85.101,119.254,85.637,119.254,86.301
			L119.254,86.301z M119.254,94.102c0,0.66-0.539,1.199-1.199,1.199h-27.2c-0.664,0-1.203-0.539-1.203-1.199
			c0-0.664,0.539-1.203,1.203-1.203h27.2C118.715,92.898,119.254,93.438,119.254,94.102L119.254,94.102z M119.254,102.031
			c0,0.664-0.539,1.203-1.199,1.203h-27.2c-0.664,0-1.203-0.539-1.203-1.203c0-0.66,0.539-1.199,1.203-1.199h27.2
			C118.715,100.832,119.254,101.371,119.254,102.031L119.254,102.031z M119.254,102.031"/>
	</g>
</g>
<polyline fill="#4CC2F1" points="200,88 200,225 0,225 0,0 117,0 "/>
<rect x="63.583" y="64.167" fill="none" stroke="#FFFFFF" stroke-width="2" stroke-miterlimit="10" width="79.667" height="82"/>
<line fill="none" stroke="#FFFFFF" stroke-width="2" stroke-miterlimit="10" x1="62.5" y1="216.492" x2="146.583" y2="216.492"/>
<g>
	<path fill="#FFFFFF" d="M59.045,205.296c-0.768,0.385-2.304,0.769-4.272,0.769c-4.561,0-7.993-2.881-7.993-8.185
		c0-5.064,3.432-8.497,8.449-8.497c2.016,0,3.288,0.432,3.84,0.72l-0.504,1.704c-0.792-0.384-1.92-0.672-3.264-0.672
		c-3.792,0-6.313,2.425-6.313,6.673c0,3.96,2.28,6.505,6.216,6.505c1.272,0,2.568-0.265,3.409-0.673L59.045,205.296z"/>
	<path fill="#FFFFFF" d="M71.837,199.92c0,4.296-2.977,6.168-5.785,6.168c-3.144,0-5.568-2.304-5.568-5.977
		c0-3.888,2.544-6.168,5.76-6.168C69.581,193.943,71.837,196.367,71.837,199.92z M62.621,200.04c0,2.544,1.464,4.464,3.528,4.464
		c2.016,0,3.528-1.896,3.528-4.512c0-1.969-0.984-4.465-3.48-4.465S62.621,197.831,62.621,200.04z"/>
	<path fill="#FFFFFF" d="M74.5,197.352c0-1.2-0.024-2.185-0.096-3.145h1.872l0.12,1.92h0.048c0.576-1.104,1.92-2.184,3.84-2.184
		c1.608,0,4.104,0.96,4.104,4.944v6.937h-2.112v-6.696c0-1.872-0.696-3.433-2.688-3.433c-1.393,0-2.473,0.984-2.833,2.16
		c-0.096,0.264-0.144,0.624-0.144,0.984v6.984H74.5V197.352z"/>
	<path fill="#FFFFFF" d="M88.036,205.824v-10.009h-1.632v-1.608h1.632v-0.552c0-1.632,0.36-3.12,1.345-4.057
		c0.792-0.768,1.848-1.08,2.832-1.08c0.744,0,1.393,0.168,1.8,0.336l-0.288,1.633c-0.312-0.145-0.744-0.265-1.344-0.265
		c-1.8,0-2.256,1.584-2.256,3.36v0.624h2.808v1.608h-2.808v10.009H88.036z"/>
	<path fill="#FFFFFF" d="M95.693,200.399c0.048,2.856,1.872,4.032,3.984,4.032c1.512,0,2.424-0.264,3.216-0.6l0.36,1.512
		c-0.744,0.337-2.017,0.721-3.864,0.721c-3.577,0-5.713-2.353-5.713-5.856c0-3.505,2.064-6.265,5.448-6.265
		c3.793,0,4.801,3.336,4.801,5.473c0,0.432-0.048,0.768-0.072,0.983H95.693z M101.886,198.888c0.023-1.344-0.553-3.433-2.929-3.433
		c-2.136,0-3.072,1.969-3.24,3.433H101.886z"/>
	<path fill="#FFFFFF" d="M105.22,204.601l5.257-6.841c0.504-0.624,0.984-1.177,1.512-1.801v-0.048H105.7v-1.704h8.856l-0.023,1.32
		l-5.185,6.744c-0.48,0.648-0.96,1.225-1.488,1.824v0.049h6.793v1.68h-9.434V204.601z"/>
	<path fill="#FFFFFF" d="M119.165,190.943c0.023,0.72-0.504,1.296-1.345,1.296c-0.743,0-1.271-0.576-1.271-1.296
		c0-0.744,0.552-1.32,1.32-1.32C118.661,189.623,119.165,190.199,119.165,190.943z M116.813,205.824v-11.617h2.112v11.617H116.813z"
		/>
	<path fill="#FFFFFF" d="M132.94,199.92c0,4.296-2.976,6.168-5.784,6.168c-3.145,0-5.568-2.304-5.568-5.977
		c0-3.888,2.544-6.168,5.761-6.168C130.685,193.943,132.94,196.367,132.94,199.92z M123.724,200.04c0,2.544,1.465,4.464,3.528,4.464
		c2.017,0,3.528-1.896,3.528-4.512c0-1.969-0.983-4.465-3.479-4.465C124.804,195.527,123.724,197.831,123.724,200.04z"/>
	<path fill="#FFFFFF" d="M135.604,197.352c0-1.2-0.023-2.185-0.096-3.145h1.872l0.12,1.92h0.048c0.576-1.104,1.92-2.184,3.841-2.184
		c1.607,0,4.104,0.96,4.104,4.944v6.937h-2.111v-6.696c0-1.872-0.696-3.433-2.688-3.433c-1.393,0-2.473,0.984-2.832,2.16
		c-0.097,0.264-0.145,0.624-0.145,0.984v6.984h-2.112V197.352z"/>
	<path fill="#FFFFFF" d="M150.101,200.399c0.048,2.856,1.872,4.032,3.983,4.032c1.513,0,2.425-0.264,3.217-0.6l0.36,1.512
		c-0.744,0.337-2.017,0.721-3.864,0.721c-3.577,0-5.713-2.353-5.713-5.856c0-3.505,2.064-6.265,5.448-6.265
		c3.793,0,4.801,3.336,4.801,5.473c0,0.432-0.048,0.768-0.072,0.983H150.101z M156.293,198.888c0.023-1.344-0.553-3.433-2.929-3.433
		c-2.136,0-3.072,1.969-3.24,3.433H156.293z"/>
</g>
<g>
	<path fill="#FFFFFF" d="M86.71,77.962c3.23-0.68,8.331-1.19,13.517-1.19c7.396,0,12.155,1.275,15.726,4.166
		c2.976,2.21,4.761,5.61,4.761,10.116c0,5.525-3.655,10.371-9.691,12.581v0.17c5.44,1.36,11.816,5.866,11.816,14.366
		c0,4.93-1.955,8.671-4.846,11.477c-3.995,3.654-10.455,5.355-19.807,5.355c-5.1,0-9.01-0.341-11.476-0.681V77.962z M94.105,101.424
		h6.716c7.82,0,12.411-4.081,12.411-9.606c0-6.715-5.101-9.351-12.581-9.351c-3.4,0-5.355,0.255-6.546,0.51V101.424z
		 M94.105,128.881c1.445,0.255,3.57,0.34,6.206,0.34c7.65,0,14.706-2.805,14.706-11.136c0-7.821-6.716-11.051-14.791-11.051h-6.121
		V128.881z"/>
</g>
<g>
</g>
<g>
</g>
<g>
</g>
<g>
</g>
<g>
</g>
<g>
</g>
</svg>
