<?xml version="1.0" encoding="utf-8"?>
<!-- Generator: Adobe Illustrator 16.0.0, SVG Export Plug-In . SVG Version: 6.00 Build 0)  -->
<!DOCTYPE svg PUBLIC "-//W3C//DTD SVG 1.1//EN" "http://www.w3.org/Graphics/SVG/1.1/DTD/svg11.dtd">
<svg version="1.1" id="Layer_1" xmlns="http://www.w3.org/2000/svg" xmlns:xlink="http://www.w3.org/1999/xlink" x="0px" y="0px"
	 width="600px" height="200px" viewBox="0 0 600 200" enable-background="new 0 0 600 200" xml:space="preserve">
<g>
	<path fill="#3768B2" d="M63.853,84.08c0,3.445-0.568,6.636-1.706,9.571c-1.138,2.936-2.746,5.476-4.826,7.621
		c-2.08,2.146-4.583,3.819-7.508,5.021c-2.925,1.203-6.175,1.805-9.75,1.805c-3.553,0-6.792-0.602-9.717-1.805
		c-2.925-1.202-5.433-2.876-7.524-5.021c-2.091-2.145-3.71-4.685-4.858-7.621c-1.149-2.936-1.723-6.126-1.723-9.571
		s0.574-6.635,1.723-9.571c1.148-2.936,2.768-5.476,4.858-7.621s4.599-3.819,7.524-5.021c2.925-1.202,6.164-1.804,9.717-1.804
		c2.383,0,4.626,0.276,6.728,0.829c2.102,0.552,4.03,1.333,5.785,2.34s3.331,2.232,4.729,3.672c1.397,1.441,2.583,3.05,3.559,4.826
		c0.975,1.777,1.717,3.705,2.226,5.785C63.598,79.595,63.853,81.783,63.853,84.08z M54.916,84.08c0-2.578-0.347-4.891-1.04-6.938
		c-0.693-2.048-1.679-3.787-2.957-5.216c-1.279-1.43-2.833-2.524-4.664-3.283c-1.831-0.758-3.895-1.137-6.191-1.137
		s-4.36,0.379-6.191,1.137c-1.831,0.759-3.391,1.853-4.68,3.283c-1.289,1.43-2.28,3.168-2.974,5.216
		c-0.694,2.047-1.04,4.36-1.04,6.938c0,2.579,0.346,4.891,1.04,6.939c0.693,2.047,1.685,3.781,2.974,5.2
		c1.289,1.419,2.849,2.508,4.68,3.267c1.831,0.758,3.895,1.137,6.191,1.137s4.36-0.379,6.191-1.137
		c1.831-0.758,3.385-1.847,4.664-3.267c1.278-1.418,2.264-3.152,2.957-5.2C54.569,88.971,54.916,86.658,54.916,84.08z"/>
	<path fill="#3768B2" d="M95.183,100.362v7.215H67.656V60.582h8.743v39.78H95.183z"/>
	<path fill="#3768B2" d="M107.597,107.577h-8.775V60.582h8.775V107.577z"/>
	<path fill="#3768B2" d="M163.854,60.582v46.995h-7.702V77.222c0-1.213,0.065-2.524,0.195-3.933l-14.203,26.683
		c-0.672,1.279-1.701,1.917-3.087,1.917h-1.235c-1.387,0-2.417-0.639-3.088-1.917l-14.365-26.78
		c0.065,0.715,0.119,1.419,0.163,2.112c0.043,0.694,0.065,1.333,0.065,1.917v30.355h-7.703V60.582h6.598
		c0.39,0,0.726,0.011,1.007,0.033c0.281,0.022,0.536,0.076,0.764,0.163s0.433,0.228,0.618,0.422c0.184,0.195,0.363,0.455,0.536,0.78
		l14.073,26.098c0.368,0.694,0.709,1.409,1.023,2.145c0.314,0.737,0.623,1.495,0.926,2.275c0.303-0.801,0.618-1.576,0.943-2.324
		c0.325-0.748,0.671-1.467,1.04-2.161l13.878-26.033c0.173-0.325,0.357-0.585,0.552-0.78s0.406-0.336,0.634-0.422
		s0.482-0.141,0.764-0.163c0.281-0.021,0.618-0.033,1.008-0.033H163.854z"/>
	<path fill="#3768B2" d="M184.394,60.582c3.142,0,5.861,0.369,8.158,1.105c2.296,0.737,4.192,1.766,5.688,3.087
		c1.495,1.322,2.605,2.904,3.331,4.745c0.726,1.842,1.089,3.857,1.089,6.045c0,2.275-0.379,4.361-1.138,6.256
		c-0.758,1.896-1.896,3.526-3.412,4.891c-1.517,1.365-3.418,2.427-5.704,3.185c-2.286,0.759-4.956,1.138-8.011,1.138h-6.532v16.542
		h-8.743V60.582H184.394z M184.394,84.209c1.604,0,3.001-0.2,4.193-0.601c1.191-0.401,2.183-0.975,2.974-1.723
		c0.791-0.748,1.381-1.657,1.771-2.73c0.39-1.072,0.585-2.269,0.585-3.591c0-1.256-0.195-2.394-0.585-3.412
		c-0.39-1.019-0.975-1.885-1.755-2.6c-0.78-0.715-1.766-1.262-2.958-1.641c-1.192-0.379-2.6-0.569-4.225-0.569h-6.532v16.867
		H184.394z"/>
	<path fill="#3768B2" d="M214.228,107.577h-8.775V60.582h8.775V107.577z"/>
	<path fill="#3768B2" d="M262.392,107.577h-6.76c-0.758,0-1.375-0.189-1.852-0.569c-0.477-0.379-0.836-0.85-1.072-1.413
		l-3.512-9.587H229.73l-3.51,9.587c-0.174,0.499-0.509,0.954-1.008,1.364c-0.499,0.412-1.116,0.618-1.853,0.618h-6.825
		l18.492-46.995h8.906L262.392,107.577z M246.955,89.832l-5.72-15.632c-0.282-0.693-0.574-1.517-0.877-2.47
		c-0.304-0.953-0.606-1.982-0.91-3.087c-0.282,1.105-0.575,2.14-0.877,3.104c-0.304,0.964-0.596,1.804-0.878,2.519l-5.688,15.567
		H246.955z"/>
	<path fill="#3768B2" d="M290.862,69.13c-0.261,0.455-0.536,0.785-0.829,0.991c-0.292,0.206-0.655,0.309-1.089,0.309
		c-0.455,0-0.948-0.167-1.479-0.504c-0.531-0.335-1.165-0.709-1.901-1.121c-0.736-0.411-1.598-0.785-2.584-1.121
		s-2.15-0.504-3.493-0.504c-1.214,0-2.275,0.146-3.186,0.438c-0.91,0.293-1.674,0.699-2.291,1.219
		c-0.617,0.52-1.078,1.144-1.381,1.869c-0.304,0.726-0.455,1.522-0.455,2.389c0,1.105,0.309,2.026,0.926,2.762
		c0.617,0.737,1.436,1.365,2.454,1.885c1.018,0.52,2.178,0.986,3.478,1.397c1.3,0.412,2.632,0.851,3.997,1.316
		s2.697,1.007,3.998,1.625c1.3,0.617,2.458,1.397,3.478,2.34c1.018,0.942,1.836,2.096,2.453,3.461
		c0.618,1.365,0.927,3.022,0.927,4.972c0,2.124-0.363,4.111-1.089,5.964c-0.727,1.853-1.788,3.467-3.186,4.843
		s-3.104,2.459-5.118,3.25c-2.016,0.79-4.322,1.187-6.923,1.187c-1.495,0-2.969-0.146-4.42-0.439
		c-1.452-0.293-2.844-0.709-4.176-1.251c-1.333-0.542-2.584-1.191-3.754-1.95c-1.17-0.758-2.21-1.604-3.12-2.535l2.567-4.192
		c0.217-0.303,0.498-0.558,0.845-0.764c0.347-0.206,0.715-0.309,1.105-0.309c0.541,0,1.126,0.222,1.755,0.666
		c0.628,0.444,1.376,0.938,2.242,1.479s1.88,1.035,3.039,1.479c1.159,0.444,2.551,0.667,4.176,0.667c2.492,0,4.42-0.59,5.785-1.771
		c1.365-1.181,2.048-2.876,2.048-5.086c0-1.235-0.309-2.243-0.927-3.022c-0.617-0.78-1.436-1.436-2.453-1.966
		c-1.019-0.531-2.178-0.98-3.478-1.349c-1.3-0.368-2.622-0.769-3.965-1.202c-1.344-0.433-2.665-0.953-3.966-1.56
		c-1.3-0.606-2.459-1.397-3.477-2.373c-1.02-0.975-1.837-2.194-2.454-3.656s-0.927-3.266-0.927-5.411
		c0-1.711,0.342-3.38,1.024-5.005s1.674-3.065,2.974-4.322c1.3-1.256,2.903-2.264,4.81-3.022c1.906-0.758,4.096-1.138,6.565-1.138
		c2.773,0,5.33,0.434,7.67,1.3s4.333,2.08,5.979,3.64L290.862,69.13z"/>
	<path fill="#5392CE" d="M310.23,80.277h2.049c0.822,0,1.506-0.114,2.047-0.341s1.008-0.59,1.398-1.089l12.967-16.413
		c0.541-0.693,1.109-1.175,1.707-1.446c0.596-0.271,1.348-0.406,2.258-0.406h7.541l-15.828,19.533
		c-0.932,1.192-1.896,2.037-2.893,2.535c0.715,0.26,1.359,0.624,1.934,1.089c0.574,0.466,1.121,1.078,1.641,1.836l16.316,22.002
		h-7.703c-1.041,0-1.814-0.146-2.324-0.438c-0.51-0.293-0.938-0.721-1.283-1.284L316.764,88.5c-0.412-0.585-0.889-0.996-1.43-1.235
		c-0.541-0.238-1.322-0.357-2.34-0.357h-2.764v20.67h-8.742V60.582h8.742V80.277z"/>
	<path fill="#5392CE" d="M384.363,60.582v46.995h-4.484c-0.695,0-1.273-0.114-1.74-0.341c-0.465-0.229-0.914-0.612-1.348-1.154
		l-24.537-31.33c0.129,1.43,0.193,2.752,0.193,3.965v28.86h-7.701V60.582h4.582c0.369,0,0.688,0.017,0.959,0.049
		c0.27,0.033,0.508,0.098,0.715,0.195c0.205,0.098,0.406,0.239,0.602,0.423s0.41,0.428,0.65,0.731l24.635,31.46
		c-0.066-0.758-0.119-1.505-0.162-2.242c-0.045-0.736-0.066-1.419-0.066-2.048V60.582H384.363z"/>
	<path fill="#5392CE" d="M398.402,107.577h-8.775V60.582h8.775V107.577z"/>
	<path fill="#5392CE" d="M439.125,67.765h-14.17v39.813h-8.744V67.765h-14.17v-7.183h37.084V67.765z"/>
	<path fill="#5392CE" d="M478.123,67.765h-14.17v39.813h-8.742V67.765h-14.17v-7.183h37.082V67.765z"/>
	<path fill="#5392CE" d="M490.473,107.577h-8.775V60.582h8.775V107.577z"/>
	<path fill="#5392CE" d="M535.387,60.582v46.995h-4.484c-0.693,0-1.273-0.114-1.738-0.341c-0.467-0.229-0.916-0.612-1.35-1.154
		l-24.537-31.33c0.131,1.43,0.195,2.752,0.195,3.965v28.86h-7.703V60.582h4.584c0.367,0,0.688,0.017,0.957,0.049
		c0.271,0.033,0.51,0.098,0.715,0.195c0.207,0.098,0.406,0.239,0.602,0.423s0.412,0.428,0.65,0.731l24.635,31.46
		c-0.064-0.758-0.119-1.505-0.162-2.242c-0.043-0.736-0.064-1.419-0.064-2.048V60.582H535.387z"/>
	<path fill="#5392CE" d="M580.693,84.015v19.013c-2.385,1.755-4.924,3.039-7.621,3.852c-2.699,0.813-5.586,1.219-8.662,1.219
		c-3.834,0-7.307-0.596-10.416-1.788c-3.109-1.191-5.764-2.849-7.963-4.973c-2.199-2.123-3.895-4.658-5.086-7.605
		c-1.191-2.946-1.787-6.164-1.787-9.652c0-3.531,0.574-6.771,1.723-9.717c1.148-2.946,2.777-5.481,4.891-7.605
		s4.674-3.77,7.686-4.94c3.012-1.17,6.393-1.755,10.141-1.755c1.906,0,3.689,0.152,5.346,0.455c1.658,0.304,3.195,0.721,4.615,1.251
		c1.42,0.531,2.715,1.175,3.885,1.934c1.17,0.759,2.242,1.592,3.217,2.502l-2.502,3.965c-0.391,0.629-0.9,1.013-1.527,1.154
		c-0.629,0.141-1.313-0.016-2.049-0.471c-0.715-0.411-1.43-0.823-2.145-1.235c-0.715-0.411-1.512-0.769-2.389-1.073
		c-0.877-0.303-1.863-0.552-2.957-0.747c-1.094-0.195-2.357-0.292-3.787-0.292c-2.318,0-4.414,0.39-6.289,1.17
		c-1.873,0.78-3.471,1.896-4.793,3.347c-1.322,1.452-2.34,3.196-3.055,5.233s-1.072,4.312-1.072,6.825
		c0,2.687,0.385,5.086,1.152,7.199c0.77,2.113,1.854,3.9,3.25,5.363c1.398,1.462,3.082,2.579,5.055,3.347
		c1.971,0.77,4.17,1.154,6.598,1.154c1.732,0,3.283-0.184,4.646-0.553c1.365-0.368,2.699-0.867,3.998-1.495V90.58h-5.914
		c-0.564,0-1.004-0.157-1.316-0.471c-0.314-0.314-0.473-0.699-0.473-1.154v-4.94H580.693z"/>
</g>
<g>
</g>
<g>
</g>
<g>
	<path fill="#3855A5" d="M30.525,123.916c1.751,0,3.25,0.166,4.496,0.499c1.246,0.333,2.266,0.809,3.062,1.425
		c0.796,0.617,1.378,1.363,1.749,2.238c0.37,0.876,0.555,1.863,0.555,2.96c0,0.63-0.092,1.23-0.277,1.804
		c-0.185,0.574-0.472,1.11-0.86,1.61c-0.388,0.499-0.882,0.952-1.48,1.359s-1.311,0.752-2.137,1.036
		c3.675,0.826,5.513,2.812,5.513,5.957c0,1.135-0.216,2.183-0.647,3.145c-0.432,0.962-1.061,1.792-1.887,2.488
		c-0.826,0.697-1.844,1.243-3.052,1.638c-1.209,0.395-2.59,0.592-4.144,0.592H21.312v-26.751H30.525z M26.289,127.764v7.733h3.959
		c1.702,0,2.988-0.309,3.857-0.925c0.869-0.617,1.304-1.598,1.304-2.941c0-1.394-0.395-2.387-1.184-2.979
		c-0.79-0.593-2.023-0.889-3.7-0.889H26.289z M31.32,146.782c0.925,0,1.702-0.111,2.331-0.333c0.629-0.223,1.131-0.519,1.508-0.889
		c0.376-0.369,0.647-0.801,0.814-1.295c0.167-0.493,0.25-1.018,0.25-1.572c0-0.579-0.093-1.101-0.278-1.563
		c-0.185-0.462-0.475-0.856-0.869-1.184c-0.395-0.327-0.904-0.576-1.526-0.749c-0.623-0.173-1.372-0.259-2.248-0.259h-5.013v7.844
		H31.32z"/>
	<path fill="#3855A5" d="M56.443,146.652c0.962,0,1.822-0.16,2.581-0.48c0.759-0.321,1.397-0.771,1.915-1.351
		c0.518-0.58,0.916-1.283,1.193-2.109c0.278-0.826,0.417-1.751,0.417-2.775v-16.021h4.977v16.021c0,1.592-0.256,3.063-0.768,4.413
		s-1.246,2.516-2.201,3.496c-0.956,0.98-2.119,1.745-3.487,2.294c-1.369,0.549-2.911,0.823-4.625,0.823
		c-1.727,0-3.274-0.274-4.644-0.823s-2.532-1.313-3.487-2.294c-0.956-0.98-1.69-2.146-2.202-3.496s-0.768-2.821-0.768-4.413v-16.021
		h4.977v16.003c0,1.023,0.139,1.948,0.416,2.774c0.278,0.826,0.678,1.533,1.203,2.118c0.524,0.586,1.166,1.039,1.924,1.36
		C54.621,146.492,55.481,146.652,56.443,146.652z"/>
	<path fill="#3855A5" d="M87.394,128.781c-0.148,0.259-0.305,0.447-0.472,0.564s-0.374,0.176-0.62,0.176
		c-0.259,0-0.54-0.096-0.842-0.287c-0.302-0.19-0.663-0.403-1.082-0.638c-0.419-0.234-0.91-0.447-1.471-0.639
		c-0.562-0.19-1.224-0.286-1.989-0.286c-0.691,0-1.295,0.083-1.813,0.249c-0.518,0.167-0.953,0.398-1.304,0.694
		s-0.614,0.65-0.786,1.063c-0.173,0.413-0.259,0.866-0.259,1.359c0,0.63,0.176,1.153,0.527,1.573
		c0.352,0.419,0.817,0.776,1.396,1.072c0.58,0.297,1.24,0.562,1.979,0.796c0.74,0.234,1.499,0.484,2.276,0.749
		c0.777,0.266,1.535,0.573,2.275,0.925c0.74,0.352,1.399,0.796,1.979,1.332c0.58,0.537,1.045,1.193,1.397,1.971
		c0.351,0.777,0.527,1.721,0.527,2.83c0,1.209-0.207,2.341-0.62,3.396c-0.413,1.054-1.018,1.973-1.813,2.756s-1.767,1.4-2.914,1.851
		s-2.46,0.675-3.94,0.675c-0.851,0-1.69-0.083-2.516-0.25c-0.827-0.166-1.619-0.403-2.377-0.712
		c-0.758-0.309-1.471-0.678-2.137-1.11c-0.666-0.432-1.258-0.912-1.776-1.442l1.461-2.387c0.123-0.173,0.284-0.317,0.481-0.435
		s0.407-0.176,0.629-0.176c0.308,0,0.641,0.126,0.999,0.379s0.783,0.534,1.277,0.842c0.493,0.309,1.069,0.589,1.729,0.842
		c0.66,0.253,1.452,0.379,2.377,0.379c1.418,0,2.516-0.336,3.293-1.008c0.777-0.672,1.166-1.638,1.166-2.896
		c0-0.703-0.176-1.276-0.527-1.721c-0.352-0.443-0.817-0.816-1.397-1.119c-0.58-0.302-1.239-0.558-1.979-0.768
		c-0.74-0.209-1.492-0.438-2.257-0.685c-0.765-0.246-1.517-0.542-2.257-0.888c-0.74-0.346-1.4-0.796-1.979-1.351
		c-0.58-0.555-1.045-1.249-1.397-2.081c-0.352-0.833-0.527-1.859-0.527-3.08c0-0.975,0.194-1.925,0.583-2.85
		c0.388-0.925,0.953-1.745,1.692-2.46c0.74-0.716,1.653-1.289,2.738-1.721c1.085-0.432,2.331-0.647,3.737-0.647
		c1.579,0,3.034,0.247,4.366,0.74s2.466,1.184,3.404,2.071L87.394,128.781z"/>
	<path fill="#3855A5" d="M97.698,150.667h-4.995v-26.751h4.995V150.667z"/>
	<path fill="#3855A5" d="M125.484,123.916v26.751h-2.553c-0.395,0-0.725-0.064-0.99-0.194c-0.266-0.13-0.521-0.349-0.768-0.656
		l-13.968-17.834c0.074,0.813,0.111,1.566,0.111,2.257v16.428h-4.384v-26.751h2.608c0.209,0,0.392,0.009,0.546,0.027
		c0.154,0.019,0.29,0.056,0.407,0.111s0.231,0.136,0.342,0.24c0.111,0.105,0.234,0.244,0.37,0.417l14.023,17.907
		c-0.037-0.432-0.068-0.856-0.092-1.276c-0.025-0.419-0.037-0.808-0.037-1.165v-16.262H125.484z"/>
	<path fill="#3855A5" d="M134.957,127.875v7.419h9.361v3.829h-9.361v7.566h11.877v3.978h-16.872v-26.751h16.872v3.959H134.957z"/>
	<path fill="#3855A5" d="M166.221,128.781c-0.148,0.259-0.305,0.447-0.472,0.564s-0.374,0.176-0.62,0.176
		c-0.259,0-0.54-0.096-0.842-0.287c-0.302-0.19-0.663-0.403-1.082-0.638c-0.419-0.234-0.91-0.447-1.471-0.639
		c-0.562-0.19-1.224-0.286-1.989-0.286c-0.691,0-1.295,0.083-1.813,0.249c-0.518,0.167-0.953,0.398-1.304,0.694
		s-0.614,0.65-0.786,1.063c-0.173,0.413-0.259,0.866-0.259,1.359c0,0.63,0.176,1.153,0.527,1.573
		c0.352,0.419,0.817,0.776,1.396,1.072c0.58,0.297,1.24,0.562,1.979,0.796c0.74,0.234,1.499,0.484,2.276,0.749
		c0.777,0.266,1.535,0.573,2.275,0.925c0.74,0.352,1.399,0.796,1.979,1.332c0.58,0.537,1.045,1.193,1.397,1.971
		c0.351,0.777,0.527,1.721,0.527,2.83c0,1.209-0.207,2.341-0.62,3.396c-0.413,1.054-1.018,1.973-1.813,2.756s-1.767,1.4-2.914,1.851
		s-2.46,0.675-3.94,0.675c-0.851,0-1.69-0.083-2.516-0.25c-0.827-0.166-1.619-0.403-2.377-0.712
		c-0.758-0.309-1.471-0.678-2.137-1.11c-0.666-0.432-1.258-0.912-1.776-1.442l1.461-2.387c0.123-0.173,0.284-0.317,0.481-0.435
		s0.407-0.176,0.629-0.176c0.308,0,0.641,0.126,0.999,0.379s0.783,0.534,1.277,0.842c0.493,0.309,1.069,0.589,1.729,0.842
		c0.66,0.253,1.452,0.379,2.377,0.379c1.418,0,2.516-0.336,3.293-1.008c0.777-0.672,1.166-1.638,1.166-2.896
		c0-0.703-0.176-1.276-0.527-1.721c-0.352-0.443-0.817-0.816-1.397-1.119c-0.58-0.302-1.239-0.558-1.979-0.768
		c-0.74-0.209-1.492-0.438-2.257-0.685c-0.765-0.246-1.517-0.542-2.257-0.888c-0.74-0.346-1.4-0.796-1.979-1.351
		c-0.58-0.555-1.045-1.249-1.397-2.081c-0.352-0.833-0.527-1.859-0.527-3.08c0-0.975,0.194-1.925,0.583-2.85
		c0.388-0.925,0.953-1.745,1.692-2.46c0.74-0.716,1.653-1.289,2.738-1.721c1.085-0.432,2.331-0.647,3.737-0.647
		c1.579,0,3.034,0.247,4.366,0.74s2.466,1.184,3.404,2.071L166.221,128.781z"/>
	<path fill="#3855A5" d="M187.255,128.781c-0.148,0.259-0.305,0.447-0.472,0.564s-0.374,0.176-0.62,0.176
		c-0.259,0-0.54-0.096-0.842-0.287c-0.302-0.19-0.663-0.403-1.082-0.638c-0.419-0.234-0.91-0.447-1.471-0.639
		c-0.562-0.19-1.224-0.286-1.989-0.286c-0.691,0-1.295,0.083-1.813,0.249c-0.518,0.167-0.953,0.398-1.304,0.694
		s-0.614,0.65-0.786,1.063c-0.173,0.413-0.259,0.866-0.259,1.359c0,0.63,0.176,1.153,0.527,1.573
		c0.352,0.419,0.817,0.776,1.396,1.072c0.58,0.297,1.24,0.562,1.979,0.796c0.74,0.234,1.499,0.484,2.276,0.749
		c0.777,0.266,1.535,0.573,2.275,0.925c0.74,0.352,1.399,0.796,1.979,1.332c0.58,0.537,1.045,1.193,1.397,1.971
		c0.351,0.777,0.527,1.721,0.527,2.83c0,1.209-0.207,2.341-0.62,3.396c-0.413,1.054-1.018,1.973-1.813,2.756s-1.767,1.4-2.914,1.851
		s-2.46,0.675-3.94,0.675c-0.851,0-1.69-0.083-2.516-0.25c-0.827-0.166-1.619-0.403-2.377-0.712
		c-0.758-0.309-1.471-0.678-2.137-1.11c-0.666-0.432-1.258-0.912-1.776-1.442l1.461-2.387c0.123-0.173,0.284-0.317,0.481-0.435
		s0.407-0.176,0.629-0.176c0.308,0,0.641,0.126,0.999,0.379s0.783,0.534,1.277,0.842c0.493,0.309,1.069,0.589,1.729,0.842
		c0.66,0.253,1.452,0.379,2.377,0.379c1.418,0,2.516-0.336,3.293-1.008c0.777-0.672,1.166-1.638,1.166-2.896
		c0-0.703-0.176-1.276-0.527-1.721c-0.352-0.443-0.817-0.816-1.397-1.119c-0.58-0.302-1.239-0.558-1.979-0.768
		c-0.74-0.209-1.492-0.438-2.257-0.685c-0.765-0.246-1.517-0.542-2.257-0.888c-0.74-0.346-1.4-0.796-1.979-1.351
		c-0.58-0.555-1.045-1.249-1.397-2.081c-0.352-0.833-0.527-1.859-0.527-3.08c0-0.975,0.194-1.925,0.583-2.85
		c0.388-0.925,0.953-1.745,1.692-2.46c0.74-0.716,1.653-1.289,2.738-1.721c1.085-0.432,2.331-0.647,3.737-0.647
		c1.579,0,3.034,0.247,4.366,0.74s2.466,1.184,3.404,2.071L187.255,128.781z"/>
	<path fill="#3855A5" d="M207.291,150.667h-4.995v-26.751h4.995V150.667z"/>
	<path fill="#3855A5" d="M233.597,123.916v26.751h-2.553c-0.395,0-0.725-0.064-0.99-0.194c-0.266-0.13-0.521-0.349-0.768-0.656
		l-13.968-17.834c0.074,0.813,0.111,1.566,0.111,2.257v16.428h-4.384v-26.751h2.608c0.209,0,0.392,0.009,0.546,0.027
		c0.154,0.019,0.29,0.056,0.407,0.111s0.231,0.136,0.342,0.24c0.111,0.105,0.234,0.244,0.37,0.417l14.023,17.907
		c-0.037-0.432-0.068-0.856-0.092-1.276c-0.025-0.419-0.037-0.808-0.037-1.165v-16.262H233.597z"/>
	<path fill="#3855A5" d="M258.239,128.005h-8.066v22.662h-4.977v-22.662h-8.066v-4.089h21.108V128.005z"/>
	<path fill="#3855A5" d="M266.749,127.875v7.419h9.361v3.829h-9.361v7.566h11.877v3.978h-16.872v-26.751h16.872v3.959H266.749z"/>
	<path fill="#3855A5" d="M298.698,146.56v4.107h-15.67v-26.751h4.977v22.644H298.698z"/>
	<path fill="#3855A5" d="M307.244,150.667h-4.995v-26.751h4.995V150.667z"/>
	<path fill="#3855A5" d="M335.271,137.255v10.822c-1.356,0.999-2.803,1.729-4.338,2.192c-1.535,0.462-3.18,0.693-4.931,0.693
		c-2.183,0-4.159-0.339-5.929-1.018c-1.771-0.678-3.281-1.621-4.533-2.83s-2.217-2.651-2.895-4.329
		c-0.679-1.678-1.018-3.509-1.018-5.495c0-2.01,0.326-3.854,0.98-5.531c0.653-1.677,1.582-3.12,2.784-4.329
		c1.202-1.208,2.661-2.146,4.375-2.812s3.639-0.999,5.772-0.999c1.085,0,2.1,0.086,3.043,0.259s1.819,0.41,2.627,0.712
		c0.808,0.303,1.545,0.67,2.211,1.102s1.276,0.906,1.831,1.424l-1.424,2.257c-0.223,0.358-0.513,0.577-0.87,0.657
		s-0.746-0.01-1.165-0.269c-0.407-0.233-0.814-0.469-1.222-0.703c-0.406-0.233-0.859-0.438-1.359-0.61
		c-0.499-0.172-1.061-0.314-1.684-0.425c-0.623-0.111-1.341-0.167-2.155-0.167c-1.319,0-2.513,0.222-3.579,0.666
		c-1.067,0.444-1.978,1.079-2.729,1.905c-0.752,0.827-1.332,1.819-1.738,2.979c-0.407,1.16-0.611,2.455-0.611,3.885
		c0,1.53,0.219,2.896,0.657,4.099c0.438,1.202,1.055,2.22,1.85,3.052c0.796,0.833,1.755,1.468,2.877,1.906
		c1.122,0.438,2.374,0.656,3.756,0.656c0.986,0,1.868-0.104,2.646-0.314c0.776-0.21,1.535-0.493,2.275-0.851v-4.848h-3.367
		c-0.321,0-0.57-0.089-0.749-0.268s-0.269-0.398-0.269-0.657v-2.812H335.271z"/>
	<path fill="#3855A5" d="M345.077,127.875v7.419h9.361v3.829h-9.361v7.566h11.877v3.978h-16.872v-26.751h16.872v3.959H345.077z"/>
	<path fill="#3855A5" d="M383.908,123.916v26.751h-2.554c-0.395,0-0.725-0.064-0.989-0.194c-0.266-0.13-0.521-0.349-0.768-0.656
		l-13.968-17.834c0.074,0.813,0.111,1.566,0.111,2.257v16.428h-4.385v-26.751h2.608c0.21,0,0.392,0.009,0.546,0.027
		s0.29,0.056,0.407,0.111s0.231,0.136,0.342,0.24c0.111,0.105,0.234,0.244,0.37,0.417l14.023,17.907
		c-0.037-0.432-0.068-0.856-0.093-1.276c-0.025-0.419-0.037-0.808-0.037-1.165v-16.262H383.908z"/>
	<path fill="#3855A5" d="M408.234,144.358c0.271,0,0.512,0.105,0.722,0.314l1.961,2.128c-1.085,1.344-2.42,2.374-4.005,3.089
		c-1.585,0.716-3.487,1.073-5.707,1.073c-1.986,0-3.771-0.339-5.356-1.018c-1.585-0.678-2.938-1.621-4.061-2.83
		s-1.982-2.651-2.581-4.329c-0.598-1.678-0.896-3.509-0.896-5.495c0-2.01,0.32-3.851,0.962-5.521c0.641-1.671,1.545-3.111,2.71-4.32
		c1.166-1.208,2.556-2.148,4.172-2.821c1.615-0.672,3.404-1.008,5.365-1.008c1.948,0,3.678,0.32,5.188,0.962
		s2.797,1.479,3.857,2.516l-1.665,2.313c-0.099,0.148-0.225,0.278-0.379,0.389c-0.154,0.111-0.367,0.167-0.639,0.167
		c-0.185,0-0.376-0.053-0.573-0.157c-0.197-0.105-0.413-0.234-0.647-0.389s-0.506-0.324-0.813-0.509
		c-0.309-0.186-0.666-0.354-1.073-0.509s-0.879-0.283-1.415-0.389c-0.537-0.104-1.156-0.157-1.859-0.157
		c-1.196,0-2.291,0.213-3.284,0.639c-0.993,0.425-1.847,1.042-2.563,1.85c-0.715,0.808-1.27,1.795-1.665,2.96
		c-0.395,1.166-0.592,2.495-0.592,3.986c0,1.505,0.213,2.844,0.639,4.015c0.426,1.172,1.002,2.159,1.729,2.96
		c0.728,0.802,1.585,1.416,2.571,1.841c0.987,0.426,2.048,0.639,3.183,0.639c0.678,0,1.292-0.037,1.841-0.111
		c0.548-0.074,1.054-0.19,1.517-0.352c0.463-0.16,0.9-0.366,1.313-0.619s0.823-0.564,1.23-0.935c0.123-0.111,0.253-0.2,0.389-0.269
		C407.944,144.393,408.087,144.358,408.234,144.358z"/>
	<path fill="#3855A5" d="M419.335,127.875v7.419h9.361v3.829h-9.361v7.566h11.877v3.978H414.34v-26.751h16.872v3.959H419.335z"/>
	<path fill="#3855A5" d="M461.071,128.781c-0.148,0.259-0.306,0.447-0.472,0.564c-0.167,0.117-0.373,0.176-0.62,0.176
		c-0.259,0-0.539-0.096-0.842-0.287c-0.302-0.19-0.663-0.403-1.082-0.638c-0.42-0.234-0.91-0.447-1.471-0.639
		c-0.562-0.19-1.225-0.286-1.989-0.286c-0.69,0-1.295,0.083-1.813,0.249c-0.518,0.167-0.953,0.398-1.305,0.694
		s-0.613,0.65-0.786,1.063s-0.259,0.866-0.259,1.359c0,0.63,0.176,1.153,0.527,1.573c0.352,0.419,0.816,0.776,1.396,1.072
		c0.58,0.297,1.239,0.562,1.979,0.796s1.499,0.484,2.275,0.749c0.777,0.266,1.536,0.573,2.275,0.925
		c0.74,0.352,1.4,0.796,1.979,1.332c0.58,0.537,1.046,1.193,1.397,1.971s0.527,1.721,0.527,2.83c0,1.209-0.207,2.341-0.62,3.396
		c-0.413,1.054-1.018,1.973-1.813,2.756c-0.796,0.783-1.768,1.4-2.914,1.851c-1.147,0.45-2.461,0.675-3.94,0.675
		c-0.852,0-1.69-0.083-2.517-0.25c-0.826-0.166-1.618-0.403-2.377-0.712s-1.471-0.678-2.137-1.11
		c-0.666-0.432-1.258-0.912-1.776-1.442l1.462-2.387c0.123-0.173,0.283-0.317,0.481-0.435c0.196-0.117,0.406-0.176,0.629-0.176
		c0.308,0,0.641,0.126,0.999,0.379c0.357,0.253,0.782,0.534,1.276,0.842c0.493,0.309,1.069,0.589,1.729,0.842
		c0.659,0.253,1.452,0.379,2.377,0.379c1.418,0,2.517-0.336,3.293-1.008c0.777-0.672,1.166-1.638,1.166-2.896
		c0-0.703-0.176-1.276-0.527-1.721c-0.352-0.443-0.817-0.816-1.396-1.119c-0.58-0.302-1.24-0.558-1.979-0.768
		c-0.74-0.209-1.493-0.438-2.258-0.685c-0.765-0.246-1.517-0.542-2.257-0.888c-0.739-0.346-1.399-0.796-1.979-1.351
		c-0.579-0.555-1.045-1.249-1.396-2.081c-0.352-0.833-0.527-1.859-0.527-3.08c0-0.975,0.194-1.925,0.583-2.85
		s0.952-1.745,1.692-2.46c0.74-0.716,1.652-1.289,2.738-1.721c1.085-0.432,2.331-0.647,3.737-0.647c1.578,0,3.033,0.247,4.365,0.74
		s2.467,1.184,3.404,2.071L461.071,128.781z"/>
	<path fill="#3855A5" d="M477.998,140.307v10.36h-4.958v-10.36l-9.749-16.391h4.384c0.432,0,0.774,0.104,1.027,0.314
		s0.465,0.475,0.638,0.796l4.885,8.936c0.283,0.53,0.533,1.029,0.749,1.498s0.41,0.938,0.583,1.406
		c0.16-0.469,0.345-0.938,0.555-1.406s0.45-0.968,0.722-1.498l4.865-8.936c0.136-0.271,0.339-0.524,0.61-0.759
		s0.617-0.352,1.036-0.352h4.403L477.998,140.307z"/>
	<path fill="#3855A5" d="M503.77,128.781c-0.148,0.259-0.306,0.447-0.472,0.564c-0.167,0.117-0.373,0.176-0.62,0.176
		c-0.259,0-0.539-0.096-0.842-0.287c-0.302-0.19-0.663-0.403-1.082-0.638c-0.42-0.234-0.91-0.447-1.471-0.639
		c-0.562-0.19-1.225-0.286-1.989-0.286c-0.69,0-1.295,0.083-1.813,0.249c-0.518,0.167-0.953,0.398-1.305,0.694
		s-0.613,0.65-0.786,1.063s-0.259,0.866-0.259,1.359c0,0.63,0.176,1.153,0.527,1.573c0.352,0.419,0.816,0.776,1.396,1.072
		c0.58,0.297,1.239,0.562,1.979,0.796s1.499,0.484,2.275,0.749c0.777,0.266,1.536,0.573,2.275,0.925
		c0.74,0.352,1.4,0.796,1.979,1.332c0.58,0.537,1.046,1.193,1.397,1.971s0.527,1.721,0.527,2.83c0,1.209-0.207,2.341-0.62,3.396
		c-0.413,1.054-1.018,1.973-1.813,2.756c-0.796,0.783-1.768,1.4-2.914,1.851c-1.147,0.45-2.461,0.675-3.94,0.675
		c-0.852,0-1.69-0.083-2.517-0.25c-0.826-0.166-1.618-0.403-2.377-0.712s-1.471-0.678-2.137-1.11
		c-0.666-0.432-1.258-0.912-1.776-1.442l1.462-2.387c0.123-0.173,0.283-0.317,0.481-0.435c0.196-0.117,0.406-0.176,0.629-0.176
		c0.308,0,0.641,0.126,0.999,0.379c0.357,0.253,0.782,0.534,1.276,0.842c0.493,0.309,1.069,0.589,1.729,0.842
		c0.659,0.253,1.452,0.379,2.377,0.379c1.418,0,2.517-0.336,3.293-1.008c0.777-0.672,1.166-1.638,1.166-2.896
		c0-0.703-0.176-1.276-0.527-1.721c-0.352-0.443-0.817-0.816-1.396-1.119c-0.58-0.302-1.24-0.558-1.979-0.768
		c-0.74-0.209-1.493-0.438-2.258-0.685c-0.765-0.246-1.517-0.542-2.257-0.888c-0.739-0.346-1.399-0.796-1.979-1.351
		c-0.579-0.555-1.045-1.249-1.396-2.081c-0.352-0.833-0.527-1.859-0.527-3.08c0-0.975,0.194-1.925,0.583-2.85
		s0.952-1.745,1.692-2.46c0.74-0.716,1.652-1.289,2.738-1.721c1.085-0.432,2.331-0.647,3.737-0.647c1.578,0,3.033,0.247,4.365,0.74
		s2.467,1.184,3.404,2.071L503.77,128.781z"/>
	<path fill="#3855A5" d="M528.503,128.005h-8.065v22.662h-4.977v-22.662h-8.066v-4.089h21.108V128.005z"/>
	<path fill="#3855A5" d="M537.013,127.875v7.419h9.361v3.829h-9.361v7.566h11.877v3.978h-16.872v-26.751h16.872v3.959H537.013z"/>
	<path fill="#3855A5" d="M582.301,123.916v26.751h-4.385v-17.279c0-0.69,0.037-1.437,0.111-2.238l-8.084,15.188
		c-0.383,0.728-0.969,1.092-1.758,1.092h-0.703c-0.789,0-1.375-0.364-1.758-1.092l-8.177-15.244
		c0.037,0.407,0.067,0.809,0.093,1.203c0.024,0.395,0.037,0.758,0.037,1.091v17.279h-4.385v-26.751h3.756
		c0.222,0,0.413,0.006,0.573,0.019s0.305,0.043,0.435,0.093c0.13,0.049,0.247,0.129,0.352,0.24s0.206,0.259,0.306,0.444l8.01,14.855
		c0.21,0.395,0.404,0.802,0.583,1.221s0.354,0.851,0.527,1.295c0.173-0.456,0.352-0.897,0.536-1.323
		c0.186-0.425,0.383-0.835,0.593-1.229l7.899-14.818c0.099-0.186,0.203-0.333,0.314-0.444c0.11-0.111,0.23-0.191,0.36-0.24
		c0.13-0.05,0.274-0.08,0.435-0.093s0.352-0.019,0.574-0.019H582.301z"/>
</g>
<g>
</g>
<g>
</g>
<g>
</g>
<g>
</g>
<g>
</g>
<g>
</g>
</svg>
