<?xml version="1.0" encoding="utf-8"?>
<!-- Generator: Adobe Illustrator 16.0.0, SVG Export Plug-In . SVG Version: 6.00 Build 0)  -->
<!DOCTYPE svg PUBLIC "-//W3C//DTD SVG 1.1//EN" "http://www.w3.org/Graphics/SVG/1.1/DTD/svg11.dtd">
<svg version="1.1" id="Layer_1" xmlns="http://www.w3.org/2000/svg" xmlns:xlink="http://www.w3.org/1999/xlink" x="0px" y="0px"
	 width="720px" height="500px" viewBox="0 0 720 500" enable-background="new 0 0 720 500" xml:space="preserve">
<rect fill="#34669A" stroke="#000000" stroke-miterlimit="10" width="720" height="500"/>
<g>
	<path fill="#FFFFFF" d="M123.599,197.337H92.851v-11.1h74.847v11.1h-30.898v89.997h-13.2V197.337z"/>
	<path fill="#FFFFFF" d="M175.199,253.436c0.3,17.849,11.699,25.198,24.899,25.198c9.45,0,15.149-1.649,20.099-3.75l2.25,9.45
		c-4.65,2.1-12.6,4.5-24.149,4.5c-22.349,0-35.699-14.699-35.699-36.6c0-21.898,12.899-39.148,34.049-39.148
		c23.699,0,29.999,20.849,29.999,34.199c0,2.7-0.3,4.8-0.45,6.15H175.199z M213.897,243.985c0.15-8.4-3.45-21.449-18.299-21.449
		c-13.349,0-19.199,12.299-20.249,21.449H213.897z"/>
	<path fill="#FFFFFF" d="M241.198,273.834c3.9,2.55,10.8,5.25,17.399,5.25c9.6,0,14.1-4.8,14.1-10.8c0-6.3-3.75-9.749-13.5-13.349
		c-13.049-4.65-19.199-11.85-19.199-20.55c0-11.7,9.45-21.299,25.049-21.299c7.35,0,13.8,2.1,17.85,4.5l-3.3,9.6
		c-2.85-1.8-8.1-4.2-14.849-4.2c-7.8,0-12.149,4.5-12.149,9.899c0,6,4.35,8.7,13.799,12.299c12.6,4.8,19.049,11.1,19.049,21.899
		c0,12.75-9.9,21.75-27.149,21.75c-7.95,0-15.299-1.951-20.399-4.95L241.198,273.834z"/>
	<path fill="#FFFFFF" d="M300.597,273.834c3.9,2.55,10.8,5.25,17.399,5.25c9.6,0,14.1-4.8,14.1-10.8c0-6.3-3.75-9.749-13.5-13.349
		c-13.049-4.65-19.199-11.85-19.199-20.55c0-11.7,9.45-21.299,25.049-21.299c7.35,0,13.8,2.1,17.85,4.5l-3.3,9.6
		c-2.85-1.8-8.1-4.2-14.849-4.2c-7.8,0-12.149,4.5-12.149,9.899c0,6,4.35,8.7,13.799,12.299c12.6,4.8,19.049,11.1,19.049,21.899
		c0,12.75-9.9,21.75-27.149,21.75c-7.95,0-15.299-1.951-20.399-4.95L300.597,273.834z"/>
	<path fill="#FFFFFF" d="M376.496,194.337c0.15,4.5-3.149,8.1-8.399,8.1c-4.65,0-7.95-3.6-7.95-8.1c0-4.65,3.45-8.25,8.25-8.25
		C373.347,186.087,376.496,189.688,376.496,194.337z M361.797,287.334v-72.598h13.199v72.598H361.797z"/>
	<path fill="#FFFFFF" d="M412.795,193.887v20.849h18.899v10.05h-18.899v39.148c0,8.999,2.55,14.099,9.899,14.099
		c3.45,0,6-0.449,7.65-0.899l0.6,9.899c-2.55,1.051-6.6,1.801-11.699,1.801c-6.15,0-11.1-1.951-14.25-5.551
		c-3.749-3.899-5.1-10.35-5.1-18.898v-39.599h-11.249v-10.05h11.249v-17.399L412.795,193.887z"/>
	<path fill="#FFFFFF" d="M507.293,267.534c0,7.5,0.149,14.1,0.6,19.8h-11.699l-0.75-11.85h-0.3
		c-3.45,5.85-11.1,13.499-23.999,13.499c-11.399,0-25.049-6.3-25.049-31.799v-42.448h13.199v40.199
		c0,13.799,4.199,23.098,16.199,23.098c8.85,0,14.999-6.148,17.399-11.999c0.75-1.95,1.2-4.35,1.2-6.749v-44.549h13.199V267.534z"/>
	<path fill="#FFFFFF" d="M529.194,237.386c0-8.55-0.149-15.899-0.6-22.649h11.55l0.449,14.25h0.601
		c3.3-9.75,11.249-15.899,20.099-15.899c1.5,0,2.55,0.15,3.75,0.45v12.449c-1.35-0.3-2.699-0.45-4.5-0.45
		c-9.299,0-15.899,7.05-17.699,16.949c-0.3,1.8-0.6,3.9-0.6,6.15v38.699h-13.05V237.386z"/>
	<path fill="#FFFFFF" d="M617.693,287.334l-1.05-9.15h-0.449c-4.051,5.7-11.85,10.8-22.199,10.8c-14.7,0-22.199-10.35-22.199-20.849
		c0-17.55,15.6-27.149,43.648-27v-1.5c0-6-1.65-16.799-16.5-16.799c-6.749,0-13.799,2.1-18.899,5.4l-2.999-8.7
		c5.999-3.9,14.699-6.45,23.849-6.45c22.199,0,27.599,15.149,27.599,29.699v27.148c0,6.301,0.3,12.45,1.2,17.4H617.693z
		 M615.744,250.285c-14.399-0.3-30.749,2.25-30.749,16.35c0,8.549,5.7,12.6,12.449,12.6c9.45,0,15.449-6,17.55-12.15
		c0.45-1.35,0.75-2.85,0.75-4.199V250.285z"/>
</g>
<g>
</g>
<g>
</g>
<g>
</g>
<g>
</g>
<g>
</g>
<g>
</g>
</svg>
