<?xml version="1.0" encoding="utf-8"?>
<!-- Generator: Adobe Illustrator 16.0.0, SVG Export Plug-In . SVG Version: 6.00 Build 0)  -->
<!DOCTYPE svg PUBLIC "-//W3C//DTD SVG 1.1//EN" "http://www.w3.org/Graphics/SVG/1.1/DTD/svg11.dtd">
<svg version="1.1" id="Layer_1" xmlns="http://www.w3.org/2000/svg" xmlns:xlink="http://www.w3.org/1999/xlink" x="0px" y="0px"
	 width="720px" height="500px" viewBox="0 0 720 500" enable-background="new 0 0 720 500" xml:space="preserve">
<rect fill="#0099CC" stroke="#000000" stroke-miterlimit="10" width="720" height="500"/>
<g>
	<path fill="#FFFFFF" d="M103.837,279.246c-3.52,1.76-10.56,3.52-19.58,3.52c-20.9,0-36.63-13.199-36.63-37.51
		c0-23.21,15.73-38.94,38.72-38.94c9.24,0,15.07,1.98,17.6,3.3l-2.31,7.81c-3.63-1.76-8.8-3.08-14.96-3.08
		c-17.38,0-28.93,11.11-28.93,30.58c0,18.15,10.45,29.811,28.49,29.811c5.83,0,11.77-1.211,15.62-3.08L103.837,279.246z"/>
	<path fill="#FFFFFF" d="M162.467,254.605c0,19.69-13.64,28.271-26.51,28.271c-14.41,0-25.52-10.56-25.52-27.39
		c0-17.82,11.66-28.271,26.4-28.271C152.126,227.216,162.467,238.326,162.467,254.605z M120.227,255.156
		c0,11.66,6.71,20.46,16.17,20.46c9.24,0,16.17-8.69,16.17-20.681c0-9.02-4.51-20.46-15.95-20.46
		C125.176,234.476,120.227,245.036,120.227,255.156z"/>
	<path fill="#FFFFFF" d="M174.676,242.836c0-5.5-0.11-10.01-0.44-14.41h8.58l0.55,8.8h0.22c2.64-5.06,8.8-10.01,17.6-10.01
		c7.37,0,18.81,4.4,18.81,22.66v31.79h-9.68v-30.69c0-8.58-3.19-15.73-12.32-15.73c-6.38,0-11.33,4.51-12.98,9.9
		c-0.44,1.21-0.66,2.86-0.66,4.51v32.01h-9.68V242.836z"/>
	<path fill="#FFFFFF" d="M236.715,281.666v-45.87h-7.48v-7.37h7.48v-2.53c0-7.48,1.65-14.3,6.16-18.59
		c3.63-3.52,8.47-4.95,12.98-4.95c3.41,0,6.38,0.77,8.25,1.54l-1.32,7.48c-1.43-0.66-3.41-1.21-6.16-1.21
		c-8.25,0-10.34,7.26-10.34,15.4v2.86h12.87v7.37h-12.87v45.87H236.715z"/>
	<path fill="#FFFFFF" d="M271.806,256.806c0.22,13.091,8.58,18.48,18.26,18.48c6.93,0,11.11-1.21,14.74-2.75l1.649,6.93
		c-3.41,1.54-9.24,3.3-17.709,3.3c-16.39,0-26.18-10.779-26.18-26.84c0-16.06,9.46-28.71,24.97-28.71c17.38,0,22,15.29,22,25.08
		c0,1.979-0.22,3.521-0.33,4.51H271.806z M300.187,249.876c0.11-6.16-2.53-15.73-13.42-15.73c-9.79,0-14.08,9.021-14.85,15.73
		H300.187z"/>
	<path fill="#FFFFFF" d="M315.476,276.057l24.09-31.351c2.31-2.86,4.51-5.39,6.93-8.25v-0.22h-28.82v-7.81h40.591l-0.11,6.05
		l-23.76,30.91c-2.2,2.97-4.4,5.61-6.82,8.36v0.22h31.13v7.7h-43.229V276.057z"/>
	<path fill="#FFFFFF" d="M379.385,213.466c0.109,3.3-2.311,5.94-6.16,5.94c-3.41,0-5.83-2.64-5.83-5.94c0-3.41,2.529-6.05,6.05-6.05
		C377.074,207.416,379.385,210.056,379.385,213.466z M368.604,281.666v-53.24h9.68v53.24H368.604z"/>
	<path fill="#FFFFFF" d="M442.523,254.605c0,19.69-13.64,28.271-26.51,28.271c-14.41,0-25.521-10.56-25.521-27.39
		c0-17.82,11.66-28.271,26.4-28.271C432.184,227.216,442.523,238.326,442.523,254.605z M400.283,255.156
		c0,11.66,6.71,20.46,16.171,20.46c9.239,0,16.17-8.69,16.17-20.681c0-9.02-4.511-20.46-15.95-20.46
		C405.233,234.476,400.283,245.036,400.283,255.156z"/>
	<path fill="#FFFFFF" d="M454.733,242.836c0-5.5-0.11-10.01-0.44-14.41h8.58l0.55,8.8h0.221c2.64-5.06,8.8-10.01,17.6-10.01
		c7.37,0,18.811,4.4,18.811,22.66v31.79h-9.681v-30.69c0-8.58-3.189-15.73-12.319-15.73c-6.381,0-11.33,4.51-12.98,9.9
		c-0.44,1.21-0.66,2.86-0.66,4.51v32.01h-9.68V242.836z"/>
	<path fill="#FFFFFF" d="M521.173,256.806c0.22,13.091,8.58,18.48,18.26,18.48c6.931,0,11.11-1.21,14.74-2.75l1.65,6.93
		c-3.41,1.54-9.24,3.3-17.71,3.3c-16.391,0-26.181-10.779-26.181-26.84c0-16.06,9.46-28.71,24.971-28.71c17.38,0,22,15.29,22,25.08
		c0,1.979-0.22,3.521-0.33,4.51H521.173z M549.553,249.876c0.11-6.16-2.529-15.73-13.42-15.73c-9.79,0-14.08,9.021-14.85,15.73
		H549.553z"/>
	<path fill="#FFFFFF" d="M606.531,258.346l-7.7,23.32h-9.9l25.19-74.141h11.55l25.3,74.141h-10.229l-7.92-23.32H606.531z
		 M630.841,250.866l-7.26-21.34c-1.65-4.84-2.75-9.24-3.851-13.53h-0.22c-1.1,4.4-2.31,8.91-3.74,13.42l-7.26,21.45H630.841z"/>
</g>
<g>
</g>
<g>
</g>
<g>
</g>
<g>
</g>
<g>
</g>
<g>
</g>
</svg>
