<?xml version="1.0" encoding="utf-8"?>
<!-- Generator: Adobe Illustrator 16.0.0, SVG Export Plug-In . SVG Version: 6.00 Build 0)  -->
<!DOCTYPE svg PUBLIC "-//W3C//DTD SVG 1.1//EN" "http://www.w3.org/Graphics/SVG/1.1/DTD/svg11.dtd">
<svg version="1.1" id="Layer_1" xmlns="http://www.w3.org/2000/svg" xmlns:xlink="http://www.w3.org/1999/xlink" x="0px" y="0px"
	 width="720px" height="500px" viewBox="0 0 720 500" enable-background="new 0 0 720 500" xml:space="preserve">
<rect fill="#A58959" stroke="#000000" stroke-miterlimit="10" width="720" height="500"/>
<g>
	<path fill="#FFFFFF" d="M229.933,267.1c5.85,3.601,14.399,6.6,23.399,6.6c13.35,0,21.149-7.049,21.149-17.248
		c0-9.45-5.4-14.85-19.049-20.1c-16.5-5.85-26.699-14.399-26.699-28.649c0-15.75,13.049-27.449,32.698-27.449
		c10.35,0,17.85,2.4,22.349,4.95l-3.6,10.649c-3.3-1.8-10.05-4.8-19.199-4.8c-13.799,0-19.049,8.25-19.049,15.149
		c0,9.45,6.15,14.1,20.099,19.499c17.099,6.6,25.799,14.85,25.799,29.699c0,15.6-11.549,29.1-35.398,29.1
		c-9.75,0-20.399-2.851-25.799-6.45L229.933,267.1z"/>
	<path fill="#FFFFFF" d="M320.684,189.553v20.849h18.899v10.05h-18.899v39.148c0,8.999,2.55,14.099,9.899,14.099
		c3.45,0,6-0.449,7.649-0.899l0.6,9.899c-2.55,1.051-6.6,1.801-11.699,1.801c-6.15,0-11.1-1.951-14.25-5.551
		c-3.75-3.899-5.1-10.35-5.1-18.898v-39.599h-11.25v-10.05h11.25v-17.399L320.684,189.553z"/>
	<path fill="#FFFFFF" d="M369.133,190.003c0.149,4.5-3.15,8.1-8.4,8.1c-4.65,0-7.95-3.6-7.95-8.1c0-4.65,3.45-8.25,8.25-8.25
		C365.982,181.753,369.133,185.354,369.133,190.003z M354.433,283v-72.598h13.2V283H354.433z"/>
	<path fill="#FFFFFF" d="M389.532,233.052c0-8.55-0.15-15.899-0.601-22.649h11.55l0.45,14.25h0.6
		c3.301-9.75,11.25-15.899,20.1-15.899c1.5,0,2.55,0.15,3.75,0.45v12.449c-1.35-0.3-2.7-0.45-4.5-0.45
		c-9.3,0-15.899,7.05-17.699,16.949c-0.301,1.8-0.6,3.9-0.6,6.15V283h-13.05V233.052z"/>
	<path fill="#FFFFFF" d="M502.779,246.101c0,26.848-18.599,38.548-36.148,38.548c-19.648,0-34.799-14.399-34.799-37.349
		c0-24.299,15.9-38.548,35.999-38.548C488.681,208.752,502.779,223.902,502.779,246.101z M445.182,246.851
		c0,15.899,9.15,27.899,22.049,27.899c12.6,0,22.05-11.85,22.05-28.199c0-12.299-6.149-27.898-21.749-27.898
		S445.182,233.052,445.182,246.851z"/>
</g>
<g>
</g>
<g>
</g>
<g>
</g>
<g>
</g>
<g>
</g>
<g>
</g>
</svg>
