<?xml version="1.0" encoding="utf-8"?>
<!-- Generator: Adobe Illustrator 16.0.0, SVG Export Plug-In . SVG Version: 6.00 Build 0)  -->
<!DOCTYPE svg PUBLIC "-//W3C//DTD SVG 1.1//EN" "http://www.w3.org/Graphics/SVG/1.1/DTD/svg11.dtd">
<svg version="1.1" id="Layer_1" xmlns="http://www.w3.org/2000/svg" xmlns:xlink="http://www.w3.org/1999/xlink" x="0px" y="0px"
	 width="200px" height="225px" viewBox="0 0 200 225" enable-background="new 0 0 200 225" xml:space="preserve">
<line fill="#B2B2B2" x1="200" y1="0" x2="200" y2="88"/>
<polyline fill="#575756" points="200,88 200,225 0,225 0,0 117,0 "/>
<polyline fill="#706F6F" points="125.667,9.335 191,9.335 191,78.667 "/>
<g display="none">
	<path display="inline" fill="#FFFFFF" d="M135.476,65.996c-1.512-5.609-12.774-11.122-32.476-11.122
		c-19.701,0-30.962,5.513-32.475,11.122c-0.108,0.19-0.191,0.402-0.191,0.637v48.349c0,0.211,0.058,0.408,0.153,0.586
		c1.544,6.4,15.351,11.172,32.513,11.172c17.125,0,30.912-4.752,32.501-11.127c0.108-0.184,0.166-0.402,0.166-0.631V66.633
		C135.667,66.398,135.584,66.187,135.476,65.996L135.476,65.996z M132.949,99.281c-0.04,0.159-0.09,0.313-0.153,0.472
		c-0.051,0.134-0.115,0.262-0.185,0.39c-0.09,0.157-0.186,0.325-0.301,0.484c-0.089,0.121-0.185,0.243-0.287,0.364
		c-0.146,0.166-0.3,0.338-0.472,0.51c-0.108,0.103-0.224,0.204-0.345,0.307c-0.21,0.185-0.434,0.376-0.683,0.555
		c-0.108,0.083-0.224,0.16-0.338,0.236c-0.294,0.204-0.606,0.408-0.944,0.606c-0.09,0.058-0.179,0.108-0.274,0.159
		c-0.39,0.217-0.798,0.434-1.237,0.65c-0.052,0.026-0.115,0.052-0.173,0.077c-0.484,0.229-1.002,0.459-1.544,0.676
		c-0.019,0.007-0.032,0.013-0.051,0.02c-2.967,1.187-6.763,2.182-11.185,2.839c-0.025,0-0.045,0-0.07,0.007
		c-0.854,0.128-1.741,0.236-2.647,0.338c-0.146,0.02-0.3,0.025-0.447,0.045c-0.791,0.083-1.595,0.153-2.418,0.217
		c-0.376,0.025-0.766,0.038-1.148,0.063c-0.625,0.039-1.237,0.077-1.869,0.096c-1.04,0.039-2.099,0.058-3.178,0.058
		c-1.078,0-2.137-0.019-3.177-0.058c-0.638-0.025-1.251-0.063-1.869-0.102c-0.383-0.02-0.778-0.038-1.155-0.064
		c-0.823-0.057-1.62-0.134-2.411-0.217c-0.146-0.013-0.307-0.025-0.453-0.044c-0.905-0.096-1.787-0.211-2.648-0.339
		c-0.02,0-0.044,0-0.063-0.006c-4.421-0.651-8.218-1.652-11.185-2.833c-0.018-0.007-0.031-0.013-0.05-0.02
		c-0.549-0.223-1.059-0.446-1.55-0.683c-0.05-0.025-0.114-0.051-0.173-0.076c-0.433-0.211-0.841-0.428-1.229-0.65
		c-0.097-0.052-0.193-0.103-0.281-0.153c-0.338-0.204-0.646-0.402-0.939-0.606c-0.114-0.083-0.229-0.159-0.338-0.236
		c-0.248-0.185-0.472-0.37-0.688-0.555c-0.116-0.103-0.23-0.204-0.338-0.313c-0.173-0.166-0.327-0.338-0.474-0.511
		c-0.101-0.121-0.204-0.242-0.285-0.363c-0.117-0.16-0.211-0.321-0.301-0.479c-0.07-0.134-0.134-0.262-0.191-0.39
		c-0.064-0.159-0.114-0.318-0.147-0.472c-0.051-0.211-0.101-0.421-0.101-0.632c0-0.146,0.011-0.294,0.038-0.44
		c0.033-0.197,0.013-0.396-0.038-0.587v-9.698c0.031,0.032,0.082,0.063,0.114,0.103c0.288,0.249,0.58,0.498,0.907,0.74
		c4.917,3.72,14.764,6.616,29.028,6.616c14.209,0,24.021-2.871,28.967-6.572c0.396-0.286,0.753-0.58,1.084-0.887v9.698
		c-0.051,0.191-0.07,0.39-0.038,0.587c0.025,0.146,0.038,0.294,0.038,0.44C133.051,98.86,133,99.07,132.949,99.281L132.949,99.281z
		 M133.051,72.241v9.705c-0.051,0.186-0.07,0.383-0.038,0.581c0.025,0.147,0.038,0.292,0.038,0.439c0,0.21-0.051,0.421-0.102,0.638
		c-0.04,0.154-0.09,0.312-0.153,0.472c-0.051,0.127-0.115,0.255-0.185,0.389c-0.09,0.16-0.186,0.318-0.301,0.479
		c-0.089,0.121-0.185,0.243-0.287,0.364c-0.146,0.171-0.3,0.344-0.472,0.509c-0.108,0.103-0.224,0.205-0.345,0.314
		c-0.21,0.185-0.434,0.369-0.683,0.556c-0.108,0.075-0.224,0.151-0.338,0.235c-0.294,0.204-0.606,0.401-0.944,0.605
		c-0.09,0.051-0.179,0.104-0.274,0.153c-0.39,0.225-0.798,0.439-1.237,0.65c-0.052,0.026-0.115,0.053-0.173,0.076
		c-0.484,0.237-1.002,0.46-1.544,0.684c-0.019,0.007-0.032,0.013-0.051,0.02c-2.967,1.181-6.763,2.182-11.185,2.832
		c-0.025,0-0.045,0.007-0.07,0.007c-0.854,0.128-1.741,0.242-2.647,0.338c-0.146,0.02-0.3,0.032-0.447,0.045
		c-0.791,0.083-1.595,0.159-2.418,0.217c-0.376,0.032-0.766,0.045-1.148,0.063c-0.625,0.039-1.237,0.077-1.869,0.103
		c-1.04,0.032-2.099,0.051-3.178,0.051c-1.078,0-2.137-0.019-3.177-0.058c-0.638-0.019-1.251-0.063-1.869-0.096
		c-0.383-0.025-0.778-0.038-1.155-0.063c-0.823-0.063-1.62-0.141-2.411-0.224c-0.146-0.013-0.307-0.025-0.453-0.038
		c-0.905-0.102-1.787-0.217-2.648-0.338c-0.02-0.007-0.044-0.007-0.063-0.013c-4.421-0.65-8.218-1.646-11.185-2.833
		c-0.018-0.006-0.031-0.013-0.05-0.02c-0.549-0.217-1.059-0.446-1.55-0.677c-0.05-0.031-0.114-0.057-0.173-0.083
		c-0.433-0.209-0.841-0.427-1.229-0.644c-0.097-0.058-0.193-0.107-0.281-0.16c-0.338-0.197-0.646-0.401-0.939-0.605
		c-0.114-0.077-0.229-0.153-0.338-0.235c-0.248-0.187-0.472-0.37-0.688-0.556c-0.116-0.103-0.23-0.204-0.338-0.307
		c-0.173-0.171-0.327-0.344-0.474-0.516c-0.101-0.114-0.204-0.237-0.285-0.357c-0.117-0.165-0.211-0.326-0.301-0.486
		c-0.07-0.127-0.134-0.254-0.191-0.388c-0.064-0.161-0.114-0.312-0.147-0.472c-0.051-0.21-0.101-0.421-0.101-0.632
		c0-0.147,0.011-0.292,0.038-0.439c0.033-0.198,0.013-0.396-0.038-0.581v-9.705c0.151,0.147,0.332,0.288,0.503,0.428
		c0.096,0.075,0.179,0.152,0.28,0.235c0.389,0.307,0.817,0.613,1.275,0.906c0.097,0.063,0.198,0.121,0.301,0.185
		c0.382,0.237,0.791,0.472,1.219,0.703c0.16,0.083,0.312,0.164,0.479,0.254c0.479,0.242,0.977,0.479,1.505,0.709
		c0.084,0.031,0.159,0.075,0.249,0.107c0.612,0.262,1.264,0.51,1.94,0.753c0.19,0.064,0.382,0.127,0.573,0.191
		c0.542,0.184,1.098,0.357,1.672,0.522c0.211,0.063,0.415,0.129,0.624,0.187c0.766,0.21,1.558,0.408,2.386,0.593
		c0.109,0.033,0.237,0.051,0.351,0.076c0.729,0.159,1.487,0.306,2.266,0.446c0.262,0.046,0.529,0.09,0.804,0.134
		c0.739,0.123,1.499,0.23,2.285,0.332c0.197,0.026,0.395,0.059,0.599,0.084c0.971,0.116,1.979,0.217,3.012,0.307
		c0.255,0.018,0.517,0.031,0.778,0.05c0.823,0.063,1.672,0.107,2.532,0.154c0.319,0.013,0.632,0.024,0.951,0.038
		c1.129,0.039,2.277,0.063,3.464,0.063c1.188,0,2.336-0.024,3.465-0.063c0.319-0.014,0.632-0.025,0.951-0.038
		c0.861-0.046,1.709-0.09,2.532-0.154c0.262-0.02,0.523-0.033,0.778-0.05c1.034-0.09,2.042-0.191,3.012-0.307
		c0.204-0.025,0.402-0.058,0.6-0.084c0.785-0.101,1.544-0.209,2.284-0.332c0.274-0.044,0.542-0.088,0.804-0.134
		c0.778-0.14,1.538-0.287,2.266-0.446c0.114-0.025,0.242-0.05,0.351-0.076c0.829-0.185,1.62-0.382,2.386-0.593
		c0.211-0.064,0.415-0.123,0.626-0.187c0.574-0.165,1.129-0.338,1.671-0.522c0.191-0.064,0.383-0.127,0.574-0.191
		c0.677-0.243,1.327-0.491,1.939-0.753c0.09-0.033,0.166-0.077,0.249-0.107c0.53-0.23,1.027-0.467,1.506-0.709
		c0.166-0.09,0.325-0.172,0.479-0.254c0.428-0.23,0.836-0.461,1.219-0.703c0.103-0.064,0.204-0.122,0.3-0.185
		c0.459-0.293,0.887-0.599,1.276-0.906c0.096-0.083,0.185-0.16,0.28-0.235C132.72,72.529,132.898,72.389,133.051,72.241
		L133.051,72.241z M103,57.491c17.712,0,30.051,5.161,30.051,9.8c0,4.632-12.339,9.8-30.051,9.8c-17.711,0-30.049-5.168-30.049-9.8
		C72.951,62.652,85.289,57.491,103,57.491L103,57.491z M133.051,114.592c-0.013,0.059-0.031,0.115-0.038,0.18
		c-0.74,4.518-12.978,9.354-30.013,9.354s-29.272-4.836-30.012-9.354c-0.006-0.064-0.026-0.121-0.038-0.172v-10.994
		c0.031,0.032,0.082,0.064,0.114,0.096c0.288,0.256,0.58,0.504,0.907,0.74c4.917,3.727,14.764,6.617,29.028,6.617
		c14.209,0,24.021-2.865,28.967-6.566c0.396-0.287,0.753-0.587,1.084-0.887V114.592z M133.051,114.592"/>
</g>
<rect x="63.667" y="49.667" fill="none" stroke="#FFFFFF" stroke-width="2" stroke-miterlimit="10" width="79.667" height="82"/>
<g>
	<path fill="#FFFFFF" d="M178.388,20.304h-0.04l-2.26,1.22l-0.341-1.34l2.841-1.521h1.5v13.003h-1.7V20.304z"/>
</g>
<line fill="none" stroke="#FFFFFF" stroke-width="2" stroke-miterlimit="10" x1="62.667" y1="160.992" x2="144.667" y2="160.992"/>
<g>
	<path fill="#FFFFFF" d="M44.141,175.322h-7.176v-2.591h17.467v2.591h-7.21v21.002h-3.081V175.322z"/>
	<path fill="#FFFFFF" d="M56.181,188.413c0.07,4.166,2.73,5.881,5.811,5.881c2.205,0,3.535-0.385,4.69-0.875l0.525,2.205
		c-1.085,0.49-2.94,1.05-5.635,1.05c-5.216,0-8.331-3.43-8.331-8.54c0-5.111,3.01-9.137,7.946-9.137
		c5.531,0,7.001,4.866,7.001,7.981c0,0.63-0.07,1.12-0.105,1.435H56.181z M65.211,186.208c0.035-1.96-0.805-5.005-4.271-5.005
		c-3.115,0-4.48,2.87-4.725,5.005H65.211z"/>
	<path fill="#FFFFFF" d="M71.58,193.174c0.91,0.595,2.52,1.226,4.061,1.226c2.24,0,3.29-1.12,3.29-2.521
		c0-1.471-0.875-2.275-3.15-3.115c-3.045-1.085-4.48-2.766-4.48-4.796c0-2.73,2.206-4.971,5.846-4.971
		c1.715,0,3.221,0.49,4.166,1.051l-0.771,2.24c-0.665-0.42-1.891-0.98-3.466-0.98c-1.82,0-2.835,1.05-2.835,2.311
		c0,1.399,1.015,2.03,3.221,2.87c2.94,1.12,4.445,2.59,4.445,5.11c0,2.976-2.311,5.075-6.336,5.075c-1.855,0-3.57-0.455-4.76-1.154
		L71.58,193.174z"/>
	<path fill="#FFFFFF" d="M85.439,193.174c0.91,0.595,2.521,1.226,4.061,1.226c2.24,0,3.291-1.12,3.291-2.521
		c0-1.471-0.875-2.275-3.15-3.115c-3.046-1.085-4.48-2.766-4.48-4.796c0-2.73,2.205-4.971,5.846-4.971
		c1.715,0,3.22,0.49,4.165,1.051l-0.771,2.24c-0.665-0.42-1.89-0.98-3.465-0.98c-1.82,0-2.835,1.05-2.835,2.311
		c0,1.399,1.015,2.03,3.22,2.87c2.94,1.12,4.445,2.59,4.445,5.11c0,2.976-2.31,5.075-6.335,5.075c-1.855,0-3.57-0.455-4.761-1.154
		L85.439,193.174z"/>
	<path fill="#FFFFFF" d="M103.15,174.622c0.035,1.05-0.734,1.89-1.96,1.89c-1.085,0-1.855-0.84-1.855-1.89
		c0-1.085,0.806-1.926,1.926-1.926C102.416,172.696,103.15,173.537,103.15,174.622z M99.721,196.324v-16.941h3.08v16.941H99.721z"/>
	<path fill="#FFFFFF" d="M111.62,174.517v4.866h4.41v2.345h-4.41v9.136c0,2.101,0.595,3.291,2.311,3.291
		c0.805,0,1.399-0.105,1.785-0.21l0.14,2.31c-0.595,0.245-1.54,0.42-2.73,0.42c-1.435,0-2.59-0.455-3.325-1.295
		c-0.875-0.91-1.19-2.415-1.19-4.41v-9.241h-2.625v-2.345h2.625v-4.061L111.62,174.517z"/>
	<path fill="#FFFFFF" d="M133.671,191.704c0,1.75,0.035,3.29,0.141,4.62h-2.73l-0.175-2.766h-0.07
		c-0.805,1.365-2.59,3.15-5.601,3.15c-2.66,0-5.846-1.47-5.846-7.421v-9.905h3.08v9.381c0,3.22,0.98,5.391,3.78,5.391
		c2.065,0,3.501-1.436,4.061-2.801c0.176-0.455,0.28-1.015,0.28-1.575v-10.396h3.08V191.704z"/>
	<path fill="#FFFFFF" d="M138.78,184.668c0-1.995-0.035-3.71-0.141-5.285h2.695l0.105,3.325h0.14
		c0.771-2.275,2.625-3.711,4.69-3.711c0.351,0,0.595,0.035,0.875,0.105v2.905c-0.314-0.07-0.63-0.105-1.05-0.105
		c-2.17,0-3.711,1.646-4.131,3.956c-0.069,0.42-0.14,0.91-0.14,1.435v9.031h-3.045V184.668z"/>
	<path fill="#FFFFFF" d="M159.431,196.324l-0.245-2.135h-0.105c-0.945,1.33-2.765,2.52-5.181,2.52c-3.43,0-5.18-2.415-5.18-4.865
		c0-4.096,3.64-6.336,10.186-6.301v-0.35c0-1.4-0.385-3.921-3.851-3.921c-1.575,0-3.22,0.49-4.41,1.261l-0.7-2.03
		c1.4-0.91,3.431-1.506,5.565-1.506c5.181,0,6.44,3.536,6.44,6.931v6.336c0,1.471,0.07,2.905,0.28,4.061H159.431z M158.976,187.679
		c-3.36-0.07-7.176,0.524-7.176,3.815c0,1.995,1.33,2.939,2.905,2.939c2.205,0,3.605-1.399,4.096-2.835
		c0.104-0.315,0.175-0.665,0.175-0.98V187.679z"/>
</g>
<g display="none">
	<path display="inline" fill="#FFFFFF" d="M119.376,63.842c-0.528-2.571-2.802-4.509-5.527-4.509c-0.622,0-1.123,0.506-1.123,1.129
		c0,0.621,0.501,1.128,1.123,1.128c1.866,0,3.386,1.514,3.386,3.379c0,1.866-1.52,3.38-3.386,3.38c-0.622,0-1.123,0.508-1.123,1.129
		c0,0.623,0.501,1.129,1.123,1.129c2.726,0,4.999-1.938,5.527-4.508h14.771v10.146H73.265V66.1h19.163
		c0.623,0,1.128-0.508,1.128-1.129c0-0.621-0.506-1.128-1.128-1.128H90.38c0.468-1.31,1.707-2.251,3.176-2.251
		c1.866,0,3.38,1.514,3.38,3.379c0,1.866-1.514,3.38-3.38,3.38c-0.621,0-1.128,0.508-1.128,1.129c0,0.623,0.507,1.129,1.128,1.129
		c3.11,0,5.637-2.527,5.637-5.638c0-3.11-2.527-5.637-5.637-5.637c-2.72,0-4.999,1.938-5.521,4.509H71.007v59.759h65.391V63.842
		H119.376z M134.146,121.345H73.265V78.503h60.881V121.345z M134.146,121.345"/>
	<path display="inline" fill="#FFFFFF" d="M100.322,61.591c1.867,0,3.381,1.514,3.381,3.379c0,1.866-1.514,3.38-3.381,3.38
		c-0.622,0-1.128,0.508-1.128,1.129c0,0.623,0.507,1.129,1.128,1.129c3.105,0,5.638-2.527,5.638-5.638
		c0-3.11-2.532-5.637-5.638-5.637c-0.622,0-1.128,0.506-1.128,1.129C99.194,61.084,99.701,61.591,100.322,61.591L100.322,61.591z
		 M100.322,61.591"/>
	<path display="inline" fill="#FFFFFF" d="M107.089,61.591c1.86,0,3.38,1.514,3.38,3.379c0,1.866-1.52,3.38-3.38,3.38
		c-0.622,0-1.129,0.508-1.129,1.129c0,0.623,0.507,1.129,1.129,1.129c3.104,0,5.637-2.527,5.637-5.638
		c0-3.11-2.532-5.637-5.637-5.637c-0.622,0-1.129,0.506-1.129,1.129C105.96,61.084,106.467,61.591,107.089,61.591L107.089,61.591z
		 M107.089,61.591"/>
	<path display="inline" fill="#FFFFFF" d="M81.153,87.521h24.807c0.622,0,1.129-0.506,1.129-1.129c0-0.621-0.507-1.129-1.129-1.129
		H81.153c-0.622,0-1.129,0.508-1.129,1.129C80.024,87.015,80.531,87.521,81.153,87.521L81.153,87.521z M81.153,87.521"/>
	<path display="inline" fill="#FFFFFF" d="M126.252,103.304H109.34c-0.622,0-1.128,0.506-1.128,1.128
		c0,0.623,0.506,1.129,1.128,1.129h16.912c0.622,0,1.129-0.506,1.129-1.129C127.381,103.81,126.874,103.304,126.252,103.304
		L126.252,103.304z M126.252,103.304"/>
	<path display="inline" fill="#FFFFFF" d="M81.153,96.538h11.275c0.623,0,1.128-0.501,1.128-1.124c0-0.627-0.506-1.128-1.128-1.128
		H81.153c-0.622,0-1.129,0.501-1.129,1.128C80.024,96.037,80.531,96.538,81.153,96.538L81.153,96.538z M81.153,96.538"/>
	<path display="inline" fill="#FFFFFF" d="M126.252,112.327h-11.274c-0.622,0-1.129,0.501-1.129,1.123
		c0,0.629,0.507,1.129,1.129,1.129h11.274c0.622,0,1.129-0.5,1.129-1.129C127.381,112.828,126.874,112.327,126.252,112.327
		L126.252,112.327z M126.252,112.327"/>
	<path display="inline" fill="#FFFFFF" d="M102.574,95.415c0,0.623,0.506,1.124,1.129,1.124h16.912c0.622,0,1.128-0.501,1.128-1.124
		c0-0.627-0.506-1.128-1.128-1.128h-16.912C103.08,94.286,102.574,94.787,102.574,95.415L102.574,95.415z M102.574,95.415"/>
	<path display="inline" fill="#FFFFFF" d="M98.869,96.213c0.198-0.214,0.325-0.506,0.325-0.798c0-0.297-0.126-0.589-0.325-0.804
		c-0.418-0.418-1.184-0.418-1.602,0c-0.204,0.215-0.33,0.507-0.33,0.804c0,0.292,0.126,0.584,0.33,0.798
		c0.215,0.215,0.507,0.325,0.798,0.325C98.357,96.538,98.655,96.428,98.869,96.213L98.869,96.213z M98.869,96.213"/>
	<path display="inline" fill="#FFFFFF" d="M85.662,104.432c0,0.623,0.507,1.129,1.129,1.129h16.912c0.622,0,1.129-0.506,1.129-1.129
		c0-0.622-0.507-1.128-1.129-1.128H86.791C86.169,103.304,85.662,103.81,85.662,104.432L85.662,104.432z M85.662,104.432"/>
	<path display="inline" fill="#FFFFFF" d="M81.153,105.561c0.291,0,0.589-0.127,0.805-0.331c0.197-0.214,0.324-0.506,0.324-0.798
		c0-0.292-0.127-0.589-0.324-0.787c-0.418-0.429-1.184-0.429-1.603-0.011c-0.204,0.209-0.331,0.506-0.331,0.798
		c0,0.292,0.126,0.584,0.331,0.798C80.57,105.434,80.85,105.561,81.153,105.561L81.153,105.561z M81.153,105.561"/>
	<path display="inline" fill="#FFFFFF" d="M126.252,96.538c0.292,0,0.59-0.11,0.804-0.325c0.215-0.214,0.325-0.506,0.325-0.798
		c0-0.297-0.11-0.589-0.325-0.804c-0.429-0.418-1.184-0.418-1.602,0c-0.204,0.215-0.33,0.507-0.33,0.804
		c0,0.292,0.126,0.584,0.33,0.798C125.669,96.428,125.961,96.538,126.252,96.538L126.252,96.538z M126.252,96.538"/>
	<path display="inline" fill="#FFFFFF" d="M109.34,112.327H81.153c-0.622,0-1.129,0.501-1.129,1.123
		c0,0.629,0.507,1.129,1.129,1.129h28.187c0.622,0,1.129-0.5,1.129-1.129C110.469,112.828,109.962,112.327,109.34,112.327
		L109.34,112.327z M109.34,112.327"/>
</g>
<g display="none">
	<g display="inline">
		<defs>
			<rect id="SVGID_1_" x="82" y="60" width="45.84" height="63"/>
		</defs>
		<clipPath id="SVGID_2_">
			<use xlink:href="#SVGID_1_"  overflow="visible"/>
		</clipPath>
		<path clip-path="url(#SVGID_2_)" fill="#FFFFFF" d="M117.117,60H85.812C83.711,60,82,61.711,82,63.812v54.575
			c0,2.102,1.711,3.813,3.812,3.813h38.348c2.102,0,3.813-1.711,3.813-3.813V71.793L117.117,60z M118.02,65.707l4.758,5.172h-4.758
			V65.707z M124.77,118.383c0,0.34-0.273,0.613-0.609,0.613H85.812c-0.335,0-0.609-0.273-0.609-0.613V63.812
			c0-0.336,0.274-0.609,0.609-0.609h29v9.277c0,0.883,0.724,1.598,1.606,1.598h8.352V118.383z M90.855,77.035h27.2
			c0.66,0,1.199,0.539,1.199,1.199c0,0.664-0.539,1.203-1.199,1.203h-27.2c-0.664,0-1.203-0.539-1.203-1.203
			C89.652,77.574,90.191,77.035,90.855,77.035L90.855,77.035z M119.254,86.301c0,0.66-0.539,1.199-1.199,1.199h-27.2
			c-0.664,0-1.203-0.539-1.203-1.199c0-0.664,0.539-1.2,1.203-1.2h27.2C118.715,85.101,119.254,85.637,119.254,86.301
			L119.254,86.301z M119.254,94.102c0,0.66-0.539,1.199-1.199,1.199h-27.2c-0.664,0-1.203-0.539-1.203-1.199
			c0-0.664,0.539-1.203,1.203-1.203h27.2C118.715,92.898,119.254,93.438,119.254,94.102L119.254,94.102z M119.254,102.031
			c0,0.664-0.539,1.203-1.199,1.203h-27.2c-0.664,0-1.203-0.539-1.203-1.203c0-0.66,0.539-1.199,1.203-1.199h27.2
			C118.715,100.832,119.254,101.371,119.254,102.031L119.254,102.031z M119.254,102.031"/>
	</g>
</g>
<g>
	<path fill="#FFFFFF" d="M99.675,68.987H82.249v-6.291h42.418v6.291h-17.512v51.004h-7.48V68.987z"/>
</g>
<g>
</g>
<g>
</g>
<g>
</g>
<g>
</g>
<g>
</g>
<g>
</g>
</svg>
