<?xml version="1.0" encoding="utf-8"?>
<!-- Generator: Adobe Illustrator 16.0.0, SVG Export Plug-In . SVG Version: 6.00 Build 0)  -->
<!DOCTYPE svg PUBLIC "-//W3C//DTD SVG 1.1//EN" "http://www.w3.org/Graphics/SVG/1.1/DTD/svg11.dtd">
<svg version="1.1" id="Layer_1" xmlns="http://www.w3.org/2000/svg" xmlns:xlink="http://www.w3.org/1999/xlink" x="0px" y="0px"
	 width="200px" height="225px" viewBox="0 0 200 225" enable-background="new 0 0 200 225" xml:space="preserve">
<polyline fill="#575756" points="118.167,7.835 193,7.835 193,94.167 "/>
<g display="none">
	<path display="inline" fill="#FFFFFF" d="M135.477,65.996c-1.513-5.609-12.774-11.122-32.477-11.122
		c-19.701,0-30.962,5.513-32.475,11.122c-0.108,0.19-0.191,0.402-0.191,0.637v48.35c0,0.211,0.058,0.408,0.153,0.586
		c1.544,6.399,15.351,11.172,32.513,11.172c17.125,0,30.912-4.752,32.501-11.127c0.108-0.184,0.166-0.402,0.166-0.631v-48.35
		C135.667,66.398,135.584,66.187,135.477,65.996L135.477,65.996z M132.949,99.281c-0.04,0.159-0.09,0.313-0.153,0.472
		c-0.051,0.134-0.114,0.262-0.185,0.39c-0.09,0.157-0.187,0.325-0.301,0.484c-0.09,0.121-0.186,0.243-0.287,0.364
		c-0.146,0.166-0.301,0.338-0.473,0.51c-0.107,0.103-0.224,0.204-0.345,0.307c-0.21,0.185-0.435,0.376-0.683,0.555
		c-0.108,0.083-0.225,0.16-0.338,0.236c-0.295,0.204-0.606,0.408-0.944,0.606c-0.091,0.058-0.179,0.108-0.274,0.159
		c-0.39,0.217-0.798,0.434-1.236,0.65c-0.053,0.026-0.115,0.052-0.174,0.077c-0.483,0.229-1.002,0.459-1.543,0.676
		c-0.02,0.007-0.033,0.013-0.052,0.02c-2.967,1.187-6.763,2.182-11.185,2.839c-0.025,0-0.045,0-0.07,0.007
		c-0.854,0.128-1.741,0.236-2.646,0.338c-0.146,0.02-0.301,0.025-0.447,0.045c-0.791,0.083-1.596,0.153-2.418,0.217
		c-0.377,0.025-0.766,0.038-1.148,0.063c-0.625,0.039-1.236,0.077-1.869,0.096c-1.039,0.039-2.099,0.058-3.178,0.058
		c-1.078,0-2.137-0.019-3.177-0.058c-0.638-0.025-1.251-0.063-1.869-0.102c-0.383-0.02-0.778-0.038-1.155-0.064
		c-0.823-0.057-1.62-0.134-2.411-0.217c-0.146-0.013-0.307-0.025-0.453-0.044c-0.905-0.096-1.787-0.211-2.648-0.339
		c-0.02,0-0.044,0-0.063-0.006c-4.421-0.651-8.218-1.652-11.185-2.833c-0.018-0.007-0.031-0.013-0.05-0.02
		c-0.549-0.223-1.059-0.446-1.55-0.683c-0.05-0.025-0.114-0.051-0.173-0.076c-0.433-0.211-0.841-0.428-1.229-0.65
		c-0.097-0.052-0.193-0.103-0.281-0.153c-0.338-0.204-0.646-0.402-0.939-0.606c-0.114-0.083-0.229-0.159-0.338-0.236
		c-0.248-0.185-0.472-0.37-0.688-0.555c-0.116-0.103-0.23-0.204-0.338-0.313c-0.173-0.166-0.327-0.338-0.474-0.511
		c-0.101-0.121-0.204-0.242-0.285-0.363c-0.117-0.16-0.211-0.321-0.301-0.479c-0.07-0.134-0.134-0.262-0.191-0.39
		c-0.064-0.159-0.114-0.318-0.147-0.472c-0.051-0.211-0.101-0.421-0.101-0.632c0-0.146,0.011-0.294,0.038-0.44
		c0.033-0.197,0.013-0.396-0.038-0.587v-9.698c0.031,0.032,0.082,0.063,0.114,0.103c0.288,0.249,0.58,0.498,0.907,0.74
		c4.917,3.72,14.764,6.616,29.028,6.616c14.209,0,24.021-2.871,28.968-6.572c0.396-0.286,0.752-0.58,1.084-0.887v9.698
		c-0.052,0.191-0.07,0.39-0.039,0.587c0.025,0.146,0.039,0.294,0.039,0.44C133.051,98.86,133,99.07,132.949,99.281L132.949,99.281z
		 M133.051,72.241v9.705c-0.051,0.186-0.07,0.383-0.037,0.581c0.024,0.147,0.037,0.292,0.037,0.439c0,0.21-0.051,0.421-0.102,0.638
		c-0.04,0.154-0.09,0.312-0.153,0.472c-0.051,0.127-0.114,0.255-0.185,0.389c-0.09,0.16-0.187,0.318-0.301,0.479
		c-0.09,0.121-0.186,0.243-0.287,0.364c-0.146,0.171-0.301,0.344-0.473,0.509c-0.107,0.103-0.224,0.205-0.345,0.314
		c-0.21,0.185-0.435,0.369-0.683,0.556c-0.108,0.075-0.225,0.151-0.338,0.235c-0.295,0.204-0.606,0.401-0.944,0.605
		c-0.091,0.051-0.179,0.104-0.274,0.153c-0.39,0.225-0.798,0.439-1.236,0.65c-0.053,0.026-0.115,0.053-0.174,0.076
		c-0.483,0.237-1.002,0.46-1.543,0.684c-0.02,0.007-0.033,0.013-0.052,0.02c-2.967,1.181-6.763,2.182-11.185,2.832
		c-0.025,0-0.045,0.007-0.07,0.007c-0.854,0.128-1.741,0.242-2.646,0.338c-0.146,0.02-0.301,0.032-0.447,0.045
		c-0.791,0.083-1.596,0.159-2.418,0.217c-0.377,0.032-0.766,0.045-1.148,0.063c-0.625,0.039-1.236,0.077-1.869,0.103
		c-1.039,0.032-2.099,0.051-3.178,0.051c-1.078,0-2.137-0.019-3.177-0.058c-0.638-0.019-1.251-0.063-1.869-0.096
		c-0.383-0.025-0.778-0.038-1.155-0.063c-0.823-0.063-1.62-0.141-2.411-0.224c-0.146-0.013-0.307-0.025-0.453-0.038
		c-0.905-0.102-1.787-0.217-2.648-0.338c-0.02-0.007-0.044-0.007-0.063-0.013c-4.421-0.65-8.218-1.646-11.185-2.833
		c-0.018-0.006-0.031-0.013-0.05-0.02c-0.549-0.217-1.059-0.446-1.55-0.677c-0.05-0.031-0.114-0.057-0.173-0.083
		c-0.433-0.209-0.841-0.427-1.229-0.644c-0.097-0.058-0.193-0.107-0.281-0.16c-0.338-0.197-0.646-0.401-0.939-0.605
		c-0.114-0.077-0.229-0.153-0.338-0.235c-0.248-0.187-0.472-0.37-0.688-0.556c-0.116-0.103-0.23-0.204-0.338-0.307
		c-0.173-0.171-0.327-0.344-0.474-0.516c-0.101-0.114-0.204-0.237-0.285-0.357c-0.117-0.165-0.211-0.326-0.301-0.486
		c-0.07-0.127-0.134-0.254-0.191-0.388c-0.064-0.161-0.114-0.312-0.147-0.472c-0.051-0.21-0.101-0.421-0.101-0.632
		c0-0.147,0.011-0.292,0.038-0.439c0.033-0.198,0.013-0.396-0.038-0.581V72.24c0.151,0.147,0.332,0.288,0.503,0.428
		c0.096,0.075,0.179,0.152,0.28,0.235c0.389,0.307,0.817,0.613,1.275,0.906c0.097,0.063,0.198,0.121,0.301,0.185
		c0.382,0.237,0.791,0.472,1.219,0.703c0.16,0.083,0.312,0.164,0.479,0.254c0.479,0.242,0.977,0.479,1.505,0.709
		c0.084,0.031,0.159,0.075,0.249,0.107c0.612,0.262,1.264,0.51,1.94,0.753c0.19,0.064,0.382,0.127,0.573,0.191
		c0.542,0.184,1.098,0.357,1.672,0.522c0.211,0.063,0.415,0.129,0.624,0.187c0.766,0.21,1.558,0.408,2.386,0.593
		c0.109,0.033,0.237,0.051,0.351,0.076c0.729,0.159,1.487,0.306,2.266,0.446c0.262,0.046,0.529,0.09,0.804,0.134
		c0.739,0.123,1.499,0.23,2.285,0.332c0.197,0.026,0.395,0.059,0.599,0.084c0.971,0.116,1.979,0.217,3.012,0.307
		c0.255,0.018,0.517,0.031,0.778,0.05c0.823,0.063,1.672,0.107,2.532,0.154c0.319,0.013,0.632,0.024,0.951,0.038
		c1.129,0.039,2.276,0.063,3.464,0.063s2.336-0.024,3.465-0.063c0.319-0.014,0.633-0.025,0.951-0.038
		c0.861-0.046,1.709-0.09,2.532-0.154c0.262-0.02,0.522-0.033,0.778-0.05c1.033-0.09,2.041-0.191,3.012-0.307
		c0.203-0.025,0.402-0.058,0.6-0.084c0.785-0.101,1.544-0.209,2.284-0.332c0.274-0.044,0.542-0.088,0.804-0.134
		c0.778-0.14,1.538-0.287,2.266-0.446c0.115-0.025,0.242-0.05,0.352-0.076c0.829-0.185,1.62-0.382,2.387-0.593
		c0.211-0.064,0.414-0.123,0.625-0.187c0.574-0.165,1.129-0.338,1.672-0.522c0.19-0.064,0.383-0.127,0.573-0.191
		c0.677-0.243,1.327-0.491,1.938-0.753c0.091-0.033,0.166-0.077,0.25-0.107c0.529-0.23,1.027-0.467,1.506-0.709
		c0.166-0.09,0.324-0.172,0.479-0.254c0.428-0.23,0.836-0.461,1.219-0.703c0.104-0.064,0.205-0.122,0.301-0.185
		c0.459-0.293,0.887-0.599,1.275-0.906c0.096-0.083,0.186-0.16,0.28-0.235C132.721,72.529,132.898,72.389,133.051,72.241
		L133.051,72.241z M103,57.491c17.712,0,30.051,5.161,30.051,9.8c0,4.632-12.339,9.8-30.051,9.8c-17.711,0-30.049-5.168-30.049-9.8
		C72.951,62.652,85.289,57.491,103,57.491L103,57.491z M133.051,114.592c-0.013,0.059-0.031,0.115-0.037,0.18
		c-0.74,4.519-12.979,9.354-30.014,9.354s-29.272-4.836-30.012-9.354c-0.006-0.063-0.026-0.121-0.038-0.172v-10.994
		c0.031,0.032,0.082,0.064,0.114,0.096c0.288,0.256,0.58,0.504,0.907,0.74c4.917,3.727,14.764,6.617,29.028,6.617
		c14.209,0,24.021-2.865,28.967-6.566c0.396-0.287,0.753-0.587,1.084-0.887L133.051,114.592L133.051,114.592z"/>
</g>
<g display="none">
	<path display="inline" fill="#FFFFFF" d="M119.376,63.842c-0.528-2.571-2.802-4.509-5.526-4.509c-0.623,0-1.123,0.506-1.123,1.129
		c0,0.621,0.5,1.128,1.123,1.128c1.865,0,3.385,1.514,3.385,3.379c0,1.866-1.52,3.38-3.385,3.38c-0.623,0-1.123,0.508-1.123,1.129
		c0,0.623,0.5,1.129,1.123,1.129c2.726,0,4.998-1.938,5.526-4.508h14.771v10.146H73.265V66.1h19.163
		c0.623,0,1.128-0.508,1.128-1.129c0-0.621-0.506-1.128-1.128-1.128H90.38c0.468-1.31,1.707-2.251,3.176-2.251
		c1.866,0,3.38,1.514,3.38,3.379c0,1.866-1.514,3.38-3.38,3.38c-0.621,0-1.128,0.508-1.128,1.129c0,0.623,0.507,1.129,1.128,1.129
		c3.11,0,5.637-2.527,5.637-5.638c0-3.11-2.527-5.637-5.637-5.637c-2.72,0-4.999,1.938-5.521,4.509H71.007v59.759h65.392v-59.76
		H119.376z M134.146,121.346H73.265V78.503h60.881V121.346z"/>
	<path display="inline" fill="#FFFFFF" d="M100.322,61.591c1.868,0,3.381,1.514,3.381,3.379c0,1.866-1.514,3.38-3.381,3.38
		c-0.622,0-1.128,0.508-1.128,1.129c0,0.623,0.507,1.129,1.128,1.129c3.105,0,5.638-2.527,5.638-5.638
		c0-3.11-2.532-5.637-5.638-5.637c-0.622,0-1.128,0.506-1.128,1.129C99.194,61.084,99.701,61.591,100.322,61.591L100.322,61.591z"/>
	<path display="inline" fill="#FFFFFF" d="M107.089,61.591c1.86,0,3.38,1.514,3.38,3.379c0,1.866-1.52,3.38-3.38,3.38
		c-0.622,0-1.129,0.508-1.129,1.129c0,0.623,0.507,1.129,1.129,1.129c3.104,0,5.638-2.527,5.638-5.638
		c0-3.11-2.533-5.637-5.638-5.637c-0.622,0-1.129,0.506-1.129,1.129C105.96,61.084,106.467,61.591,107.089,61.591L107.089,61.591z"
		/>
	<path display="inline" fill="#FFFFFF" d="M81.153,87.521h24.807c0.622,0,1.129-0.506,1.129-1.129c0-0.621-0.507-1.129-1.129-1.129
		H81.153c-0.622,0-1.129,0.508-1.129,1.129C80.024,87.015,80.531,87.521,81.153,87.521L81.153,87.521z"/>
	<path display="inline" fill="#FFFFFF" d="M126.252,103.304H109.34c-0.622,0-1.128,0.506-1.128,1.128
		c0,0.623,0.506,1.129,1.128,1.129h16.912c0.622,0,1.129-0.506,1.129-1.129C127.381,103.81,126.874,103.304,126.252,103.304
		L126.252,103.304z"/>
	<path display="inline" fill="#FFFFFF" d="M81.153,96.538h11.275c0.623,0,1.128-0.501,1.128-1.124c0-0.627-0.506-1.128-1.128-1.128
		H81.153c-0.622,0-1.129,0.501-1.129,1.128C80.024,96.037,80.531,96.538,81.153,96.538L81.153,96.538z"/>
	<path display="inline" fill="#FFFFFF" d="M126.252,112.327h-11.273c-0.623,0-1.129,0.501-1.129,1.123
		c0,0.629,0.506,1.129,1.129,1.129h11.273c0.622,0,1.129-0.5,1.129-1.129C127.381,112.828,126.874,112.327,126.252,112.327
		L126.252,112.327z"/>
	<path display="inline" fill="#FFFFFF" d="M102.574,95.415c0,0.623,0.506,1.124,1.129,1.124h16.912c0.621,0,1.128-0.501,1.128-1.124
		c0-0.627-0.507-1.128-1.128-1.128h-16.912C103.08,94.286,102.574,94.787,102.574,95.415L102.574,95.415z"/>
	<path display="inline" fill="#FFFFFF" d="M98.869,96.213c0.198-0.214,0.325-0.506,0.325-0.798c0-0.297-0.126-0.589-0.325-0.804
		c-0.418-0.418-1.184-0.418-1.602,0c-0.204,0.215-0.33,0.507-0.33,0.804c0,0.292,0.126,0.584,0.33,0.798
		c0.215,0.215,0.507,0.325,0.798,0.325C98.357,96.538,98.655,96.428,98.869,96.213L98.869,96.213z"/>
	<path display="inline" fill="#FFFFFF" d="M85.662,104.432c0,0.623,0.507,1.129,1.129,1.129h16.912c0.622,0,1.129-0.506,1.129-1.129
		c0-0.622-0.507-1.128-1.129-1.128H86.791C86.169,103.304,85.662,103.81,85.662,104.432L85.662,104.432z"/>
	<path display="inline" fill="#FFFFFF" d="M81.153,105.561c0.291,0,0.589-0.127,0.805-0.331c0.197-0.214,0.324-0.506,0.324-0.798
		s-0.127-0.589-0.324-0.787c-0.418-0.429-1.184-0.429-1.603-0.011c-0.204,0.209-0.331,0.506-0.331,0.798s0.126,0.584,0.331,0.798
		C80.57,105.434,80.85,105.561,81.153,105.561L81.153,105.561z"/>
	<path display="inline" fill="#FFFFFF" d="M126.252,96.538c0.292,0,0.59-0.11,0.805-0.325c0.215-0.214,0.324-0.506,0.324-0.798
		c0-0.297-0.109-0.589-0.324-0.804c-0.43-0.418-1.185-0.418-1.603,0c-0.204,0.215-0.33,0.507-0.33,0.804
		c0,0.292,0.126,0.584,0.33,0.798C125.669,96.428,125.961,96.538,126.252,96.538L126.252,96.538z"/>
	<path display="inline" fill="#FFFFFF" d="M109.34,112.327H81.153c-0.622,0-1.129,0.501-1.129,1.123
		c0,0.629,0.507,1.129,1.129,1.129h28.187c0.622,0,1.129-0.5,1.129-1.129C110.469,112.828,109.962,112.327,109.34,112.327
		L109.34,112.327z"/>
</g>
<g display="none">
	<g display="inline">
		<g>
			<defs>
				<rect id="SVGID_1_" x="82" y="60" width="45.84" height="63"/>
			</defs>
			<clipPath id="SVGID_2_">
				<use xlink:href="#SVGID_1_"  overflow="visible"/>
			</clipPath>
			<path clip-path="url(#SVGID_2_)" fill="#FFFFFF" d="M117.117,60H85.812C83.711,60,82,61.711,82,63.812v54.575
				c0,2.103,1.711,3.813,3.812,3.813h38.348c2.102,0,3.813-1.711,3.813-3.813V71.793L117.117,60z M118.02,65.707l4.758,5.172h-4.758
				V65.707z M124.77,118.383c0,0.34-0.272,0.613-0.608,0.613H85.812c-0.335,0-0.609-0.273-0.609-0.613V63.812
				c0-0.336,0.274-0.609,0.609-0.609h29v9.277c0,0.883,0.724,1.598,1.605,1.598h8.352V118.383z M90.855,77.035h27.2
				c0.66,0,1.199,0.539,1.199,1.199c0,0.664-0.539,1.203-1.199,1.203h-27.2c-0.664,0-1.203-0.539-1.203-1.203
				C89.652,77.574,90.191,77.035,90.855,77.035L90.855,77.035z M119.254,86.301c0,0.66-0.539,1.199-1.199,1.199h-27.2
				c-0.664,0-1.203-0.539-1.203-1.199c0-0.664,0.539-1.2,1.203-1.2h27.2C118.715,85.101,119.254,85.637,119.254,86.301
				L119.254,86.301z M119.254,94.102c0,0.66-0.539,1.199-1.199,1.199h-27.2c-0.664,0-1.203-0.539-1.203-1.199
				c0-0.664,0.539-1.203,1.203-1.203h27.2C118.715,92.898,119.254,93.438,119.254,94.102L119.254,94.102z M119.254,102.031
				c0,0.664-0.539,1.203-1.199,1.203h-27.2c-0.664,0-1.203-0.539-1.203-1.203c0-0.66,0.539-1.199,1.203-1.199h27.2
				C118.715,100.832,119.254,101.371,119.254,102.031L119.254,102.031z"/>
		</g>
	</g>
</g>
<polyline fill="#FF3300" points="200,88 200,225 0,225 0,0 117,0 "/>
<rect x="63.583" y="64.167" fill="none" stroke="#FFFFFF" stroke-width="2" stroke-miterlimit="10" width="79.667" height="82"/>
<line fill="none" stroke="#FFFFFF" stroke-width="2" stroke-miterlimit="10" x1="62.5" y1="216.492" x2="146.583" y2="216.492"/>
<g>
	<path fill="#FFFFFF" d="M100.225,85.666h-16.4v-5.92h39.921v5.92h-16.48v48.001h-7.04V85.666z"/>
</g>
<g>
	<path fill="#FFFFFF" d="M65.396,191.599h-4.92v-1.776h11.977v1.776h-4.944V206h-2.112V191.599z"/>
	<path fill="#FFFFFF" d="M73.652,200.575c0.048,2.856,1.872,4.032,3.984,4.032c1.512,0,2.424-0.264,3.216-0.6l0.36,1.512
		c-0.744,0.337-2.016,0.721-3.864,0.721c-3.576,0-5.712-2.353-5.712-5.856c0-3.505,2.064-6.265,5.448-6.265
		c3.792,0,4.801,3.336,4.801,5.473c0,0.432-0.048,0.768-0.072,0.983H73.652z M79.844,199.063c0.024-1.344-0.552-3.433-2.928-3.433
		c-2.136,0-3.072,1.969-3.24,3.433H79.844z"/>
	<path fill="#FFFFFF" d="M84.212,203.84c0.624,0.408,1.728,0.84,2.784,0.84c1.536,0,2.256-0.768,2.256-1.728
		c0-1.009-0.6-1.561-2.16-2.137c-2.088-0.744-3.072-1.896-3.072-3.288c0-1.872,1.512-3.408,4.008-3.408
		c1.176,0,2.208,0.336,2.856,0.72l-0.528,1.536c-0.456-0.288-1.296-0.672-2.376-0.672c-1.248,0-1.944,0.72-1.944,1.584
		c0,0.96,0.696,1.393,2.208,1.969c2.016,0.768,3.048,1.775,3.048,3.504c0,2.04-1.584,3.48-4.345,3.48
		c-1.272,0-2.448-0.313-3.264-0.792L84.212,203.84z"/>
	<path fill="#FFFFFF" d="M93.716,203.84c0.624,0.408,1.728,0.84,2.784,0.84c1.536,0,2.256-0.768,2.256-1.728
		c0-1.009-0.6-1.561-2.16-2.137c-2.088-0.744-3.072-1.896-3.072-3.288c0-1.872,1.512-3.408,4.008-3.408
		c1.176,0,2.208,0.336,2.856,0.72l-0.528,1.536c-0.456-0.288-1.296-0.672-2.376-0.672c-1.248,0-1.944,0.72-1.944,1.584
		c0,0.96,0.696,1.393,2.208,1.969c2.016,0.768,3.049,1.775,3.049,3.504c0,2.04-1.585,3.48-4.345,3.48
		c-1.272,0-2.448-0.313-3.264-0.792L93.716,203.84z"/>
	<path fill="#FFFFFF" d="M105.859,191.119c0.024,0.72-0.504,1.296-1.344,1.296c-0.744,0-1.271-0.576-1.271-1.296
		c0-0.744,0.551-1.32,1.319-1.32C105.355,189.799,105.859,190.375,105.859,191.119z M103.508,206v-11.617h2.111V206H103.508z"/>
	<path fill="#FFFFFF" d="M111.667,191.047v3.336h3.024v1.608h-3.024v6.265c0,1.439,0.408,2.256,1.585,2.256
		c0.552,0,0.96-0.072,1.224-0.144l0.096,1.584c-0.407,0.168-1.056,0.288-1.872,0.288c-0.983,0-1.775-0.313-2.28-0.889
		c-0.6-0.624-0.815-1.656-0.815-3.023v-6.337h-1.801v-1.608h1.801v-2.784L111.667,191.047z"/>
	<path fill="#FFFFFF" d="M126.788,202.832c0,1.2,0.024,2.256,0.097,3.168h-1.872l-0.12-1.896h-0.048
		c-0.553,0.937-1.776,2.16-3.841,2.16c-1.824,0-4.009-1.008-4.009-5.088v-6.793h2.112v6.433c0,2.208,0.673,3.696,2.593,3.696
		c1.416,0,2.4-0.984,2.784-1.92c0.12-0.313,0.191-0.696,0.191-1.08v-7.129h2.112V202.832z"/>
	<path fill="#FFFFFF" d="M130.291,198.007c0-1.367-0.023-2.544-0.096-3.624h1.848l0.072,2.28h0.096
		c0.528-1.56,1.801-2.544,3.217-2.544c0.24,0,0.408,0.023,0.6,0.072v1.992c-0.216-0.049-0.432-0.072-0.72-0.072
		c-1.488,0-2.544,1.128-2.832,2.712c-0.048,0.288-0.097,0.624-0.097,0.984V206h-2.088V198.007z"/>
	<path fill="#FFFFFF" d="M144.452,206l-0.168-1.464h-0.072c-0.647,0.912-1.896,1.728-3.552,1.728c-2.353,0-3.553-1.656-3.553-3.336
		c0-2.809,2.496-4.345,6.984-4.32v-0.24c0-0.96-0.264-2.688-2.64-2.688c-1.08,0-2.208,0.337-3.024,0.864l-0.48-1.392
		c0.961-0.624,2.353-1.032,3.816-1.032c3.553,0,4.417,2.424,4.417,4.752v4.345c0,1.008,0.048,1.992,0.191,2.784H144.452z
		 M144.141,200.071c-2.305-0.048-4.921,0.36-4.921,2.616c0,1.368,0.912,2.017,1.992,2.017c1.513,0,2.473-0.96,2.809-1.944
		c0.071-0.216,0.12-0.456,0.12-0.672V200.071z"/>
</g>
<g>
	<path fill="#FFFFFF" d="M181.383,20.117h-0.036l-2.034,1.098l-0.306-1.206l2.557-1.369h1.35v11.704h-1.53V20.117z"/>
</g>
</svg>
