<?xml version="1.0" encoding="utf-8"?>
<!-- Generator: Adobe Illustrator 16.0.0, SVG Export Plug-In . SVG Version: 6.00 Build 0)  -->
<!DOCTYPE svg PUBLIC "-//W3C//DTD SVG 1.1//EN" "http://www.w3.org/Graphics/SVG/1.1/DTD/svg11.dtd">
<svg version="1.1" id="Layer_1" xmlns="http://www.w3.org/2000/svg" xmlns:xlink="http://www.w3.org/1999/xlink" x="0px" y="0px"
	 width="312px" height="656px" viewBox="0 0 312 656" enable-background="new 0 0 312 656" xml:space="preserve">
<path fill="#FEEBE4" d="M284.75,12.031c-0.188-0.099-2.203-1.203-4.063-1.516c0,0-2.281-0.516-4.266-0.516
	C219.417,10,37,10.042,37,10.042c-10.959,0-28.458,14.142-28.458,29.89l0.167,191.493c5.502-1.304,11.193-6.049,14.142-9.576
	c5.147-6.157,9.77-17.473,11.261-21.066c1.492-3.593,7.705-21.961,11.846-33.696c4.142-11.745,8.435-19.27,14.56-29.85
	c6.127-10.585,18.96-24.191,22.129-27.209c3.179-3.008,14.435-11.675,30.299-20.339c15.854-8.665,45.045-14.63,48.079-15.206
	c3.045-0.585,45.636-10.205,48.866-10.852C213.122,62.996,240,55,253.125,49.25c13.986-6.127,32.375-19.25,35-22.25
	c0,0,5.479-5.759,5.75-9.25c0,0-2.492-0.478-3.875-1.906C288.594,14.391,287.141,13.297,284.75,12.031z"/>
<linearGradient id="SVGID_1_" gradientUnits="userSpaceOnUse" x1="168.835" y1="139.7217" x2="32.7148" y2="3.6016">
	<stop  offset="0" style="stop-color:#F9B05F"/>
	<stop  offset="1" style="stop-color:#F8655B"/>
</linearGradient>
<path fill="url(#SVGID_1_)" d="M283.38,11.35c-1.53-0.66-3.92-1.35-7.96-1.35H35.542C24.958,10,8.5,22.744,8.5,38.083l0.167,186.542
	c5.313-1.271,10.361-5.94,13.208-9.375c4.971-5.998,9.435-17.029,10.875-20.529s7.44-21.396,11.44-32.826
	c4-11.44,8.146-18.772,14.06-29.078c5.917-10.31,18.31-23.564,21.37-26.504c3.07-2.93,13.94-11.372,29.26-19.812
	c15.31-8.44,43.5-14.251,46.43-14.811c2.94-0.57,44.07-9.94,47.19-10.57c3.12-0.62,29.496-7.447,42.25-12.621
	c11.917-4.833,28.6-14.194,34.37-19.38c4.213-3.787,8.067-7.12,10.92-13.245C288.42,14.065,285.471,12.27,283.38,11.35z"/>
<path fill="#D8F5FD" d="M31.266,647.563c0,0,0.494-2.721,0.843-4.361c0.34-1.642,1.879-3.531,3.597-5.534
	c1.708-2.014,2.737-2.677,9.761-7.61c7.023-4.923,20.721-8.364,23.628-9.633c0.13-0.061,0.32-0.116,0.57-0.197
	c5.285-1.762,36.237-9.112,39.673-9.636c3.597-0.554,33.06-6.933,48.645-10.768c15.576-3.836,35.278-10.771,49.664-16.972
	c14.377-6.201,32.19-19.156,34.928-20.988c2.748-1.822,17.304-13.319,28.094-25.731c10.79-12.413,15.235-25.549,16.785-29.193
	c1.538-3.654,5.135-15.514,5.813-18.613c0.69-3.111,2.33-7.219,3.019-9.041c0.681-1.832,3.841-7.424,5.651-4.184l0.02,6.7
	l-0.207,140.645c-2.025,12.755-13.928,23.337-23.987,25.221l-238.879-0.115L31.266,647.563z"/>
<linearGradient id="SVGID_2_" gradientUnits="userSpaceOnUse" x1="39" y1="565.0977" x2="302" y2="565.0977">
	<stop  offset="0" style="stop-color:#04EFFF"/>
	<stop  offset="1" style="stop-color:#4DA8F9"/>
</linearGradient>
<path fill="url(#SVGID_2_)" d="M301.78,622.635c-1.59,12.67-13.971,23.088-23.68,25.098L39,647.541c0-0.44,0.39-1.94,0.71-3.311
	c0.04-0.18,0.08-0.37,0.12-0.55c0.34-1.5,1.84-3.346,3.5-5.176c1.67-1.83,2.67-2.502,9.5-7.002c1.95-1.28,4.42-2.462,7.03-3.512
	c6.55-2.63,13.95-4.49,15.97-5.32c2.84-1.17,35.67-8.501,39.17-9.001s32.17-6.34,47.33-9.84c15.17-3.5,34.34-9.83,48.34-15.5
	c14-5.66,31.33-17.5,34-19.16c2.66-1.67,16.83-12.17,27.33-23.5c10.5-11.34,14.83-23.34,16.33-26.67s5-14.17,5.67-17
	s3.5-12.5,4.17-14.17c0.58-1.47,2.09-3.86,3.35-5.08c0.101-0.1,0.2-0.19,0.301-0.27c0.06-0.061,0.12,0.064,0.18,0.015"/>
</svg>
