<?xml version="1.0" encoding="utf-8"?>
<!-- Generator: Adobe Illustrator 16.0.0, SVG Export Plug-In . SVG Version: 6.00 Build 0)  -->
<!DOCTYPE svg PUBLIC "-//W3C//DTD SVG 1.1//EN" "http://www.w3.org/Graphics/SVG/1.1/DTD/svg11.dtd">
<svg version="1.1" id="Layer_1" xmlns="http://www.w3.org/2000/svg" xmlns:xlink="http://www.w3.org/1999/xlink" x="0px" y="0px"
	 width="320px" height="568px" viewBox="0 0 320 568" enable-background="new 0 0 320 568" xml:space="preserve">
<g>
	<path fill="#FEEBE4" d="M244.789,1.615c-0.165-0.088-1.952-1.066-3.599-1.343c0,0-2.022-0.457-3.781-0.457
		c-50.513,0-212.155,0.037-212.155,0.037c-9.711,0-25.218,12.532-25.218,26.486l0.149,169.685c4.875-1.156,9.918-5.36,12.531-8.485
		c4.561-5.457,8.657-15.484,9.978-18.667c1.322-3.184,6.828-19.46,10.497-29.859c3.671-10.407,7.475-17.075,12.903-26.45
		c5.429-9.379,16.799-21.436,19.608-24.11c2.817-2.666,12.791-10.345,26.849-18.022c14.048-7.678,39.915-12.964,42.604-13.474
		c2.698-0.518,40.438-9.042,43.302-9.616c2.862-0.564,26.68-7.649,38.31-12.744c12.394-5.43,28.688-17.058,31.015-19.716
		c0,0,4.854-5.104,5.095-8.197c0,0-2.208-0.423-3.434-1.689C248.195,3.706,246.908,2.736,244.789,1.615z"/>
	<linearGradient id="SVGID_1_" gradientUnits="userSpaceOnUse" x1="142.0596" y1="114.7939" x2="21.5013" y2="-5.7643">
		<stop  offset="0" style="stop-color:#F9B05F"/>
		<stop  offset="1" style="stop-color:#F8655B"/>
	</linearGradient>
	<path fill="url(#SVGID_1_)" d="M243.575,1.104C242.219,0.519,240.102,0,236.521,0H23.962C14.584,0,0,11.199,0,24.793l0.147,165.251
		c4.708-1.126,9.181-5.287,11.704-8.331c4.405-5.314,8.361-15.101,9.637-18.202c1.276-3.101,6.592-18.964,10.137-29.093
		c3.544-10.137,7.218-16.637,12.459-25.77c5.243-9.136,16.225-20.882,18.936-23.487c2.72-2.597,12.353-10.078,25.928-17.557
		c13.566-7.479,38.546-12.628,41.143-13.125c2.604-0.504,39.05-8.809,41.815-9.367c2.766-0.549,26.137-6.599,37.438-11.184
		c10.56-4.283,25.343-12.577,30.456-17.173c3.733-3.355,7.148-6.263,9.676-11.69C248.041,3.463,245.428,1.919,243.575,1.104z"/>
	<path fill="#D8F5FD" d="M80.173,567.769c0,0,0.438-2.411,0.748-3.864c0.302-1.454,1.665-3.129,3.187-4.904
		c1.514-1.783,2.426-2.372,8.649-6.743c6.224-4.362,18.361-7.412,20.937-8.536c0.115-0.054,0.284-0.103,0.504-0.175
		c4.684-1.561,32.11-8.075,35.156-8.538c3.187-0.491,29.294-6.143,43.105-9.541c13.803-3.399,31.261-9.544,44.008-15.039
		c12.74-5.496,28.524-16.975,30.95-18.599c2.436-1.614,15.334-11.802,24.896-22.801c9.561-10.999,13.499-22.64,14.873-25.868
		c1.363-3.238,4.551-13.747,5.151-16.494c0.611-2.757,2.064-6.396,2.675-8.012c0.604-1.623,3.403-6.578,5.008-3.706l0.018,5.937
		l-0.184,124.627c-1.795,11.303-12.342,20.68-21.256,22.349l-211.675-0.102L80.173,567.769z"/>
	<linearGradient id="SVGID_2_" gradientUnits="userSpaceOnUse" x1="87.0269" y1="494.6963" x2="320.0752" y2="494.6963">
		<stop  offset="0" style="stop-color:#04EFFF"/>
		<stop  offset="1" style="stop-color:#4DA8F9"/>
	</linearGradient>
	<path fill="url(#SVGID_2_)" d="M319.88,545.68c-1.408,11.228-12.379,20.459-20.983,22.24l-211.87-0.17
		c0-0.391,0.346-1.72,0.629-2.934c0.036-0.159,0.071-0.328,0.106-0.487c0.301-1.329,1.63-2.965,3.101-4.586
		c1.479-1.622,2.366-2.218,8.418-6.204c1.727-1.136,3.916-2.183,6.229-3.112c5.805-2.33,12.363-3.979,14.152-4.715
		c2.517-1.037,31.608-7.533,34.709-7.976c3.102-0.443,28.506-5.618,41.939-8.72c13.443-3.102,30.43-8.711,42.836-13.734
		c12.405-5.016,27.762-15.507,30.127-16.978c2.358-1.48,14.913-10.785,24.218-20.825c9.305-10.048,13.141-20.682,14.471-23.632
		c1.329-2.951,4.431-12.556,5.023-15.063c0.594-2.509,3.103-11.077,3.696-12.557c0.514-1.302,1.852-3.421,2.967-4.502
		c0.09-0.088,0.179-0.169,0.267-0.238c0.054-0.054,0.106,0.057,0.16,0.013"/>
</g>
</svg>
