<?xml version="1.0" encoding="utf-8"?>
<!-- Generator: Adobe Illustrator 16.0.0, SVG Export Plug-In . SVG Version: 6.00 Build 0)  -->
<!DOCTYPE svg PUBLIC "-//W3C//DTD SVG 1.1//EN" "http://www.w3.org/Graphics/SVG/1.1/DTD/svg11.dtd">
<svg version="1.1" id="Capa_1" xmlns="http://www.w3.org/2000/svg" xmlns:xlink="http://www.w3.org/1999/xlink" x="0px" y="0px"
	 width="512px" height="512px" viewBox="0 0 512 512" enable-background="new 0 0 512 512" xml:space="preserve">
<g>
	
		<linearGradient id="SVGID_1_" gradientUnits="userSpaceOnUse" x1="186.1658" y1="-85.9453" x2="186.1658" y2="89.6665" gradientTransform="matrix(1 0 0 -1 -98.3599 426.0547)">
		<stop  offset="0" style="stop-color:#FFE59A"/>
		<stop  offset="1" style="stop-color:#FFFFD5"/>
	</linearGradient>
	<path fill="url(#SVGID_1_)" stroke="#8A000F" stroke-miterlimit="10" d="M64.393,336.389c-1.43,1.44-2.56,3.15-3.32,5.04l-60,150
		c-2.229,5.57-0.92,11.931,3.32,16.181c4.25,4.25,10.62,5.54,16.18,3.319l150-60c1.891-0.76,3.601-1.89,5.04-3.319l-33.609-72.61
		L64.393,336.389z"/>
	
		<linearGradient id="SVGID_2_" gradientUnits="userSpaceOnUse" x1="512.8616" y1="231.0566" x2="512.8616" y2="426.0532" gradientTransform="matrix(1 0 0 -1 -98.3599 426.0547)">
		<stop  offset="0" style="stop-color:#FFE59A"/>
		<stop  offset="1" style="stop-color:#FFFFD5"/>
	</linearGradient>
	<path fill="url(#SVGID_2_)" stroke="#8A000F" stroke-miterlimit="10" d="M507.613,115.608l-79.39,79.39l-70.22-39l-41-72.22
		l79.39-79.39c5.86-5.85,15.36-5.85,21.22,0l90,90C513.463,100.249,513.463,109.749,507.613,115.608z"/>
	<path fill="#993333" d="M428.223,194.999l-252.61,252.609l-111.22-111.22l252.61-252.611L428.223,194.999z"/>
</g>
</svg>
