<?xml version="1.0" encoding="utf-8"?>
<!-- Generator: Adobe Illustrator 16.0.0, SVG Export Plug-In . SVG Version: 6.00 Build 0)  -->
<!DOCTYPE svg PUBLIC "-//W3C//DTD SVG 1.1//EN" "http://www.w3.org/Graphics/SVG/1.1/DTD/svg11.dtd">
<svg version="1.1" id="Capa_1" xmlns="http://www.w3.org/2000/svg" xmlns:xlink="http://www.w3.org/1999/xlink" x="0px" y="0px"
	 width="595.279px" height="441.891px" viewBox="0 0 595.279 441.891" enable-background="new 0 0 595.279 441.891"
	 xml:space="preserve">
<rect x="370.404" y="289.308" transform="matrix(0.7844 -0.6203 0.6203 0.7844 -136.4805 328.0817)" fill="#1A1718" width="66.523" height="142.087"/>
<path fill="#FFFFFF" d="M280.931,335.189c-87.772,0-159.182-69.959-159.182-155.942c0-85.984,71.409-155.943,159.182-155.943
	c87.774,0,159.182,69.959,159.182,155.936C440.114,265.23,368.705,335.189,280.931,335.189z"/>
<path fill="#A90030" stroke="#001509" stroke-miterlimit="10" d="M280.931,36.608c80.436,0,145.878,63.986,145.878,142.639
	s-65.442,142.639-145.878,142.639c-80.436,0-145.878-63.985-145.878-142.639S200.496,36.608,280.931,36.608 M280.931,10
	c-95.263,0-172.486,75.773-172.486,169.247c0,93.474,77.223,169.246,172.486,169.246c95.264,0,172.486-75.772,172.486-169.246
	C453.417,85.773,376.196,10,280.931,10L280.931,10z"/>
</svg>
